{"glyphs":{"0":{"ha":838,"x_min":69,"x_max":769,"o":"m 418 -15 q 163 113 258 -15 q 69 498 69 242 q 113 786 69 671 q 235 960 156 902 q 419 1018 313 1018 q 673 888 578 1018 q 769 500 769 758 q 674 114 769 243 q 418 -15 578 -15 m 420 81 q 591 180 532 81 q 650 500 650 278 q 590 824 650 724 q 419 924 531 924 q 247 823 308 924 q 185 500 185 723 q 247 180 185 279 q 420 81 308 81 z "},"1":{"ha":557,"x_min":66,"x_max":376,"o":"m 264 0 l 264 812 l 66 812 l 66 888 q 206 900 157 888 q 275 939 256 913 q 297 1004 295 965 l 376 1004 l 376 0 l 264 0 z "},"2":{"ha":813,"x_min":66,"x_max":743,"o":"m 89 0 l 89 73 l 89 111 q 118 245 89 188 q 194 343 147 301 q 299 419 242 385 q 412 485 356 453 q 516 552 469 517 q 593 632 564 587 q 622 738 622 676 q 564 870 622 819 q 410 920 507 920 q 244 861 306 920 q 176 708 182 803 l 66 708 q 108 863 68 793 q 226 976 149 933 q 415 1018 303 1018 q 585 983 513 1018 q 697 885 657 948 q 736 738 736 822 q 707 604 736 660 q 632 507 678 548 q 529 433 585 465 q 416 369 473 400 q 313 305 360 339 q 238 227 266 271 q 209 122 209 183 l 209 99 l 743 99 l 743 0 l 89 0 z "},"3":{"ha":863,"x_min":69,"x_max":794,"o":"m 415 -15 q 239 23 316 -14 q 117 126 163 60 q 69 283 72 192 l 179 283 q 258 134 193 188 q 421 81 322 81 q 555 105 498 81 q 644 174 613 130 q 676 275 676 217 q 640 385 676 340 q 543 452 604 429 q 407 476 482 475 l 318 477 l 318 572 l 403 574 q 529 600 474 574 q 616 668 584 626 q 649 759 649 710 q 622 840 649 802 q 545 901 596 878 q 421 925 494 925 q 314 902 365 925 q 228 834 262 880 q 193 716 194 788 l 84 716 q 130 878 84 810 q 252 982 176 946 q 421 1018 329 1018 q 600 988 523 1018 q 722 900 678 957 q 766 762 766 842 q 717 626 766 688 q 572 531 669 565 q 690 477 640 513 q 767 390 740 441 q 794 275 794 340 q 766 154 794 208 q 688 62 738 100 q 567 4 637 24 q 415 -15 498 -16 z "},"4":{"ha":863,"x_min":66,"x_max":818,"o":"m 542 0 l 542 266 l 66 266 l 66 369 l 537 1004 l 649 1004 l 649 364 l 818 364 l 818 266 l 649 266 l 649 0 l 542 0 m 172 364 l 538 364 l 538 856 l 172 364 z "},"5":{"ha":876,"x_min":69,"x_max":808,"o":"m 450 -15 q 281 18 359 -15 q 148 111 203 51 q 69 249 93 170 l 167 283 q 230 176 190 222 q 323 105 269 131 q 444 78 376 78 q 624 144 556 78 q 692 326 692 210 q 659 450 692 397 q 573 532 626 503 q 455 560 519 560 q 374 553 412 560 q 299 522 335 545 q 224 453 263 499 q 219 452 221 452 q 214 454 218 452 l 117 478 l 162 1004 l 749 1004 l 746 908 l 257 908 l 230 562 q 340 633 278 612 q 474 655 402 655 q 639 618 563 655 q 761 509 715 581 q 808 329 808 436 q 764 148 808 225 q 639 27 719 70 q 450 -15 558 -15 z "},"6":{"ha":851,"x_min":69,"x_max":782,"o":"m 442 -15 q 244 45 328 -15 q 115 217 160 105 q 69 488 69 330 q 113 767 69 648 q 242 952 156 887 q 453 1018 328 1018 q 602 988 534 1018 q 716 901 670 958 q 774 765 761 844 l 670 765 q 594 882 650 838 q 455 926 538 926 q 299 873 362 926 q 208 717 237 820 q 187 461 179 613 q 244 559 205 517 q 337 625 283 601 q 453 649 391 649 q 626 610 552 649 q 741 500 699 572 q 782 328 782 428 q 741 149 782 226 q 624 28 700 72 q 442 -15 547 -15 m 442 78 q 557 108 507 78 q 636 194 608 139 q 665 323 665 250 q 639 448 665 395 q 564 528 614 500 q 440 557 514 557 q 328 530 381 557 q 242 456 276 502 q 209 353 209 410 q 237 211 208 274 q 319 114 266 149 q 442 78 372 78 z "},"7":{"ha":824,"x_min":66,"x_max":758,"o":"m 247 0 q 290 174 260 71 q 369 400 320 278 q 484 653 417 523 q 637 908 551 783 l 66 908 l 66 1004 l 758 1004 l 758 908 q 650 735 703 831 q 549 536 597 640 q 462 334 501 433 q 398 148 424 234 q 365 0 373 61 l 247 0 z "},"8":{"ha":891,"x_min":69,"x_max":822,"o":"m 444 -15 q 247 20 331 -15 q 115 120 162 56 q 69 270 69 184 q 99 383 69 328 q 175 475 128 437 q 274 523 222 513 q 158 608 203 552 q 113 747 113 664 q 156 894 113 833 q 275 986 200 955 q 444 1018 351 1018 q 615 986 540 1018 q 733 894 690 955 q 776 747 776 833 q 732 608 776 664 q 616 523 688 552 q 715 475 668 513 q 792 383 763 437 q 822 270 822 328 q 776 120 822 184 q 644 20 729 56 q 444 -15 559 -15 m 444 75 q 634 128 563 75 q 705 269 705 181 q 673 373 705 328 q 582 445 640 419 q 444 471 524 471 q 309 445 367 471 q 218 373 251 419 q 186 269 186 328 q 257 128 186 181 q 444 75 328 75 m 444 571 q 603 618 543 571 q 664 750 664 665 q 603 884 664 835 q 444 933 542 933 q 287 884 348 933 q 226 750 226 834 q 287 618 226 665 q 444 571 348 571 z "},"9":{"ha":854,"x_min":70,"x_max":785,"o":"m 397 -15 q 247 15 316 -15 q 130 102 177 46 q 70 238 83 158 l 176 238 q 253 122 195 166 q 393 78 311 78 q 553 127 487 78 q 651 281 619 177 q 676 545 683 384 q 621 444 660 488 q 527 376 582 401 q 407 351 473 351 q 234 390 308 351 q 117 501 159 428 q 76 675 76 574 q 116 854 76 776 q 233 975 157 931 q 414 1018 308 1018 q 611 958 527 1018 q 740 786 694 899 q 785 515 785 674 q 741 231 785 350 q 609 48 696 112 q 397 -15 522 -15 m 415 446 q 527 473 474 446 q 613 547 580 501 q 647 650 647 594 q 618 792 647 730 q 537 890 590 854 q 413 926 484 926 q 299 895 349 926 q 222 809 249 865 q 194 681 194 753 q 249 510 194 574 q 415 446 305 446 z "},"A":{"ha":981,"x_min":63,"x_max":918,"o":"m 63 0 l 427 1004 l 554 1004 l 918 0 l 806 0 l 703 286 l 278 286 l 174 0 l 63 0 m 308 389 l 672 389 l 490 897 l 308 389 z "},"Á":{"ha":981,"x_min":63,"x_max":918,"o":"m 63 0 l 427 1004 l 554 1004 l 918 0 l 806 0 l 703 286 l 278 286 l 174 0 l 63 0 m 308 389 l 672 389 l 490 897 l 308 389 m 440 1088 l 583 1290 l 712 1290 l 526 1088 l 440 1088 z "},"Ă":{"ha":981,"x_min":63,"x_max":918,"o":"m 63 0 l 427 1004 l 554 1004 l 918 0 l 806 0 l 703 286 l 278 286 l 174 0 l 63 0 m 308 389 l 672 389 l 490 897 l 308 389 m 489 1086 q 398 1103 440 1086 q 327 1151 356 1119 q 289 1229 299 1183 l 372 1229 q 415 1176 384 1197 q 489 1155 445 1155 q 564 1176 533 1155 q 608 1229 596 1197 l 692 1229 q 653 1153 681 1185 q 583 1103 625 1121 q 489 1086 541 1086 z "},"Ắ":{"ha":981,"x_min":63,"x_max":918,"o":"m 63 0 l 427 1004 l 554 1004 l 918 0 l 806 0 l 703 286 l 278 286 l 174 0 l 63 0 m 308 389 l 672 389 l 490 897 l 308 389 m 492 1086 q 401 1103 443 1086 q 331 1151 360 1119 q 292 1229 302 1183 l 376 1229 q 418 1176 388 1197 q 492 1155 449 1155 q 568 1176 536 1155 q 612 1229 599 1197 l 695 1229 q 657 1153 685 1185 q 586 1103 628 1121 q 492 1086 544 1086 m 453 1244 l 553 1409 l 663 1409 l 529 1244 l 453 1244 z "},"Ặ":{"ha":981,"x_min":63,"x_max":918,"o":"m 63 0 l 427 1004 l 554 1004 l 918 0 l 806 0 l 703 286 l 278 286 l 174 0 l 63 0 m 308 389 l 672 389 l 490 897 l 308 389 m 434 -242 l 434 -128 l 547 -128 l 547 -242 l 434 -242 m 489 1086 q 398 1103 440 1086 q 327 1151 356 1119 q 289 1229 299 1183 l 372 1229 q 415 1176 384 1197 q 489 1155 445 1155 q 564 1176 533 1155 q 608 1229 596 1197 l 692 1229 q 653 1153 681 1185 q 583 1103 625 1121 q 489 1086 541 1086 z "},"Ằ":{"ha":981,"x_min":63,"x_max":918,"o":"m 63 0 l 427 1004 l 554 1004 l 918 0 l 806 0 l 703 286 l 278 286 l 174 0 l 63 0 m 308 389 l 672 389 l 490 897 l 308 389 m 492 1086 q 401 1103 443 1086 q 331 1151 360 1119 q 292 1229 302 1183 l 376 1229 q 418 1176 388 1197 q 492 1155 449 1155 q 568 1176 536 1155 q 612 1229 599 1197 l 695 1229 q 657 1153 685 1185 q 586 1103 628 1121 q 492 1086 544 1086 m 464 1243 l 320 1408 l 431 1408 l 541 1243 l 464 1243 z "},"Ẳ":{"ha":981,"x_min":63,"x_max":918,"o":"m 63 0 l 427 1004 l 554 1004 l 918 0 l 806 0 l 703 286 l 278 286 l 174 0 l 63 0 m 308 389 l 672 389 l 490 897 l 308 389 m 492 1086 q 401 1103 443 1086 q 331 1151 360 1119 q 292 1229 302 1183 l 376 1229 q 418 1176 388 1197 q 492 1155 449 1155 q 568 1176 536 1155 q 612 1229 599 1197 l 695 1229 q 657 1153 685 1185 q 586 1103 628 1121 q 492 1086 544 1086 m 499 1226 l 465 1280 q 508 1325 495 1299 q 506 1374 521 1351 q 462 1397 492 1398 q 403 1376 432 1396 l 368 1431 q 465 1462 417 1462 q 562 1412 528 1462 q 577 1312 595 1361 q 499 1226 559 1263 z "},"Ẵ":{"ha":981,"x_min":63,"x_max":918,"o":"m 63 0 l 427 1004 l 554 1004 l 918 0 l 806 0 l 703 286 l 278 286 l 174 0 l 63 0 m 308 389 l 672 389 l 490 897 l 308 389 m 492 1086 q 401 1103 443 1086 q 331 1151 360 1119 q 292 1229 302 1183 l 376 1229 q 418 1176 388 1197 q 492 1155 449 1155 q 568 1176 536 1155 q 612 1229 599 1197 l 695 1229 q 657 1153 685 1185 q 586 1103 628 1121 q 492 1086 544 1086 m 317 1314 l 295 1382 q 343 1416 317 1402 q 406 1431 368 1431 q 468 1421 439 1431 q 524 1402 497 1412 q 583 1393 552 1393 q 634 1403 613 1393 q 675 1429 655 1414 l 697 1354 q 652 1330 679 1342 q 582 1317 625 1317 q 518 1325 545 1317 q 467 1343 492 1334 q 412 1351 442 1351 q 358 1340 378 1351 q 317 1314 338 1328 z "},"Â":{"ha":981,"x_min":63,"x_max":918,"o":"m 63 0 l 427 1004 l 554 1004 l 918 0 l 806 0 l 703 286 l 278 286 l 174 0 l 63 0 m 308 389 l 672 389 l 490 897 l 308 389 m 280 1088 l 451 1238 l 531 1238 l 699 1088 l 588 1088 l 490 1176 l 384 1088 l 280 1088 z "},"Ấ":{"ha":981,"x_min":63,"x_max":918,"o":"m 63 0 l 427 1004 l 554 1004 l 918 0 l 806 0 l 703 286 l 278 286 l 174 0 l 63 0 m 308 389 l 672 389 l 490 897 l 308 389 m 281 1088 l 452 1238 l 531 1238 l 700 1088 l 589 1088 l 490 1176 l 385 1088 l 281 1088 m 610 1238 l 710 1402 l 820 1402 l 685 1238 l 610 1238 z "},"Ậ":{"ha":981,"x_min":63,"x_max":918,"o":"m 63 0 l 427 1004 l 554 1004 l 918 0 l 806 0 l 703 286 l 278 286 l 174 0 l 63 0 m 308 389 l 672 389 l 490 897 l 308 389 m 434 -242 l 434 -128 l 547 -128 l 547 -242 l 434 -242 m 281 1088 l 452 1238 l 531 1238 l 700 1088 l 589 1088 l 490 1176 l 385 1088 l 281 1088 z "},"Ầ":{"ha":981,"x_min":63,"x_max":918,"o":"m 63 0 l 427 1004 l 554 1004 l 918 0 l 806 0 l 703 286 l 278 286 l 174 0 l 63 0 m 308 389 l 672 389 l 490 897 l 308 389 m 281 1088 l 452 1238 l 531 1238 l 700 1088 l 589 1088 l 490 1176 l 385 1088 l 281 1088 m 680 1238 l 537 1403 l 647 1403 l 757 1238 l 680 1238 z "},"Ẩ":{"ha":981,"x_min":63,"x_max":918,"o":"m 63 0 l 427 1004 l 554 1004 l 918 0 l 806 0 l 703 286 l 278 286 l 174 0 l 63 0 m 308 389 l 672 389 l 490 897 l 308 389 m 283 1088 l 454 1238 l 533 1238 l 702 1088 l 591 1088 l 492 1176 l 387 1088 l 283 1088 m 642 1205 l 608 1259 q 651 1305 638 1278 q 649 1353 664 1331 q 605 1376 635 1377 q 546 1356 575 1375 l 511 1410 q 623 1440 569 1447 q 705 1391 677 1433 q 720 1291 738 1340 q 642 1205 702 1242 z "},"Ẫ":{"ha":981,"x_min":63,"x_max":918,"o":"m 63 0 l 427 1004 l 554 1004 l 918 0 l 806 0 l 703 286 l 278 286 l 174 0 l 63 0 m 308 389 l 672 389 l 490 897 l 308 389 m 281 1088 l 453 1238 l 532 1238 l 701 1088 l 590 1088 l 491 1176 l 385 1088 l 281 1088 m 313 1316 l 291 1384 q 339 1418 313 1404 q 401 1433 364 1433 q 464 1423 435 1433 q 520 1405 492 1414 q 578 1395 548 1395 q 630 1406 608 1395 q 671 1431 651 1416 l 692 1356 q 648 1332 675 1344 q 578 1319 621 1319 q 514 1327 541 1319 q 463 1345 488 1336 q 408 1353 438 1353 q 353 1342 374 1353 q 313 1316 333 1331 z "},"Ȁ":{"ha":981,"x_min":63,"x_max":918,"o":"m 63 0 l 427 1004 l 554 1004 l 918 0 l 806 0 l 703 286 l 278 286 l 174 0 l 63 0 m 308 389 l 672 389 l 490 897 l 308 389 m 357 1088 l 158 1290 l 281 1290 l 443 1088 l 357 1088 m 537 1088 l 367 1290 l 488 1290 l 623 1088 l 537 1088 z "},"Ä":{"ha":981,"x_min":63,"x_max":918,"o":"m 63 0 l 427 1004 l 554 1004 l 918 0 l 806 0 l 703 286 l 278 286 l 174 0 l 63 0 m 308 389 l 672 389 l 490 897 l 308 389 m 564 1177 l 565 1290 l 673 1290 l 672 1177 l 564 1177 m 308 1177 l 309 1290 l 417 1290 l 417 1177 l 308 1177 z "},"Ạ":{"ha":981,"x_min":63,"x_max":918,"o":"m 63 0 l 427 1004 l 554 1004 l 918 0 l 806 0 l 703 286 l 278 286 l 174 0 l 63 0 m 308 389 l 672 389 l 490 897 l 308 389 m 434 -242 l 434 -128 l 547 -128 l 547 -242 l 434 -242 z "},"À":{"ha":981,"x_min":63,"x_max":918,"o":"m 63 0 l 427 1004 l 554 1004 l 918 0 l 806 0 l 703 286 l 278 286 l 174 0 l 63 0 m 308 389 l 672 389 l 490 897 l 308 389 m 452 1088 l 266 1290 l 395 1290 l 538 1088 l 452 1088 z "},"Ả":{"ha":981,"x_min":63,"x_max":918,"o":"m 63 0 l 427 1004 l 554 1004 l 918 0 l 806 0 l 703 286 l 278 286 l 174 0 l 63 0 m 308 389 l 672 389 l 490 897 l 308 389 m 528 1086 l 492 1140 q 536 1185 523 1160 q 534 1234 549 1211 q 490 1257 520 1258 q 431 1237 460 1256 l 396 1291 q 508 1321 453 1328 q 590 1272 562 1315 q 606 1172 624 1221 q 528 1086 588 1122 z "},"Ȃ":{"ha":981,"x_min":63,"x_max":918,"o":"m 63 0 l 427 1004 l 554 1004 l 918 0 l 806 0 l 703 286 l 278 286 l 174 0 l 63 0 m 308 389 l 672 389 l 490 897 l 308 389 m 285 1130 q 324 1208 296 1176 q 395 1257 353 1240 q 485 1273 437 1273 q 580 1256 538 1273 q 651 1206 622 1238 q 688 1130 679 1174 l 606 1130 q 561 1184 593 1163 q 485 1205 529 1205 q 411 1184 442 1205 q 369 1130 381 1163 l 285 1130 z "},"Ā":{"ha":981,"x_min":63,"x_max":918,"o":"m 63 0 l 427 1004 l 554 1004 l 918 0 l 806 0 l 703 286 l 278 286 l 174 0 l 63 0 m 308 389 l 672 389 l 490 897 l 308 389 m 293 1149 l 293 1229 l 688 1229 l 688 1149 l 293 1149 z "},"Ą":{"ha":981,"x_min":63,"x_max":954,"o":"m 63 0 l 427 1004 l 554 1004 l 918 0 l 806 0 l 703 286 l 278 286 l 174 0 l 63 0 m 308 389 l 672 389 l 490 897 l 308 389 m 830 -231 q 729 -202 763 -231 q 696 -122 696 -172 q 726 -47 696 -80 q 840 13 756 -13 l 921 3 q 819 -53 851 -27 q 788 -115 788 -80 q 803 -154 788 -141 q 855 -167 819 -167 q 915 -159 889 -167 q 954 -143 941 -151 l 954 -204 q 903 -223 938 -214 q 830 -231 869 -231 z "},"Å":{"ha":981,"x_min":63,"x_max":918,"o":"m 63 0 l 427 1004 l 554 1004 l 918 0 l 806 0 l 703 286 l 278 286 l 174 0 l 63 0 m 308 389 l 672 389 l 490 897 l 308 389 m 491 1091 q 391 1132 432 1091 q 350 1235 350 1174 q 392 1331 350 1291 q 491 1371 433 1371 q 563 1352 531 1371 q 614 1302 594 1333 q 633 1232 633 1271 q 592 1132 633 1172 q 491 1091 551 1091 m 490 1154 q 543 1177 521 1154 q 565 1231 565 1201 q 543 1286 565 1265 q 490 1307 521 1307 q 436 1286 459 1307 q 413 1231 413 1265 q 436 1177 413 1201 q 490 1154 459 1154 z "},"Ǻ":{"ha":981,"x_min":63,"x_max":918,"o":"m 578 1306 l 538 1211 q 603 1163 578 1197 q 628 1084 628 1129 q 588 986 628 1025 q 490 947 548 947 q 391 987 431 947 q 351 1087 351 1027 q 385 1174 351 1138 q 467 1217 418 1210 l 488 1306 l 578 1306 m 488 1006 q 542 1029 519 1006 q 564 1083 564 1053 q 542 1138 564 1116 q 488 1159 519 1159 q 435 1138 458 1159 q 412 1083 412 1116 q 435 1029 412 1053 q 488 1006 458 1006 m 63 0 l 427 1004 l 554 1004 l 918 0 l 806 0 l 703 286 l 278 286 l 174 0 l 63 0 m 308 389 l 672 389 l 490 897 l 308 389 z "},"Ã":{"ha":981,"x_min":63,"x_max":918,"o":"m 63 0 l 427 1004 l 554 1004 l 918 0 l 806 0 l 703 286 l 278 286 l 174 0 l 63 0 m 308 389 l 672 389 l 490 897 l 308 389 m 313 1138 l 292 1206 q 339 1241 314 1226 q 402 1255 365 1255 q 464 1245 435 1255 q 520 1227 492 1236 q 579 1217 549 1217 q 630 1228 609 1217 q 672 1253 651 1238 l 693 1178 q 649 1154 676 1167 q 578 1141 622 1141 q 515 1150 542 1141 q 463 1167 488 1158 q 408 1176 438 1176 q 353 1164 374 1176 q 313 1138 333 1153 z "},"Æ":{"ha":1328,"x_min":0,"x_max":1242,"o":"m 0 0 l 560 1004 l 1225 1004 l 1224 908 l 745 908 l 745 555 l 1178 555 l 1178 460 l 745 460 l 745 97 l 1242 97 l 1242 0 l 622 0 l 622 290 l 274 290 l 111 0 l 0 0 m 318 389 l 622 389 l 622 922 l 318 389 z "},"Ǽ":{"ha":1328,"x_min":0,"x_max":1242,"o":"m 0 0 l 560 1004 l 1225 1004 l 1224 908 l 745 908 l 745 555 l 1178 555 l 1178 460 l 745 460 l 745 97 l 1242 97 l 1242 0 l 622 0 l 622 290 l 274 290 l 111 0 l 0 0 m 318 389 l 622 389 l 622 922 l 318 389 m 832 1088 l 975 1290 l 1104 1290 l 918 1088 l 832 1088 z "},"B":{"ha":926,"x_min":138,"x_max":842,"o":"m 138 0 l 138 1004 l 450 1004 q 723 937 629 1004 q 817 743 817 870 q 775 604 817 662 q 628 512 732 547 q 727 477 686 500 q 793 423 768 454 q 830 353 819 392 q 842 269 842 314 q 744 67 842 134 q 458 0 647 0 l 138 0 m 247 94 l 456 94 q 662 136 591 94 q 733 272 733 179 q 698 381 733 340 q 603 442 663 423 q 472 460 544 460 l 247 460 l 247 94 m 247 556 l 472 556 q 556 564 514 556 q 633 591 598 572 q 690 644 669 610 q 712 729 712 678 q 640 868 712 824 q 453 912 568 912 l 247 912 l 247 556 z "},"C":{"ha":945,"x_min":77,"x_max":868,"o":"m 497 -14 q 269 47 363 -14 q 126 223 176 108 q 77 504 77 339 q 126 784 77 669 q 269 958 175 899 q 497 1018 363 1018 q 681 974 601 1018 q 810 858 762 931 q 868 701 859 786 l 751 701 q 707 812 740 762 q 622 892 675 862 q 494 922 568 922 q 331 876 397 922 q 231 739 265 831 q 197 503 197 646 q 273 185 197 288 q 494 83 348 83 q 622 114 568 83 q 707 196 675 145 q 751 308 740 247 l 868 308 q 834 188 860 246 q 761 84 807 130 q 648 13 715 39 q 497 -14 582 -14 z "},"Ć":{"ha":945,"x_min":77,"x_max":868,"o":"m 497 -14 q 269 47 363 -14 q 126 223 176 108 q 77 504 77 339 q 126 784 77 669 q 269 958 175 899 q 497 1018 363 1018 q 681 974 601 1018 q 810 858 762 931 q 868 701 859 786 l 751 701 q 707 812 740 762 q 622 892 675 862 q 494 922 568 922 q 331 876 397 922 q 231 739 265 831 q 197 503 197 646 q 273 185 197 288 q 494 83 348 83 q 622 114 568 83 q 707 196 675 145 q 751 308 740 247 l 868 308 q 834 188 860 246 q 761 84 807 130 q 648 13 715 39 q 497 -14 582 -14 m 441 1088 l 584 1290 l 713 1290 l 527 1088 l 441 1088 z "},"Č":{"ha":945,"x_min":77,"x_max":868,"o":"m 497 -14 q 269 47 363 -14 q 126 223 176 108 q 77 504 77 339 q 126 784 77 669 q 269 958 175 899 q 497 1018 363 1018 q 681 974 601 1018 q 810 858 762 931 q 868 701 859 786 l 751 701 q 707 812 740 762 q 622 892 675 862 q 494 922 568 922 q 331 876 397 922 q 231 739 265 831 q 197 503 197 646 q 273 185 197 288 q 494 83 348 83 q 622 114 568 83 q 707 196 675 145 q 751 308 740 247 l 868 308 q 834 188 860 246 q 761 84 807 130 q 648 13 715 39 q 497 -14 582 -14 m 453 1088 l 281 1238 l 386 1238 l 492 1147 l 590 1238 l 701 1238 l 533 1088 l 453 1088 z "},"Ç":{"ha":945,"x_min":77,"x_max":868,"o":"m 474 -283 q 408 -275 439 -283 q 350 -249 377 -267 l 369 -199 q 409 -222 387 -212 q 462 -231 431 -231 q 520 -217 501 -231 q 538 -178 538 -203 q 513 -133 538 -148 q 429 -117 487 -118 q 421 -115 423 -117 q 422 -108 419 -112 l 472 7 l 533 7 l 500 -77 q 573 -95 547 -80 q 609 -133 599 -110 q 620 -178 620 -155 q 600 -236 620 -212 q 547 -271 580 -259 q 474 -283 514 -283 m 497 -14 q 269 47 363 -14 q 126 223 176 108 q 77 504 77 339 q 126 784 77 669 q 269 958 175 899 q 497 1018 363 1018 q 681 974 601 1018 q 810 858 762 931 q 868 701 859 786 l 751 701 q 707 812 740 762 q 622 892 675 862 q 494 922 568 922 q 331 876 397 922 q 231 739 265 831 q 197 503 197 646 q 273 185 197 288 q 494 83 348 83 q 622 114 568 83 q 707 196 675 145 q 751 308 740 247 l 868 308 q 834 188 860 246 q 761 84 807 130 q 648 13 715 39 q 497 -14 582 -14 z "},"Ĉ":{"ha":945,"x_min":77,"x_max":868,"o":"m 497 -14 q 269 47 363 -14 q 126 223 176 108 q 77 504 77 339 q 126 784 77 669 q 269 958 175 899 q 497 1018 363 1018 q 681 974 601 1018 q 810 858 762 931 q 868 701 859 786 l 751 701 q 707 812 740 762 q 622 892 675 862 q 494 922 568 922 q 331 876 397 922 q 231 739 265 831 q 197 503 197 646 q 273 185 197 288 q 494 83 348 83 q 622 114 568 83 q 707 196 675 145 q 751 308 740 247 l 868 308 q 834 188 860 246 q 761 84 807 130 q 648 13 715 39 q 497 -14 582 -14 m 282 1088 l 453 1238 l 533 1238 l 701 1088 l 590 1088 l 492 1176 l 386 1088 l 282 1088 z "},"Ċ":{"ha":945,"x_min":77,"x_max":868,"o":"m 497 -14 q 269 47 363 -14 q 126 223 176 108 q 77 504 77 339 q 126 784 77 669 q 269 958 175 899 q 497 1018 363 1018 q 681 974 601 1018 q 810 858 762 931 q 868 701 859 786 l 751 701 q 707 812 740 762 q 622 892 675 862 q 494 922 568 922 q 331 876 397 922 q 231 739 265 831 q 197 503 197 646 q 273 185 197 288 q 494 83 348 83 q 622 114 568 83 q 707 196 675 145 q 751 308 740 247 l 868 308 q 834 188 860 246 q 761 84 807 130 q 648 13 715 39 q 497 -14 582 -14 m 435 1177 l 435 1290 l 549 1290 l 549 1177 l 435 1177 z "},"D":{"ha":953,"x_min":138,"x_max":876,"o":"m 138 0 l 138 1004 q 164 1004 142 1004 q 218 1004 185 1003 q 286 1004 250 1004 q 353 1003 322 1003 q 653 944 538 1001 q 822 779 769 888 q 876 509 876 670 q 818 226 876 340 q 641 57 760 113 q 338 0 522 0 l 138 0 m 251 96 l 338 96 q 567 136 472 96 q 712 266 662 176 q 762 506 762 356 q 713 746 762 658 q 569 871 663 834 q 344 908 476 908 l 251 908 l 251 96 z "},"Ð":{"ha":966,"x_min":49,"x_max":889,"o":"m 49 458 l 49 549 l 499 549 l 499 458 l 49 458 m 151 0 l 151 1004 q 177 1004 155 1004 q 231 1004 199 1003 q 299 1004 263 1004 q 366 1003 335 1003 q 666 944 551 1001 q 835 779 781 888 q 889 509 889 670 q 831 226 889 340 q 653 57 773 113 q 351 0 534 0 l 151 0 m 263 96 l 350 96 q 580 136 485 96 q 724 266 674 176 q 774 506 774 356 q 725 746 774 658 q 582 871 676 834 q 356 908 489 908 l 263 908 l 263 96 z "},"Ď":{"ha":953,"x_min":138,"x_max":876,"o":"m 138 0 l 138 1004 q 164 1004 142 1004 q 218 1004 185 1003 q 286 1004 250 1004 q 353 1003 322 1003 q 653 944 538 1001 q 822 779 769 888 q 876 509 876 670 q 818 226 876 340 q 641 57 760 113 q 338 0 522 0 l 138 0 m 251 96 l 338 96 q 567 136 472 96 q 712 266 662 176 q 762 506 762 356 q 713 746 762 658 q 569 871 663 834 q 344 908 476 908 l 251 908 l 251 96 m 429 1088 l 256 1238 l 362 1238 l 467 1147 l 566 1238 l 677 1238 l 508 1088 l 429 1088 z "},"Đ":{"ha":966,"x_min":49,"x_max":889,"o":"m 49 458 l 49 549 l 499 549 l 499 458 l 49 458 m 151 0 l 151 1004 q 177 1004 155 1004 q 231 1004 199 1003 q 299 1004 263 1004 q 366 1003 335 1003 q 666 944 551 1001 q 835 779 781 888 q 889 509 889 670 q 831 226 889 340 q 653 57 773 113 q 351 0 534 0 l 151 0 m 263 96 l 350 96 q 580 136 485 96 q 724 266 674 176 q 774 506 774 356 q 725 746 774 658 q 582 871 676 834 q 356 908 489 908 l 263 908 l 263 96 z "},"Ḍ":{"ha":953,"x_min":138,"x_max":876,"o":"m 138 0 l 138 1004 q 164 1004 142 1004 q 218 1004 185 1003 q 286 1004 250 1004 q 353 1003 322 1003 q 653 944 538 1001 q 822 779 769 888 q 876 509 876 670 q 818 226 876 340 q 641 57 760 113 q 338 0 522 0 l 138 0 m 251 96 l 338 96 q 567 136 472 96 q 712 266 662 176 q 762 506 762 356 q 713 746 762 658 q 569 871 663 834 q 344 908 476 908 l 251 908 l 251 96 m 438 -242 l 438 -128 l 551 -128 l 551 -242 l 438 -242 z "},"E":{"ha":857,"x_min":138,"x_max":771,"o":"m 138 0 l 138 1004 l 756 1004 l 756 907 l 247 907 l 247 556 l 709 556 l 709 458 l 247 458 l 247 100 l 771 99 l 771 0 l 138 0 z "},"É":{"ha":857,"x_min":138,"x_max":771,"o":"m 138 0 l 138 1004 l 756 1004 l 756 907 l 247 907 l 247 556 l 709 556 l 709 458 l 247 458 l 247 100 l 771 99 l 771 0 l 138 0 m 399 1088 l 542 1290 l 671 1290 l 485 1088 l 399 1088 z "},"Ĕ":{"ha":857,"x_min":138,"x_max":771,"o":"m 138 0 l 138 1004 l 756 1004 l 756 907 l 247 907 l 247 556 l 709 556 l 709 458 l 247 458 l 247 100 l 771 99 l 771 0 l 138 0 m 448 1086 q 357 1103 399 1086 q 286 1151 315 1119 q 248 1229 258 1183 l 331 1229 q 374 1176 343 1197 q 448 1155 404 1155 q 523 1176 492 1155 q 567 1229 555 1197 l 651 1229 q 612 1153 640 1185 q 542 1103 584 1121 q 448 1086 500 1086 z "},"Ě":{"ha":857,"x_min":138,"x_max":771,"o":"m 138 0 l 138 1004 l 756 1004 l 756 907 l 247 907 l 247 556 l 709 556 l 709 458 l 247 458 l 247 100 l 771 99 l 771 0 l 138 0 m 411 1088 l 238 1238 l 344 1238 l 449 1147 l 548 1238 l 659 1238 l 490 1088 l 411 1088 z "},"Ê":{"ha":857,"x_min":138,"x_max":771,"o":"m 138 0 l 138 1004 l 756 1004 l 756 907 l 247 907 l 247 556 l 709 556 l 709 458 l 247 458 l 247 100 l 771 99 l 771 0 l 138 0 m 240 1088 l 411 1238 l 490 1238 l 659 1088 l 548 1088 l 449 1176 l 344 1088 l 240 1088 z "},"Ế":{"ha":857,"x_min":138,"x_max":779,"o":"m 138 0 l 138 1004 l 756 1004 l 756 907 l 247 907 l 247 556 l 709 556 l 709 458 l 247 458 l 247 100 l 771 99 l 771 0 l 138 0 m 240 1088 l 411 1238 l 490 1238 l 659 1088 l 548 1088 l 449 1176 l 344 1088 l 240 1088 m 569 1238 l 669 1402 l 779 1402 l 644 1238 l 569 1238 z "},"Ệ":{"ha":857,"x_min":138,"x_max":771,"o":"m 138 0 l 138 1004 l 756 1004 l 756 907 l 247 907 l 247 556 l 709 556 l 709 458 l 247 458 l 247 100 l 771 99 l 771 0 l 138 0 m 422 -242 l 422 -128 l 535 -128 l 535 -242 l 422 -242 m 240 1088 l 411 1238 l 490 1238 l 659 1088 l 548 1088 l 449 1176 l 344 1088 l 240 1088 z "},"Ề":{"ha":857,"x_min":138,"x_max":771,"o":"m 138 0 l 138 1004 l 756 1004 l 756 907 l 247 907 l 247 556 l 709 556 l 709 458 l 247 458 l 247 100 l 771 99 l 771 0 l 138 0 m 240 1088 l 411 1238 l 490 1238 l 659 1088 l 548 1088 l 449 1176 l 344 1088 l 240 1088 m 639 1238 l 496 1403 l 606 1403 l 716 1238 l 639 1238 z "},"Ể":{"ha":857,"x_min":138,"x_max":771,"o":"m 138 0 l 138 1004 l 756 1004 l 756 907 l 247 907 l 247 556 l 709 556 l 709 458 l 247 458 l 247 100 l 771 99 l 771 0 l 138 0 m 242 1088 l 414 1238 l 493 1238 l 662 1088 l 551 1088 l 452 1176 l 347 1088 l 242 1088 m 602 1205 l 567 1259 q 611 1305 598 1278 q 609 1353 624 1331 q 565 1376 594 1377 q 506 1356 535 1375 l 471 1410 q 583 1440 528 1447 q 665 1391 637 1433 q 680 1291 698 1340 q 602 1205 662 1242 z "},"Ễ":{"ha":857,"x_min":138,"x_max":771,"o":"m 138 0 l 138 1004 l 756 1004 l 756 907 l 247 907 l 247 556 l 709 556 l 709 458 l 247 458 l 247 100 l 771 99 l 771 0 l 138 0 m 240 1088 l 412 1238 l 491 1238 l 660 1088 l 549 1088 l 450 1176 l 344 1088 l 240 1088 m 272 1316 l 250 1384 q 298 1418 272 1404 q 360 1433 323 1433 q 423 1423 394 1433 q 479 1405 451 1414 q 538 1395 507 1395 q 589 1406 567 1395 q 630 1431 610 1416 l 651 1356 q 607 1332 634 1344 q 537 1319 580 1319 q 473 1327 500 1319 q 422 1345 447 1336 q 367 1353 397 1353 q 313 1342 333 1353 q 272 1316 292 1331 z "},"Ȅ":{"ha":857,"x_min":117,"x_max":771,"o":"m 138 0 l 138 1004 l 756 1004 l 756 907 l 247 907 l 247 556 l 709 556 l 709 458 l 247 458 l 247 100 l 771 99 l 771 0 l 138 0 m 316 1088 l 117 1290 l 240 1290 l 402 1088 l 316 1088 m 496 1088 l 326 1290 l 447 1290 l 582 1088 l 496 1088 z "},"Ë":{"ha":857,"x_min":138,"x_max":771,"o":"m 138 0 l 138 1004 l 756 1004 l 756 907 l 247 907 l 247 556 l 709 556 l 709 458 l 247 458 l 247 100 l 771 99 l 771 0 l 138 0 m 523 1177 l 524 1290 l 632 1290 l 631 1177 l 523 1177 m 267 1177 l 268 1290 l 376 1290 l 376 1177 l 267 1177 z "},"Ė":{"ha":857,"x_min":138,"x_max":771,"o":"m 138 0 l 138 1004 l 756 1004 l 756 907 l 247 907 l 247 556 l 709 556 l 709 458 l 247 458 l 247 100 l 771 99 l 771 0 l 138 0 m 393 1177 l 393 1290 l 506 1290 l 506 1177 l 393 1177 z "},"Ẹ":{"ha":857,"x_min":138,"x_max":771,"o":"m 138 0 l 138 1004 l 756 1004 l 756 907 l 247 907 l 247 556 l 709 556 l 709 458 l 247 458 l 247 100 l 771 99 l 771 0 l 138 0 m 422 -242 l 422 -128 l 535 -128 l 535 -242 l 422 -242 z "},"È":{"ha":857,"x_min":138,"x_max":771,"o":"m 138 0 l 138 1004 l 756 1004 l 756 907 l 247 907 l 247 556 l 709 556 l 709 458 l 247 458 l 247 100 l 771 99 l 771 0 l 138 0 m 411 1088 l 225 1290 l 354 1290 l 497 1088 l 411 1088 z "},"Ẻ":{"ha":857,"x_min":138,"x_max":771,"o":"m 138 0 l 138 1004 l 756 1004 l 756 907 l 247 907 l 247 556 l 709 556 l 709 458 l 247 458 l 247 100 l 771 99 l 771 0 l 138 0 m 487 1086 l 451 1140 q 495 1185 482 1160 q 493 1234 508 1211 q 449 1257 479 1258 q 390 1237 419 1256 l 355 1291 q 467 1321 413 1328 q 549 1272 521 1315 q 565 1172 583 1221 q 487 1086 547 1122 z "},"Ȇ":{"ha":857,"x_min":138,"x_max":771,"o":"m 138 0 l 138 1004 l 756 1004 l 756 907 l 247 907 l 247 556 l 709 556 l 709 458 l 247 458 l 247 100 l 771 99 l 771 0 l 138 0 m 244 1130 q 283 1208 255 1176 q 354 1257 312 1240 q 444 1273 396 1273 q 539 1256 497 1273 q 610 1206 581 1238 q 647 1130 638 1174 l 565 1130 q 520 1184 552 1163 q 444 1205 488 1205 q 370 1184 401 1205 q 328 1130 340 1163 l 244 1130 z "},"Ē":{"ha":857,"x_min":138,"x_max":771,"o":"m 138 0 l 138 1004 l 756 1004 l 756 907 l 247 907 l 247 556 l 709 556 l 709 458 l 247 458 l 247 100 l 771 99 l 771 0 l 138 0 m 252 1149 l 252 1229 l 647 1229 l 647 1149 l 252 1149 z "},"Ę":{"ha":857,"x_min":138,"x_max":812,"o":"m 138 0 l 138 1004 l 756 1004 l 756 907 l 247 907 l 247 556 l 709 556 l 709 458 l 247 458 l 247 100 l 771 99 l 771 0 l 138 0 m 688 -232 q 587 -202 620 -232 q 553 -123 553 -173 q 584 -47 553 -81 q 698 12 614 -14 l 778 2 q 677 -54 709 -28 q 645 -116 645 -81 q 661 -155 645 -142 q 713 -168 676 -168 q 773 -160 747 -168 q 812 -144 799 -151 l 812 -205 q 761 -223 795 -215 q 688 -232 727 -232 z "},"Ẽ":{"ha":857,"x_min":138,"x_max":771,"o":"m 138 0 l 138 1004 l 756 1004 l 756 907 l 247 907 l 247 556 l 709 556 l 709 458 l 247 458 l 247 100 l 771 99 l 771 0 l 138 0 m 272 1138 l 251 1206 q 298 1241 273 1226 q 361 1255 324 1255 q 423 1245 394 1255 q 480 1227 451 1236 q 538 1217 508 1217 q 589 1228 568 1217 q 631 1253 610 1238 l 652 1178 q 608 1154 635 1167 q 538 1141 581 1141 q 474 1150 501 1141 q 422 1167 447 1158 q 367 1176 397 1176 q 313 1164 333 1176 q 272 1138 292 1153 z "},"F":{"ha":817,"x_min":138,"x_max":748,"o":"m 138 0 l 138 1004 l 748 1004 l 748 908 l 251 908 l 251 554 l 701 554 l 701 458 l 251 458 l 251 0 l 138 0 z "},"G":{"ha":1008,"x_min":77,"x_max":887,"o":"m 497 -14 q 272 46 366 -14 q 127 221 178 106 q 77 500 77 335 q 128 781 77 665 q 275 957 180 897 q 501 1018 370 1018 q 638 992 573 1018 q 753 922 702 967 q 834 820 803 877 q 869 701 865 763 l 753 701 q 708 809 743 759 q 619 889 673 858 q 499 919 565 919 q 339 875 408 919 q 232 737 269 830 q 194 502 194 644 q 217 313 194 392 q 281 184 240 234 q 378 109 322 133 q 502 85 435 85 q 619 109 569 85 q 703 172 669 133 q 753 254 736 210 q 772 338 771 298 l 775 435 l 521 435 l 521 517 l 887 516 l 887 0 l 802 0 l 802 159 q 734 74 776 113 q 634 10 693 35 q 497 -14 576 -14 z "},"Ğ":{"ha":1008,"x_min":77,"x_max":887,"o":"m 497 -14 q 272 46 366 -14 q 127 221 178 106 q 77 500 77 335 q 128 781 77 665 q 275 957 180 897 q 501 1018 370 1018 q 638 992 573 1018 q 753 922 702 967 q 834 820 803 877 q 869 701 865 763 l 753 701 q 708 809 743 759 q 619 889 673 858 q 499 919 565 919 q 339 875 408 919 q 232 737 269 830 q 194 502 194 644 q 217 313 194 392 q 281 184 240 234 q 378 109 322 133 q 502 85 435 85 q 619 109 569 85 q 703 172 669 133 q 753 254 736 210 q 772 338 771 298 l 775 435 l 521 435 l 521 517 l 887 516 l 887 0 l 802 0 l 802 159 q 734 74 776 113 q 634 10 693 35 q 497 -14 576 -14 m 498 1086 q 407 1103 449 1086 q 336 1151 365 1119 q 298 1229 308 1183 l 381 1229 q 424 1176 393 1197 q 498 1155 454 1155 q 573 1176 542 1155 q 617 1229 605 1197 l 701 1229 q 662 1153 690 1185 q 592 1103 634 1121 q 498 1086 550 1086 z "},"Ĝ":{"ha":1008,"x_min":77,"x_max":887,"o":"m 497 -14 q 272 46 366 -14 q 127 221 178 106 q 77 500 77 335 q 128 781 77 665 q 275 957 180 897 q 501 1018 370 1018 q 638 992 573 1018 q 753 922 702 967 q 834 820 803 877 q 869 701 865 763 l 753 701 q 708 809 743 759 q 619 889 673 858 q 499 919 565 919 q 339 875 408 919 q 232 737 269 830 q 194 502 194 644 q 217 313 194 392 q 281 184 240 234 q 378 109 322 133 q 502 85 435 85 q 619 109 569 85 q 703 172 669 133 q 753 254 736 210 q 772 338 771 298 l 775 435 l 521 435 l 521 517 l 887 516 l 887 0 l 802 0 l 802 159 q 734 74 776 113 q 634 10 693 35 q 497 -14 576 -14 m 289 1088 l 460 1238 l 540 1238 l 708 1088 l 597 1088 l 499 1176 l 393 1088 l 289 1088 z "},"Ģ":{"ha":1008,"x_min":77,"x_max":887,"o":"m 497 -14 q 272 46 366 -14 q 127 221 178 106 q 77 500 77 335 q 128 781 77 665 q 275 957 180 897 q 501 1018 370 1018 q 638 992 573 1018 q 753 922 702 967 q 834 820 803 877 q 869 701 865 763 l 753 701 q 708 809 743 759 q 619 889 673 858 q 499 919 565 919 q 339 875 408 919 q 232 737 269 830 q 194 502 194 644 q 217 313 194 392 q 281 184 240 234 q 378 109 322 133 q 502 85 435 85 q 619 109 569 85 q 703 172 669 133 q 753 254 736 210 q 772 338 771 298 l 775 435 l 521 435 l 521 517 l 887 516 l 887 0 l 802 0 l 802 159 q 734 74 776 113 q 634 10 693 35 q 497 -14 576 -14 m 425 -253 l 480 -171 l 440 -169 l 440 -68 l 558 -68 l 558 -153 l 473 -253 l 425 -253 z "},"Ġ":{"ha":1008,"x_min":77,"x_max":887,"o":"m 497 -14 q 272 46 366 -14 q 127 221 178 106 q 77 500 77 335 q 128 781 77 665 q 275 957 180 897 q 501 1018 370 1018 q 638 992 573 1018 q 753 922 702 967 q 834 820 803 877 q 869 701 865 763 l 753 701 q 708 809 743 759 q 619 889 673 858 q 499 919 565 919 q 339 875 408 919 q 232 737 269 830 q 194 502 194 644 q 217 313 194 392 q 281 184 240 234 q 378 109 322 133 q 502 85 435 85 q 619 109 569 85 q 703 172 669 133 q 753 254 736 210 q 772 338 771 298 l 775 435 l 521 435 l 521 517 l 887 516 l 887 0 l 802 0 l 802 159 q 734 74 776 113 q 634 10 693 35 q 497 -14 576 -14 m 442 1177 l 442 1290 l 556 1290 l 556 1177 l 442 1177 z "},"H":{"ha":1063,"x_min":138,"x_max":924,"o":"m 138 0 l 138 1004 l 247 1004 l 247 569 l 816 569 l 816 1004 l 924 1004 l 924 0 l 816 0 l 816 472 l 247 472 l 247 0 l 138 0 z "},"Ħ":{"ha":1088,"x_min":17,"x_max":1070,"o":"m 17 776 l 17 851 l 1070 851 l 1070 776 l 17 776 m 155 0 l 155 1004 l 263 1004 l 263 569 l 833 569 l 833 1004 l 941 1004 l 941 0 l 833 0 l 833 472 l 263 472 l 263 0 l 155 0 z "},"Ĥ":{"ha":1063,"x_min":138,"x_max":924,"o":"m 138 0 l 138 1004 l 247 1004 l 247 569 l 816 569 l 816 1004 l 924 1004 l 924 0 l 816 0 l 816 472 l 247 472 l 247 0 l 138 0 m 319 1094 l 491 1244 l 570 1244 l 739 1094 l 628 1094 l 529 1183 l 424 1094 l 319 1094 z "},"Ḥ":{"ha":1063,"x_min":138,"x_max":924,"o":"m 138 0 l 138 1004 l 247 1004 l 247 569 l 816 569 l 816 1004 l 924 1004 l 924 0 l 816 0 l 816 472 l 247 472 l 247 0 l 138 0 m 487 -242 l 487 -128 l 600 -128 l 600 -242 l 487 -242 z "},"I":{"ha":384,"x_min":138,"x_max":247,"o":"m 138 0 l 138 1004 l 247 1004 l 247 0 l 138 0 z "},"Í":{"ha":384,"x_min":138,"x_max":414,"o":"m 138 0 l 138 1004 l 247 1004 l 247 0 l 138 0 m 142 1088 l 285 1290 l 414 1290 l 228 1088 l 142 1088 z "},"Ĭ":{"ha":384,"x_min":-9,"x_max":394,"o":"m 138 0 l 138 1004 l 247 1004 l 247 0 l 138 0 m 192 1086 q 101 1103 142 1086 q 30 1151 59 1119 q -8 1229 1 1183 l 75 1229 q 117 1176 87 1197 q 192 1155 148 1155 q 267 1176 235 1155 q 311 1229 299 1197 l 394 1229 q 356 1153 384 1185 q 286 1103 328 1121 q 192 1086 244 1086 z "},"Î":{"ha":384,"x_min":-17,"x_max":402,"o":"m 138 0 l 138 1004 l 247 1004 l 247 0 l 138 0 m -17 1088 l 154 1238 l 233 1238 l 402 1088 l 291 1088 l 192 1176 l 87 1088 l -17 1088 z "},"Ȉ":{"ha":384,"x_min":-140,"x_max":325,"o":"m 138 0 l 138 1004 l 247 1004 l 247 0 l 138 0 m 59 1088 l -140 1290 l -17 1290 l 145 1088 l 59 1088 m 239 1088 l 69 1290 l 190 1290 l 325 1088 l 239 1088 z "},"Ï":{"ha":384,"x_min":11,"x_max":375,"o":"m 138 0 l 138 1004 l 247 1004 l 247 0 l 138 0 m 267 1177 l 267 1290 l 376 1290 l 375 1177 l 267 1177 m 11 1177 l 12 1290 l 120 1290 l 119 1177 l 11 1177 z "},"İ":{"ha":384,"x_min":136,"x_max":249,"o":"m 138 0 l 138 1004 l 247 1004 l 247 0 l 138 0 m 136 1177 l 136 1290 l 249 1290 l 249 1177 l 136 1177 z "},"Ị":{"ha":384,"x_min":138,"x_max":254,"o":"m 138 0 l 138 1004 l 247 1004 l 247 0 l 138 0 m 141 -242 l 141 -128 l 254 -128 l 254 -242 l 141 -242 z "},"Ì":{"ha":384,"x_min":-31,"x_max":247,"o":"m 138 0 l 138 1004 l 247 1004 l 247 0 l 138 0 m 155 1088 l -31 1290 l 98 1290 l 241 1088 l 155 1088 z "},"Ỉ":{"ha":384,"x_min":98,"x_max":326,"o":"m 138 0 l 138 1004 l 247 1004 l 247 0 l 138 0 m 230 1086 l 194 1140 q 238 1185 225 1160 q 236 1234 251 1211 q 192 1257 222 1258 q 133 1237 162 1256 l 98 1291 q 210 1321 156 1328 q 292 1272 264 1315 q 308 1172 326 1221 q 230 1086 290 1122 z "},"Ȋ":{"ha":384,"x_min":-12,"x_max":391,"o":"m 138 0 l 138 1004 l 247 1004 l 247 0 l 138 0 m -12 1130 q 27 1208 -1 1176 q 98 1257 56 1240 q 188 1273 140 1273 q 283 1256 240 1273 q 353 1206 325 1238 q 391 1130 382 1174 l 308 1130 q 264 1184 296 1163 q 188 1205 232 1205 q 114 1184 144 1205 q 72 1130 84 1163 l -12 1130 z "},"Ī":{"ha":384,"x_min":-5,"x_max":390,"o":"m 138 0 l 138 1004 l 247 1004 l 247 0 l 138 0 m -5 1149 l -5 1229 l 390 1229 l 390 1149 l -5 1149 z "},"Į":{"ha":384,"x_min":21,"x_max":279,"o":"m 138 0 l 138 1004 l 247 1004 l 247 0 l 138 0 m 155 -234 q 54 -205 88 -234 q 21 -125 21 -175 q 51 -49 21 -83 q 165 10 81 -16 l 246 0 q 144 -56 176 -30 q 113 -118 113 -83 q 128 -157 113 -144 q 180 -170 144 -170 q 240 -162 214 -170 q 279 -146 266 -153 l 279 -207 q 228 -225 263 -217 q 155 -234 194 -234 z "},"Ĩ":{"ha":384,"x_min":-6,"x_max":395,"o":"m 138 0 l 138 1004 l 247 1004 l 247 0 l 138 0 m 16 1138 l -6 1206 q 42 1241 17 1226 q 105 1255 67 1255 q 166 1245 138 1255 q 223 1227 195 1236 q 282 1217 251 1217 q 333 1228 312 1217 q 374 1253 353 1238 l 396 1178 q 351 1154 378 1167 q 281 1141 324 1141 q 218 1150 244 1141 q 166 1167 191 1158 q 110 1176 141 1176 q 56 1164 76 1176 q 16 1138 36 1153 z "},"J":{"ha":535,"x_min":63,"x_max":424,"o":"m 223 -14 q 122 0 168 -14 q 63 20 76 14 l 73 126 q 124 105 95 117 q 197 92 152 92 q 290 130 265 92 q 316 258 316 167 l 316 1004 l 424 1004 l 424 226 q 407 96 424 150 q 346 14 390 42 q 223 -14 302 -14 z "},"Ĵ":{"ha":535,"x_min":63,"x_max":577,"o":"m 223 -14 q 122 0 168 -14 q 63 20 76 14 l 73 126 q 124 105 95 117 q 197 92 152 92 q 290 130 265 92 q 316 258 316 167 l 316 1004 l 424 1004 l 424 226 q 407 96 424 150 q 346 14 390 42 q 223 -14 302 -14 m 158 1088 l 329 1238 l 408 1238 l 577 1088 l 466 1088 l 367 1176 l 262 1088 l 158 1088 z "},"K":{"ha":935,"x_min":138,"x_max":882,"o":"m 138 0 l 138 1004 l 251 1004 l 251 469 l 724 1004 l 856 1004 l 511 608 l 882 0 l 758 0 l 432 529 l 251 324 l 251 0 l 138 0 z "},"Ķ":{"ha":935,"x_min":138,"x_max":882,"o":"m 138 0 l 138 1004 l 251 1004 l 251 469 l 724 1004 l 856 1004 l 511 608 l 882 0 l 758 0 l 432 529 l 251 324 l 251 0 l 138 0 m 399 -253 l 454 -171 l 414 -169 l 414 -68 l 533 -68 l 533 -153 l 447 -253 l 399 -253 z "},"L":{"ha":802,"x_min":138,"x_max":735,"o":"m 138 0 l 139 1004 l 251 1004 l 251 101 l 735 101 l 735 0 l 138 0 z "},"Ĺ":{"ha":802,"x_min":138,"x_max":735,"o":"m 138 0 l 139 1004 l 251 1004 l 251 101 l 735 101 l 735 0 l 138 0 m 143 1088 l 286 1290 l 415 1290 l 229 1088 l 143 1088 z "},"Ľ":{"ha":802,"x_min":138,"x_max":735,"o":"m 138 0 l 139 1004 l 251 1004 l 251 101 l 735 101 l 735 0 l 138 0 m 524 744 l 576 868 l 542 875 l 542 1004 l 639 1004 l 639 869 l 585 744 l 524 744 z "},"Ļ":{"ha":802,"x_min":138,"x_max":735,"o":"m 138 0 l 139 1004 l 251 1004 l 251 101 l 735 101 l 735 0 l 138 0 m 358 -253 l 413 -171 l 372 -169 l 372 -68 l 491 -68 l 491 -153 l 406 -253 l 358 -253 z "},"Ŀ":{"ha":802,"x_min":138,"x_max":735,"o":"m 138 0 l 139 1004 l 251 1004 l 251 101 l 735 101 l 735 0 l 138 0 m 525 475 l 525 615 l 671 615 l 671 475 l 525 475 z "},"Ł":{"ha":803,"x_min":16,"x_max":737,"o":"m 16 424 l 16 519 l 467 635 l 467 545 l 16 424 m 140 0 l 141 1004 l 252 1004 l 252 101 l 737 101 l 737 0 l 140 0 z "},"M":{"ha":1217,"x_min":138,"x_max":1079,"o":"m 138 0 l 138 1004 l 284 1004 l 607 144 l 935 1004 l 1079 1004 l 1079 0 l 967 0 l 967 824 l 662 0 l 553 0 l 251 815 l 251 0 l 138 0 z "},"N":{"ha":1037,"x_min":138,"x_max":899,"o":"m 138 0 l 138 1004 l 240 1004 l 790 192 l 790 1004 l 899 1004 l 899 0 l 802 0 l 247 819 l 247 0 l 138 0 z "},"Ń":{"ha":1037,"x_min":138,"x_max":899,"o":"m 138 0 l 138 1004 l 240 1004 l 790 192 l 790 1004 l 899 1004 l 899 0 l 802 0 l 247 819 l 247 0 l 138 0 m 467 1088 l 610 1290 l 740 1290 l 553 1088 l 467 1088 z "},"Ň":{"ha":1037,"x_min":138,"x_max":899,"o":"m 138 0 l 138 1004 l 240 1004 l 790 192 l 790 1004 l 899 1004 l 899 0 l 802 0 l 247 819 l 247 0 l 138 0 m 480 1088 l 307 1238 l 413 1238 l 518 1147 l 617 1238 l 728 1238 l 559 1088 l 480 1088 z "},"Ņ":{"ha":1037,"x_min":138,"x_max":899,"o":"m 138 0 l 138 1004 l 240 1004 l 790 192 l 790 1004 l 899 1004 l 899 0 l 802 0 l 247 819 l 247 0 l 138 0 m 422 -253 l 476 -171 l 436 -169 l 436 -68 l 555 -68 l 555 -153 l 469 -253 l 422 -253 z "},"Ṅ":{"ha":1037,"x_min":138,"x_max":899,"o":"m 138 0 l 138 1004 l 240 1004 l 790 192 l 790 1004 l 899 1004 l 899 0 l 802 0 l 247 819 l 247 0 l 138 0 m 462 1177 l 462 1290 l 575 1290 l 575 1177 l 462 1177 z "},"Ŋ":{"ha":1037,"x_min":138,"x_max":899,"o":"m 697 -333 q 597 -319 642 -333 q 537 -299 551 -306 l 547 -194 q 598 -215 569 -202 q 672 -228 627 -228 q 764 -193 736 -228 q 791 -74 791 -158 l 791 17 l 247 819 l 247 0 l 138 0 l 138 1004 l 240 1004 l 790 192 l 790 1004 l 899 1004 l 899 -94 q 880 -226 899 -172 q 818 -306 862 -279 q 697 -333 774 -333 z "},"Ñ":{"ha":1037,"x_min":138,"x_max":899,"o":"m 138 0 l 138 1004 l 240 1004 l 790 192 l 790 1004 l 899 1004 l 899 0 l 802 0 l 247 819 l 247 0 l 138 0 m 341 1138 l 319 1206 q 367 1241 342 1226 q 430 1255 392 1255 q 491 1245 463 1255 q 548 1227 520 1236 q 607 1217 576 1217 q 658 1228 637 1217 q 699 1253 678 1238 l 721 1178 q 676 1154 703 1167 q 606 1141 649 1141 q 543 1150 569 1141 q 491 1167 516 1158 q 435 1176 466 1176 q 381 1164 401 1176 q 341 1138 361 1153 z "},"O":{"ha":1009,"x_min":77,"x_max":932,"o":"m 506 -14 q 278 46 374 -14 q 130 221 182 106 q 77 500 77 335 q 130 782 77 666 q 278 958 182 897 q 506 1018 375 1018 q 733 958 638 1018 q 880 782 828 897 q 932 500 932 667 q 881 221 932 335 q 734 46 829 106 q 506 -14 638 -14 m 506 83 q 673 128 605 83 q 777 265 742 172 q 813 499 813 357 q 776 737 813 644 q 672 876 740 831 q 506 922 603 922 q 340 876 409 922 q 234 736 271 830 q 197 499 197 642 q 234 264 197 356 q 340 128 271 172 q 506 83 409 83 z "},"Ó":{"ha":1009,"x_min":77,"x_max":932,"o":"m 506 -14 q 278 46 374 -14 q 130 221 182 106 q 77 500 77 335 q 130 782 77 666 q 278 958 182 897 q 506 1018 375 1018 q 733 958 638 1018 q 880 782 828 897 q 932 500 932 667 q 881 221 932 335 q 734 46 829 106 q 506 -14 638 -14 m 506 83 q 673 128 605 83 q 777 265 742 172 q 813 499 813 357 q 776 737 813 644 q 672 876 740 831 q 506 922 603 922 q 340 876 409 922 q 234 736 271 830 q 197 499 197 642 q 234 264 197 356 q 340 128 271 172 q 506 83 409 83 m 456 1088 l 599 1290 l 728 1290 l 542 1088 l 456 1088 z "},"Ŏ":{"ha":1009,"x_min":77,"x_max":932,"o":"m 506 -14 q 278 46 374 -14 q 130 221 182 106 q 77 500 77 335 q 130 782 77 666 q 278 958 182 897 q 506 1018 375 1018 q 733 958 638 1018 q 880 782 828 897 q 932 500 932 667 q 881 221 932 335 q 734 46 829 106 q 506 -14 638 -14 m 506 83 q 673 128 605 83 q 777 265 742 172 q 813 499 813 357 q 776 737 813 644 q 672 876 740 831 q 506 922 603 922 q 340 876 409 922 q 234 736 271 830 q 197 499 197 642 q 234 264 197 356 q 340 128 271 172 q 506 83 409 83 m 506 1086 q 415 1103 456 1086 q 344 1151 373 1119 q 306 1229 315 1183 l 389 1229 q 431 1176 401 1197 q 506 1155 462 1155 q 581 1176 549 1155 q 625 1229 613 1197 l 708 1229 q 670 1153 698 1185 q 600 1103 642 1121 q 506 1086 558 1086 z "},"Ô":{"ha":1009,"x_min":77,"x_max":932,"o":"m 506 -14 q 278 46 374 -14 q 130 221 182 106 q 77 500 77 335 q 130 782 77 666 q 278 958 182 897 q 506 1018 375 1018 q 733 958 638 1018 q 880 782 828 897 q 932 500 932 667 q 881 221 932 335 q 734 46 829 106 q 506 -14 638 -14 m 506 83 q 673 128 605 83 q 777 265 742 172 q 813 499 813 357 q 776 737 813 644 q 672 876 740 831 q 506 922 603 922 q 340 876 409 922 q 234 736 271 830 q 197 499 197 642 q 234 264 197 356 q 340 128 271 172 q 506 83 409 83 m 297 1088 l 469 1238 l 548 1238 l 717 1088 l 606 1088 l 507 1176 l 401 1088 l 297 1088 z "},"Ố":{"ha":1009,"x_min":77,"x_max":932,"o":"m 506 -14 q 278 46 374 -14 q 130 221 182 106 q 77 500 77 335 q 130 782 77 666 q 278 958 182 897 q 506 1018 375 1018 q 733 958 638 1018 q 880 782 828 897 q 932 500 932 667 q 881 221 932 335 q 734 46 829 106 q 506 -14 638 -14 m 506 83 q 673 128 605 83 q 777 265 742 172 q 813 499 813 357 q 776 737 813 644 q 672 876 740 831 q 506 922 603 922 q 340 876 409 922 q 234 736 271 830 q 197 499 197 642 q 234 264 197 356 q 340 128 271 172 q 506 83 409 83 m 297 1088 l 469 1238 l 548 1238 l 717 1088 l 606 1088 l 507 1176 l 401 1088 l 297 1088 m 626 1238 l 726 1402 l 837 1402 l 702 1238 l 626 1238 z "},"Ộ":{"ha":1009,"x_min":77,"x_max":932,"o":"m 506 -14 q 278 46 374 -14 q 130 221 182 106 q 77 500 77 335 q 130 782 77 666 q 278 958 182 897 q 506 1018 375 1018 q 733 958 638 1018 q 880 782 828 897 q 932 500 932 667 q 881 221 932 335 q 734 46 829 106 q 506 -14 638 -14 m 506 83 q 673 128 605 83 q 777 265 742 172 q 813 499 813 357 q 776 737 813 644 q 672 876 740 831 q 506 922 603 922 q 340 876 409 922 q 234 736 271 830 q 197 499 197 642 q 234 264 197 356 q 340 128 271 172 q 506 83 409 83 m 451 -242 l 451 -128 l 565 -128 l 565 -242 l 451 -242 m 297 1088 l 469 1238 l 548 1238 l 717 1088 l 606 1088 l 507 1176 l 401 1088 l 297 1088 z "},"Ồ":{"ha":1009,"x_min":77,"x_max":932,"o":"m 506 -14 q 278 46 374 -14 q 130 221 182 106 q 77 500 77 335 q 130 782 77 666 q 278 958 182 897 q 506 1018 375 1018 q 733 958 638 1018 q 880 782 828 897 q 932 500 932 667 q 881 221 932 335 q 734 46 829 106 q 506 -14 638 -14 m 506 83 q 673 128 605 83 q 777 265 742 172 q 813 499 813 357 q 776 737 813 644 q 672 876 740 831 q 506 922 603 922 q 340 876 409 922 q 234 736 271 830 q 197 499 197 642 q 234 264 197 356 q 340 128 271 172 q 506 83 409 83 m 297 1088 l 469 1238 l 548 1238 l 717 1088 l 606 1088 l 507 1176 l 401 1088 l 297 1088 m 697 1238 l 553 1403 l 663 1403 l 774 1238 l 697 1238 z "},"Ổ":{"ha":1009,"x_min":77,"x_max":932,"o":"m 506 -14 q 278 46 374 -14 q 130 221 182 106 q 77 500 77 335 q 130 782 77 666 q 278 958 182 897 q 506 1018 375 1018 q 733 958 638 1018 q 880 782 828 897 q 932 500 932 667 q 881 221 932 335 q 734 46 829 106 q 506 -14 638 -14 m 506 83 q 673 128 605 83 q 777 265 742 172 q 813 499 813 357 q 776 737 813 644 q 672 876 740 831 q 506 922 603 922 q 340 876 409 922 q 234 736 271 830 q 197 499 197 642 q 234 264 197 356 q 340 128 271 172 q 506 83 409 83 m 300 1088 l 472 1238 l 551 1238 l 719 1088 l 608 1088 l 510 1176 l 404 1088 l 300 1088 m 660 1205 l 625 1259 q 668 1305 656 1278 q 667 1353 681 1331 q 622 1376 652 1377 q 563 1356 592 1375 l 528 1410 q 640 1440 586 1447 q 722 1391 694 1433 q 738 1291 756 1340 q 660 1205 719 1242 z "},"Ỗ":{"ha":1009,"x_min":77,"x_max":932,"o":"m 506 -14 q 278 46 374 -14 q 130 221 182 106 q 77 500 77 335 q 130 782 77 666 q 278 958 182 897 q 506 1018 375 1018 q 733 958 638 1018 q 880 782 828 897 q 932 500 932 667 q 881 221 932 335 q 734 46 829 106 q 506 -14 638 -14 m 506 83 q 673 128 605 83 q 777 265 742 172 q 813 499 813 357 q 776 737 813 644 q 672 876 740 831 q 506 922 603 922 q 340 876 409 922 q 234 736 271 830 q 197 499 197 642 q 234 264 197 356 q 340 128 271 172 q 506 83 409 83 m 298 1088 l 469 1238 l 549 1238 l 717 1088 l 606 1088 l 508 1176 l 402 1088 l 298 1088 m 330 1316 l 308 1384 q 355 1418 330 1404 q 418 1433 381 1433 q 480 1423 451 1433 q 537 1405 509 1414 q 595 1395 565 1395 q 646 1406 625 1395 q 688 1431 667 1416 l 709 1356 q 665 1332 692 1344 q 594 1319 638 1319 q 531 1327 558 1319 q 480 1345 504 1336 q 424 1353 455 1353 q 370 1342 390 1353 q 330 1316 350 1331 z "},"Ȍ":{"ha":1009,"x_min":77,"x_max":932,"o":"m 506 -14 q 278 46 374 -14 q 130 221 182 106 q 77 500 77 335 q 130 782 77 666 q 278 958 182 897 q 506 1018 375 1018 q 733 958 638 1018 q 880 782 828 897 q 932 500 932 667 q 881 221 932 335 q 734 46 829 106 q 506 -14 638 -14 m 506 83 q 673 128 605 83 q 777 265 742 172 q 813 499 813 357 q 776 737 813 644 q 672 876 740 831 q 506 922 603 922 q 340 876 409 922 q 234 736 271 830 q 197 499 197 642 q 234 264 197 356 q 340 128 271 172 q 506 83 409 83 m 374 1088 l 175 1290 l 298 1290 l 460 1088 l 374 1088 m 553 1088 l 384 1290 l 504 1290 l 640 1088 l 553 1088 z "},"Ö":{"ha":1009,"x_min":77,"x_max":932,"o":"m 506 -14 q 278 46 374 -14 q 130 221 182 106 q 77 500 77 335 q 130 782 77 666 q 278 958 182 897 q 506 1018 375 1018 q 733 958 638 1018 q 880 782 828 897 q 932 500 932 667 q 881 221 932 335 q 734 46 829 106 q 506 -14 638 -14 m 506 83 q 673 128 605 83 q 777 265 742 172 q 813 499 813 357 q 776 737 813 644 q 672 876 740 831 q 506 922 603 922 q 340 876 409 922 q 234 736 271 830 q 197 499 197 642 q 234 264 197 356 q 340 128 271 172 q 506 83 409 83 m 581 1177 l 581 1290 l 690 1290 l 689 1177 l 581 1177 m 325 1177 l 326 1290 l 434 1290 l 433 1177 l 325 1177 z "},"Ọ":{"ha":1009,"x_min":77,"x_max":932,"o":"m 506 -14 q 278 46 374 -14 q 130 221 182 106 q 77 500 77 335 q 130 782 77 666 q 278 958 182 897 q 506 1018 375 1018 q 733 958 638 1018 q 880 782 828 897 q 932 500 932 667 q 881 221 932 335 q 734 46 829 106 q 506 -14 638 -14 m 506 83 q 673 128 605 83 q 777 265 742 172 q 813 499 813 357 q 776 737 813 644 q 672 876 740 831 q 506 922 603 922 q 340 876 409 922 q 234 736 271 830 q 197 499 197 642 q 234 264 197 356 q 340 128 271 172 q 506 83 409 83 m 451 -242 l 451 -128 l 565 -128 l 565 -242 l 451 -242 z "},"Ò":{"ha":1009,"x_min":77,"x_max":932,"o":"m 506 -14 q 278 46 374 -14 q 130 221 182 106 q 77 500 77 335 q 130 782 77 666 q 278 958 182 897 q 506 1018 375 1018 q 733 958 638 1018 q 880 782 828 897 q 932 500 932 667 q 881 221 932 335 q 734 46 829 106 q 506 -14 638 -14 m 506 83 q 673 128 605 83 q 777 265 742 172 q 813 499 813 357 q 776 737 813 644 q 672 876 740 831 q 506 922 603 922 q 340 876 409 922 q 234 736 271 830 q 197 499 197 642 q 234 264 197 356 q 340 128 271 172 q 506 83 409 83 m 469 1088 l 283 1290 l 412 1290 l 555 1088 l 469 1088 z "},"Ỏ":{"ha":1009,"x_min":77,"x_max":932,"o":"m 506 -14 q 278 46 374 -14 q 130 221 182 106 q 77 500 77 335 q 130 782 77 666 q 278 958 182 897 q 506 1018 375 1018 q 733 958 638 1018 q 880 782 828 897 q 932 500 932 667 q 881 221 932 335 q 734 46 829 106 q 506 -14 638 -14 m 506 83 q 673 128 605 83 q 777 265 742 172 q 813 499 813 357 q 776 737 813 644 q 672 876 740 831 q 506 922 603 922 q 340 876 409 922 q 234 736 271 830 q 197 499 197 642 q 234 264 197 356 q 340 128 271 172 q 506 83 409 83 m 544 1086 l 509 1140 q 552 1185 540 1160 q 551 1234 565 1211 q 507 1257 537 1258 q 448 1237 476 1256 l 413 1291 q 524 1321 470 1328 q 606 1272 578 1315 q 622 1172 640 1221 q 544 1086 604 1122 z "},"Ơ":{"ha":1072,"x_min":77,"x_max":1010,"o":"m 506 -14 q 278 46 374 -14 q 130 221 182 106 q 77 500 77 335 q 130 782 77 666 q 278 958 182 897 q 506 1018 375 1018 q 681 985 603 1018 q 814 888 759 952 q 859 895 840 889 q 890 916 878 901 q 908 957 901 931 q 916 1025 915 983 l 1010 1025 q 994 915 1010 959 q 947 847 979 870 q 861 819 914 823 q 914 678 896 758 q 932 500 932 599 q 881 221 932 335 q 734 46 829 106 q 506 -14 638 -14 m 506 83 q 673 128 605 83 q 777 265 742 172 q 813 499 813 357 q 776 737 813 644 q 672 876 740 831 q 506 922 603 922 q 340 876 409 922 q 234 736 271 830 q 197 499 197 642 q 234 264 197 356 q 340 128 271 172 q 506 83 409 83 z "},"Ớ":{"ha":1072,"x_min":77,"x_max":1010,"o":"m 506 -14 q 278 46 374 -14 q 130 221 182 106 q 77 500 77 335 q 130 782 77 666 q 278 958 182 897 q 506 1018 375 1018 q 681 985 603 1018 q 814 888 759 952 q 859 895 840 889 q 890 916 878 901 q 908 957 901 931 q 916 1025 915 983 l 1010 1025 q 994 915 1010 959 q 947 847 979 870 q 861 819 914 823 q 914 678 896 758 q 932 500 932 599 q 881 221 932 335 q 734 46 829 106 q 506 -14 638 -14 m 506 83 q 673 128 605 83 q 777 265 742 172 q 813 499 813 357 q 776 737 813 644 q 672 876 740 831 q 506 922 603 922 q 340 876 409 922 q 234 736 271 830 q 197 499 197 642 q 234 264 197 356 q 340 128 271 172 q 506 83 409 83 m 456 1088 l 599 1290 l 728 1290 l 542 1088 l 456 1088 z "},"Ợ":{"ha":1072,"x_min":77,"x_max":1010,"o":"m 506 -14 q 278 46 374 -14 q 130 221 182 106 q 77 500 77 335 q 130 782 77 666 q 278 958 182 897 q 506 1018 375 1018 q 681 985 603 1018 q 814 888 759 952 q 859 895 840 889 q 890 916 878 901 q 908 957 901 931 q 916 1025 915 983 l 1010 1025 q 994 915 1010 959 q 947 847 979 870 q 861 819 914 823 q 914 678 896 758 q 932 500 932 599 q 881 221 932 335 q 734 46 829 106 q 506 -14 638 -14 m 506 83 q 673 128 605 83 q 777 265 742 172 q 813 499 813 357 q 776 737 813 644 q 672 876 740 831 q 506 922 603 922 q 340 876 409 922 q 234 736 271 830 q 197 499 197 642 q 234 264 197 356 q 340 128 271 172 q 506 83 409 83 m 451 -242 l 451 -128 l 565 -128 l 565 -242 l 451 -242 z "},"Ờ":{"ha":1072,"x_min":77,"x_max":1010,"o":"m 506 -14 q 278 46 374 -14 q 130 221 182 106 q 77 500 77 335 q 130 782 77 666 q 278 958 182 897 q 506 1018 375 1018 q 681 985 603 1018 q 814 888 759 952 q 859 895 840 889 q 890 916 878 901 q 908 957 901 931 q 916 1025 915 983 l 1010 1025 q 994 915 1010 959 q 947 847 979 870 q 861 819 914 823 q 914 678 896 758 q 932 500 932 599 q 881 221 932 335 q 734 46 829 106 q 506 -14 638 -14 m 506 83 q 673 128 605 83 q 777 265 742 172 q 813 499 813 357 q 776 737 813 644 q 672 876 740 831 q 506 922 603 922 q 340 876 409 922 q 234 736 271 830 q 197 499 197 642 q 234 264 197 356 q 340 128 271 172 q 506 83 409 83 m 469 1088 l 283 1290 l 412 1290 l 555 1088 l 469 1088 z "},"Ở":{"ha":1072,"x_min":77,"x_max":1010,"o":"m 506 -14 q 278 46 374 -14 q 130 221 182 106 q 77 500 77 335 q 130 782 77 666 q 278 958 182 897 q 506 1018 375 1018 q 681 985 603 1018 q 814 888 759 952 q 859 895 840 889 q 890 916 878 901 q 908 957 901 931 q 916 1025 915 983 l 1010 1025 q 994 915 1010 959 q 947 847 979 870 q 861 819 914 823 q 914 678 896 758 q 932 500 932 599 q 881 221 932 335 q 734 46 829 106 q 506 -14 638 -14 m 506 83 q 673 128 605 83 q 777 265 742 172 q 813 499 813 357 q 776 737 813 644 q 672 876 740 831 q 506 922 603 922 q 340 876 409 922 q 234 736 271 830 q 197 499 197 642 q 234 264 197 356 q 340 128 271 172 q 506 83 409 83 m 544 1086 l 509 1140 q 552 1185 540 1160 q 551 1234 565 1211 q 507 1257 537 1258 q 448 1237 476 1256 l 413 1291 q 524 1321 470 1328 q 606 1272 578 1315 q 622 1172 640 1221 q 544 1086 604 1122 z "},"Ỡ":{"ha":1072,"x_min":77,"x_max":1010,"o":"m 506 -14 q 278 46 374 -14 q 130 221 182 106 q 77 500 77 335 q 130 782 77 666 q 278 958 182 897 q 506 1018 375 1018 q 681 985 603 1018 q 814 888 759 952 q 859 895 840 889 q 890 916 878 901 q 908 957 901 931 q 916 1025 915 983 l 1010 1025 q 994 915 1010 959 q 947 847 979 870 q 861 819 914 823 q 914 678 896 758 q 932 500 932 599 q 881 221 932 335 q 734 46 829 106 q 506 -14 638 -14 m 506 83 q 673 128 605 83 q 777 265 742 172 q 813 499 813 357 q 776 737 813 644 q 672 876 740 831 q 506 922 603 922 q 340 876 409 922 q 234 736 271 830 q 197 499 197 642 q 234 264 197 356 q 340 128 271 172 q 506 83 409 83 m 330 1138 l 308 1206 q 356 1241 331 1226 q 419 1255 381 1255 q 480 1245 451 1255 q 537 1227 509 1236 q 596 1217 565 1217 q 647 1228 626 1217 q 688 1253 667 1238 l 710 1178 q 665 1154 692 1167 q 595 1141 638 1141 q 532 1150 558 1141 q 480 1167 505 1158 q 424 1176 455 1176 q 370 1164 390 1176 q 330 1138 350 1153 z "},"Ő":{"ha":1009,"x_min":77,"x_max":932,"o":"m 506 -14 q 278 46 374 -14 q 130 221 182 106 q 77 500 77 335 q 130 782 77 666 q 278 958 182 897 q 506 1018 375 1018 q 733 958 638 1018 q 880 782 828 897 q 932 500 932 667 q 881 221 932 335 q 734 46 829 106 q 506 -14 638 -14 m 506 83 q 673 128 605 83 q 777 265 742 172 q 813 499 813 357 q 776 737 813 644 q 672 876 740 831 q 506 922 603 922 q 340 876 409 922 q 234 736 271 830 q 197 499 197 642 q 234 264 197 356 q 340 128 271 172 q 506 83 409 83 m 558 1088 l 720 1290 l 843 1290 l 644 1088 l 558 1088 m 378 1088 l 514 1290 l 634 1290 l 465 1088 l 378 1088 z "},"Ȏ":{"ha":1009,"x_min":77,"x_max":932,"o":"m 506 -14 q 278 46 374 -14 q 130 221 182 106 q 77 500 77 335 q 130 782 77 666 q 278 958 182 897 q 506 1018 375 1018 q 733 958 638 1018 q 880 782 828 897 q 932 500 932 667 q 881 221 932 335 q 734 46 829 106 q 506 -14 638 -14 m 506 83 q 673 128 605 83 q 777 265 742 172 q 813 499 813 357 q 776 737 813 644 q 672 876 740 831 q 506 922 603 922 q 340 876 409 922 q 234 736 271 830 q 197 499 197 642 q 234 264 197 356 q 340 128 271 172 q 506 83 409 83 m 302 1130 q 341 1208 313 1176 q 411 1257 369 1240 q 502 1273 453 1273 q 597 1256 554 1273 q 667 1206 639 1238 q 705 1130 696 1174 l 622 1130 q 578 1184 610 1163 q 502 1205 546 1205 q 428 1184 458 1205 q 386 1130 398 1163 l 302 1130 z "},"Ō":{"ha":1009,"x_min":77,"x_max":932,"o":"m 506 -14 q 278 46 374 -14 q 130 221 182 106 q 77 500 77 335 q 130 782 77 666 q 278 958 182 897 q 506 1018 375 1018 q 733 958 638 1018 q 880 782 828 897 q 932 500 932 667 q 881 221 932 335 q 734 46 829 106 q 506 -14 638 -14 m 506 83 q 673 128 605 83 q 777 265 742 172 q 813 499 813 357 q 776 737 813 644 q 672 876 740 831 q 506 922 603 922 q 340 876 409 922 q 234 736 271 830 q 197 499 197 642 q 234 264 197 356 q 340 128 271 172 q 506 83 409 83 m 310 1149 l 310 1229 l 704 1229 l 704 1149 l 310 1149 z "},"Ǫ":{"ha":1009,"x_min":77,"x_max":932,"o":"m 532 -233 q 431 -203 465 -233 q 398 -124 398 -174 q 428 -49 398 -82 q 542 10 458 -15 l 623 1 q 522 -55 553 -28 q 490 -117 490 -81 q 505 -156 490 -142 q 557 -169 521 -169 q 617 -161 591 -169 q 656 -145 643 -152 l 656 -206 q 606 -224 640 -215 q 532 -233 572 -233 m 506 -14 q 278 46 374 -14 q 130 221 182 106 q 77 500 77 335 q 130 782 77 666 q 278 958 182 897 q 506 1018 375 1018 q 733 958 638 1018 q 880 782 828 897 q 932 500 932 667 q 881 221 932 335 q 734 46 829 106 q 506 -14 638 -14 m 506 83 q 673 128 605 83 q 777 265 742 172 q 813 499 813 357 q 776 737 813 644 q 672 876 740 831 q 506 922 603 922 q 340 876 409 922 q 234 736 271 830 q 197 499 197 642 q 234 264 197 356 q 340 128 271 172 q 506 83 409 83 z "},"Ø":{"ha":1033,"x_min":42,"x_max":990,"o":"m 106 -18 l 42 43 l 161 176 q 106 318 125 238 q 88 498 88 399 q 140 781 88 665 q 288 957 192 897 q 515 1018 383 1018 q 684 988 609 1018 q 814 898 759 957 l 926 1022 l 990 961 l 867 825 q 923 681 904 763 q 942 500 942 599 q 890 221 942 335 q 743 46 839 106 q 515 -14 647 -14 q 345 16 421 -14 q 217 103 270 46 l 106 -18 m 517 83 q 730 176 658 83 q 806 463 801 269 q 799 605 808 539 q 772 727 790 670 l 293 185 q 517 83 367 83 m 256 275 l 736 817 q 644 897 699 871 q 515 922 589 922 q 299 825 374 922 q 222 531 225 728 q 229 392 220 456 q 256 275 238 328 z "},"Ǿ":{"ha":1033,"x_min":42,"x_max":990,"o":"m 106 -18 l 42 43 l 161 176 q 106 318 125 238 q 88 498 88 399 q 140 781 88 665 q 288 957 192 897 q 515 1018 383 1018 q 684 988 609 1018 q 814 898 759 957 l 926 1022 l 990 961 l 867 825 q 923 681 904 763 q 942 500 942 599 q 890 221 942 335 q 743 46 839 106 q 515 -14 647 -14 q 345 16 421 -14 q 217 103 270 46 l 106 -18 m 517 83 q 730 176 658 83 q 806 463 801 269 q 799 605 808 539 q 772 727 790 670 l 293 185 q 517 83 367 83 m 256 275 l 736 817 q 644 897 699 871 q 515 922 589 922 q 299 825 374 922 q 222 531 225 728 q 229 392 220 456 q 256 275 238 328 m 464 1088 l 607 1290 l 736 1290 l 550 1088 l 464 1088 z "},"Õ":{"ha":1009,"x_min":77,"x_max":932,"o":"m 506 -14 q 278 46 374 -14 q 130 221 182 106 q 77 500 77 335 q 130 782 77 666 q 278 958 182 897 q 506 1018 375 1018 q 733 958 638 1018 q 880 782 828 897 q 932 500 932 667 q 881 221 932 335 q 734 46 829 106 q 506 -14 638 -14 m 506 83 q 673 128 605 83 q 777 265 742 172 q 813 499 813 357 q 776 737 813 644 q 672 876 740 831 q 506 922 603 922 q 340 876 409 922 q 234 736 271 830 q 197 499 197 642 q 234 264 197 356 q 340 128 271 172 q 506 83 409 83 m 330 1138 l 308 1206 q 356 1241 331 1226 q 419 1255 381 1255 q 480 1245 451 1255 q 537 1227 509 1236 q 596 1217 565 1217 q 647 1228 626 1217 q 688 1253 667 1238 l 710 1178 q 665 1154 692 1167 q 595 1141 638 1141 q 532 1150 558 1141 q 480 1167 505 1158 q 424 1176 455 1176 q 370 1164 390 1176 q 330 1138 350 1153 z "},"Œ":{"ha":1549,"x_min":77,"x_max":1463,"o":"m 939 458 l 939 100 l 1463 99 l 1463 0 l 831 0 l 831 174 q 700 34 783 82 q 506 -14 617 -14 q 278 46 374 -14 q 130 221 182 106 q 77 500 77 335 q 130 782 77 666 q 278 958 182 897 q 506 1018 375 1018 q 700 970 617 1018 q 831 829 783 922 l 831 1004 l 1449 1004 l 1448 907 l 940 907 l 940 556 l 1402 556 l 1402 458 l 939 458 m 506 83 q 673 128 605 83 q 777 265 742 172 q 813 499 813 357 q 776 737 813 644 q 672 876 740 831 q 506 922 603 922 q 340 876 409 922 q 234 736 271 830 q 197 499 197 642 q 234 264 197 356 q 340 128 271 172 q 506 83 409 83 z "},"P":{"ha":878,"x_min":138,"x_max":839,"o":"m 138 0 l 138 1004 l 469 1004 q 660 968 576 1004 q 791 863 744 933 q 839 690 839 793 q 794 519 839 590 q 669 412 749 449 q 485 375 590 375 l 251 375 l 251 0 l 138 0 m 250 470 l 483 470 q 662 531 593 470 q 731 697 731 591 q 660 857 731 803 q 475 910 590 910 l 250 910 l 250 470 z "},"Þ":{"ha":892,"x_min":138,"x_max":853,"o":"m 138 0 l 138 1004 l 251 1004 l 251 794 l 484 794 q 676 766 592 794 q 806 676 759 737 q 853 522 853 616 q 807 357 853 421 q 677 263 760 293 q 490 233 595 233 l 251 233 l 251 0 l 138 0 m 251 329 l 487 329 q 619 348 562 329 q 708 409 676 367 q 740 522 740 451 q 708 626 740 588 q 617 681 675 665 q 480 698 558 698 l 251 698 l 251 329 z "},"Q":{"ha":1028,"x_min":77,"x_max":932,"o":"m 923 -167 q 825 -155 878 -167 q 719 -107 771 -142 q 625 -1 667 -71 q 563 -10 591 -7 q 506 -14 534 -14 q 279 45 375 -14 q 130 218 183 103 q 77 500 77 333 q 130 782 77 667 q 278 958 182 898 q 506 1018 374 1018 q 733 958 638 1018 q 881 782 829 898 q 932 500 932 667 q 884 226 932 340 q 728 47 837 113 q 808 -42 756 -14 q 923 -73 860 -70 l 923 -167 m 506 83 q 733 184 653 83 q 814 499 814 285 q 734 816 814 711 q 506 922 655 922 q 277 816 356 922 q 197 497 197 710 q 278 184 197 284 q 506 83 358 83 z "},"R":{"ha":932,"x_min":138,"x_max":840,"o":"m 138 0 l 138 1004 l 517 1004 q 695 973 623 1004 q 803 881 767 941 q 840 737 840 822 q 809 600 840 655 q 733 514 779 546 q 639 465 688 481 l 840 0 l 724 0 l 535 445 l 247 445 l 247 0 l 138 0 m 247 538 l 474 538 q 662 585 597 538 q 728 729 728 632 q 670 868 728 823 q 509 913 613 913 l 247 913 l 247 538 z "},"Ŕ":{"ha":932,"x_min":138,"x_max":840,"o":"m 138 0 l 138 1004 l 517 1004 q 695 973 623 1004 q 803 881 767 941 q 840 737 840 822 q 809 600 840 655 q 733 514 779 546 q 639 465 688 481 l 840 0 l 724 0 l 535 445 l 247 445 l 247 0 l 138 0 m 247 538 l 474 538 q 662 585 597 538 q 728 729 728 632 q 670 868 728 823 q 509 913 613 913 l 247 913 l 247 538 m 403 1088 l 546 1290 l 675 1290 l 489 1088 l 403 1088 z "},"Ř":{"ha":932,"x_min":138,"x_max":840,"o":"m 138 0 l 138 1004 l 517 1004 q 695 973 623 1004 q 803 881 767 941 q 840 737 840 822 q 809 600 840 655 q 733 514 779 546 q 639 465 688 481 l 840 0 l 724 0 l 535 445 l 247 445 l 247 0 l 138 0 m 247 538 l 474 538 q 662 585 597 538 q 728 729 728 632 q 670 868 728 823 q 509 913 613 913 l 247 913 l 247 538 m 415 1088 l 242 1238 l 348 1238 l 453 1147 l 552 1238 l 663 1238 l 494 1088 l 415 1088 z "},"Ŗ":{"ha":932,"x_min":138,"x_max":840,"o":"m 138 0 l 138 1004 l 517 1004 q 695 973 623 1004 q 803 881 767 941 q 840 737 840 822 q 809 600 840 655 q 733 514 779 546 q 639 465 688 481 l 840 0 l 724 0 l 535 445 l 247 445 l 247 0 l 138 0 m 247 538 l 474 538 q 662 585 597 538 q 728 729 728 632 q 670 868 728 823 q 509 913 613 913 l 247 913 l 247 538 m 393 -253 l 448 -171 l 408 -169 l 408 -68 l 526 -68 l 526 -153 l 441 -253 l 393 -253 z "},"Ȑ":{"ha":932,"x_min":122,"x_max":840,"o":"m 138 0 l 138 1004 l 517 1004 q 695 973 623 1004 q 803 881 767 941 q 840 737 840 822 q 809 600 840 655 q 733 514 779 546 q 639 465 688 481 l 840 0 l 724 0 l 535 445 l 247 445 l 247 0 l 138 0 m 247 538 l 474 538 q 662 585 597 538 q 728 729 728 632 q 670 868 728 823 q 509 913 613 913 l 247 913 l 247 538 m 320 1088 l 122 1290 l 244 1290 l 406 1088 l 320 1088 m 500 1088 l 331 1290 l 451 1290 l 586 1088 l 500 1088 z "},"Ṛ":{"ha":932,"x_min":138,"x_max":840,"o":"m 138 0 l 138 1004 l 517 1004 q 695 973 623 1004 q 803 881 767 941 q 840 737 840 822 q 809 600 840 655 q 733 514 779 546 q 639 465 688 481 l 840 0 l 724 0 l 535 445 l 247 445 l 247 0 l 138 0 m 247 538 l 474 538 q 662 585 597 538 q 728 729 728 632 q 670 868 728 823 q 509 913 613 913 l 247 913 l 247 538 m 408 -242 l 408 -128 l 522 -128 l 522 -242 l 408 -242 z "},"Ȓ":{"ha":932,"x_min":138,"x_max":840,"o":"m 138 0 l 138 1004 l 517 1004 q 695 973 623 1004 q 803 881 767 941 q 840 737 840 822 q 809 600 840 655 q 733 514 779 546 q 639 465 688 481 l 840 0 l 724 0 l 535 445 l 247 445 l 247 0 l 138 0 m 247 538 l 474 538 q 662 585 597 538 q 728 729 728 632 q 670 868 728 823 q 509 913 613 913 l 247 913 l 247 538 m 249 1130 q 288 1208 259 1176 q 358 1257 316 1240 q 449 1273 400 1273 q 543 1256 501 1273 q 614 1206 585 1238 q 651 1130 642 1174 l 569 1130 q 524 1184 556 1163 q 449 1205 492 1205 q 375 1184 405 1205 q 333 1130 344 1163 l 249 1130 z "},"S":{"ha":922,"x_min":83,"x_max":834,"o":"m 468 -14 q 331 4 396 -14 q 214 56 266 22 q 127 142 161 91 q 83 261 94 193 l 198 261 q 251 160 212 201 q 347 99 290 119 q 472 78 405 78 q 598 101 541 78 q 689 164 655 123 q 723 263 723 205 q 683 364 723 324 q 558 427 644 403 l 347 483 q 226 532 278 501 q 144 613 174 563 q 114 740 114 664 q 160 885 114 822 q 284 982 206 947 q 463 1017 363 1017 q 658 976 579 1017 q 777 869 737 935 q 818 729 818 803 l 706 729 q 663 844 699 802 q 574 906 627 887 q 459 924 520 924 q 288 872 347 924 q 228 747 228 820 q 270 643 228 681 q 391 585 313 606 l 601 530 q 739 469 688 508 q 812 379 790 430 q 834 269 834 328 q 789 124 834 188 q 662 23 744 60 q 468 -14 580 -14 z "},"Ś":{"ha":922,"x_min":83,"x_max":834,"o":"m 468 -14 q 331 4 396 -14 q 214 56 266 22 q 127 142 161 91 q 83 261 94 193 l 198 261 q 251 160 212 201 q 347 99 290 119 q 472 78 405 78 q 598 101 541 78 q 689 164 655 123 q 723 263 723 205 q 683 364 723 324 q 558 427 644 403 l 347 483 q 226 532 278 501 q 144 613 174 563 q 114 740 114 664 q 160 885 114 822 q 284 982 206 947 q 463 1017 363 1017 q 658 976 579 1017 q 777 869 737 935 q 818 729 818 803 l 706 729 q 663 844 699 802 q 574 906 627 887 q 459 924 520 924 q 288 872 347 924 q 228 747 228 820 q 270 643 228 681 q 391 585 313 606 l 601 530 q 739 469 688 508 q 812 379 790 430 q 834 269 834 328 q 789 124 834 188 q 662 23 744 60 q 468 -14 580 -14 m 406 1088 l 549 1290 l 678 1290 l 492 1088 l 406 1088 z "},"Š":{"ha":922,"x_min":83,"x_max":834,"o":"m 468 -14 q 331 4 396 -14 q 214 56 266 22 q 127 142 161 91 q 83 261 94 193 l 198 261 q 251 160 212 201 q 347 99 290 119 q 472 78 405 78 q 598 101 541 78 q 689 164 655 123 q 723 263 723 205 q 683 364 723 324 q 558 427 644 403 l 347 483 q 226 532 278 501 q 144 613 174 563 q 114 740 114 664 q 160 885 114 822 q 284 982 206 947 q 463 1017 363 1017 q 658 976 579 1017 q 777 869 737 935 q 818 729 818 803 l 706 729 q 663 844 699 802 q 574 906 627 887 q 459 924 520 924 q 288 872 347 924 q 228 747 228 820 q 270 643 228 681 q 391 585 313 606 l 601 530 q 739 469 688 508 q 812 379 790 430 q 834 269 834 328 q 789 124 834 188 q 662 23 744 60 q 468 -14 580 -14 m 419 1088 l 246 1238 l 351 1238 l 457 1147 l 556 1238 l 667 1238 l 498 1088 l 419 1088 z "},"Ş":{"ha":922,"x_min":83,"x_max":834,"o":"m 425 -283 q 359 -275 390 -283 q 301 -249 328 -267 l 321 -199 q 360 -222 338 -212 q 413 -231 382 -231 q 470 -217 452 -231 q 489 -178 489 -203 q 463 -133 489 -148 q 380 -117 438 -118 q 372 -115 374 -117 q 372 -108 371 -112 l 423 7 l 485 7 l 451 -77 q 524 -95 497 -80 q 561 -133 550 -110 q 572 -178 572 -155 q 551 -236 572 -212 q 498 -271 531 -259 q 425 -283 465 -283 m 468 -14 q 331 4 396 -14 q 214 56 266 22 q 127 142 161 91 q 83 261 94 193 l 198 261 q 251 160 212 201 q 347 99 290 119 q 472 78 405 78 q 598 101 541 78 q 689 164 655 123 q 723 263 723 205 q 683 364 723 324 q 558 427 644 403 l 347 483 q 226 532 278 501 q 144 613 174 563 q 114 740 114 664 q 160 885 114 822 q 284 982 206 947 q 463 1017 363 1017 q 658 976 579 1017 q 777 869 737 935 q 818 729 818 803 l 706 729 q 663 844 699 802 q 574 906 627 887 q 459 924 520 924 q 288 872 347 924 q 228 747 228 820 q 270 643 228 681 q 391 585 313 606 l 601 530 q 739 469 688 508 q 812 379 790 430 q 834 269 834 328 q 789 124 834 188 q 662 23 744 60 q 468 -14 580 -14 z "},"Ŝ":{"ha":922,"x_min":83,"x_max":834,"o":"m 468 -14 q 331 4 396 -14 q 214 56 266 22 q 127 142 161 91 q 83 261 94 193 l 198 261 q 251 160 212 201 q 347 99 290 119 q 472 78 405 78 q 598 101 541 78 q 689 164 655 123 q 723 263 723 205 q 683 364 723 324 q 558 427 644 403 l 347 483 q 226 532 278 501 q 144 613 174 563 q 114 740 114 664 q 160 885 114 822 q 284 982 206 947 q 463 1017 363 1017 q 658 976 579 1017 q 777 869 737 935 q 818 729 818 803 l 706 729 q 663 844 699 802 q 574 906 627 887 q 459 924 520 924 q 288 872 347 924 q 228 747 228 820 q 270 643 228 681 q 391 585 313 606 l 601 530 q 739 469 688 508 q 812 379 790 430 q 834 269 834 328 q 789 124 834 188 q 662 23 744 60 q 468 -14 580 -14 m 247 1088 l 419 1238 l 498 1238 l 667 1088 l 556 1088 l 457 1176 l 351 1088 l 247 1088 z "},"Ș":{"ha":922,"x_min":83,"x_max":834,"o":"m 468 -14 q 331 4 396 -14 q 214 56 266 22 q 127 142 161 91 q 83 261 94 193 l 198 261 q 251 160 212 201 q 347 99 290 119 q 472 78 405 78 q 598 101 541 78 q 689 164 655 123 q 723 263 723 205 q 683 364 723 324 q 558 427 644 403 l 347 483 q 226 532 278 501 q 144 613 174 563 q 114 740 114 664 q 160 885 114 822 q 284 982 206 947 q 463 1017 363 1017 q 658 976 579 1017 q 777 869 737 935 q 818 729 818 803 l 706 729 q 663 844 699 802 q 574 906 627 887 q 459 924 520 924 q 288 872 347 924 q 228 747 228 820 q 270 643 228 681 q 391 585 313 606 l 601 530 q 739 469 688 508 q 812 379 790 430 q 834 269 834 328 q 789 124 834 188 q 662 23 744 60 q 468 -14 580 -14 m 379 -253 l 434 -171 l 394 -169 l 394 -68 l 513 -68 l 513 -153 l 427 -253 l 379 -253 z "},"Ṣ":{"ha":922,"x_min":83,"x_max":834,"o":"m 468 -14 q 331 4 396 -14 q 214 56 266 22 q 127 142 161 91 q 83 261 94 193 l 198 261 q 251 160 212 201 q 347 99 290 119 q 472 78 405 78 q 598 101 541 78 q 689 164 655 123 q 723 263 723 205 q 683 364 723 324 q 558 427 644 403 l 347 483 q 226 532 278 501 q 144 613 174 563 q 114 740 114 664 q 160 885 114 822 q 284 982 206 947 q 463 1017 363 1017 q 658 976 579 1017 q 777 869 737 935 q 818 729 818 803 l 706 729 q 663 844 699 802 q 574 906 627 887 q 459 924 520 924 q 288 872 347 924 q 228 747 228 820 q 270 643 228 681 q 391 585 313 606 l 601 530 q 739 469 688 508 q 812 379 790 430 q 834 269 834 328 q 789 124 834 188 q 662 23 744 60 q 468 -14 580 -14 m 394 -242 l 394 -128 l 508 -128 l 508 -242 l 394 -242 z "},"Ə":{"ha":1008,"x_min":77,"x_max":931,"o":"m 506 -14 q 280 45 376 -14 q 132 226 184 105 q 79 531 79 347 l 803 531 q 727 812 803 712 q 504 913 651 913 q 374 890 431 913 q 280 830 318 867 q 222 750 242 793 q 203 668 203 708 l 77 668 q 107 787 77 726 q 193 900 137 848 q 327 985 249 953 q 506 1018 406 1018 q 734 957 639 1018 q 880 781 829 896 q 931 504 931 666 q 878 218 931 333 q 731 44 826 103 q 506 -14 635 -14 m 506 88 q 669 134 603 88 q 768 260 735 180 q 803 440 801 340 l 210 440 q 244 259 210 339 q 343 134 278 179 q 506 88 409 88 z "},"T":{"ha":815,"x_min":34,"x_max":782,"o":"m 363 0 l 363 903 l 34 903 l 34 1004 l 782 1004 l 782 903 l 472 903 l 472 0 l 363 0 z "},"Ŧ":{"ha":815,"x_min":34,"x_max":782,"o":"m 148 461 l 148 551 l 668 551 l 668 461 l 148 461 m 363 0 l 363 903 l 34 903 l 34 1004 l 782 1004 l 782 903 l 472 903 l 472 0 l 363 0 z "},"Ť":{"ha":815,"x_min":34,"x_max":782,"o":"m 363 0 l 363 903 l 34 903 l 34 1004 l 782 1004 l 782 903 l 472 903 l 472 0 l 363 0 m 384 1088 l 211 1238 l 317 1238 l 422 1147 l 521 1238 l 632 1238 l 463 1088 l 384 1088 z "},"Ţ":{"ha":815,"x_min":34,"x_max":782,"o":"m 397 -281 q 331 -273 362 -281 q 273 -247 300 -265 l 292 -197 q 332 -220 310 -210 q 385 -229 353 -229 q 443 -215 424 -229 q 461 -176 461 -201 q 435 -131 461 -146 q 352 -115 410 -116 q 344 -112 346 -115 q 344 -106 342 -110 l 394 9 l 456 9 l 423 -75 q 495 -93 469 -78 q 532 -131 522 -108 q 543 -176 543 -153 q 523 -234 543 -210 q 470 -269 503 -257 q 397 -281 437 -281 m 363 0 l 363 903 l 34 903 l 34 1004 l 782 1004 l 782 903 l 472 903 l 472 0 l 363 0 z "},"Ț":{"ha":815,"x_min":34,"x_max":782,"o":"m 363 0 l 363 903 l 34 903 l 34 1004 l 782 1004 l 782 903 l 472 903 l 472 0 l 363 0 m 351 -251 l 406 -169 l 365 -167 l 365 -66 l 484 -66 l 484 -151 l 399 -251 l 351 -251 z "},"Ṭ":{"ha":815,"x_min":34,"x_max":782,"o":"m 363 0 l 363 903 l 34 903 l 34 1004 l 782 1004 l 782 903 l 472 903 l 472 0 l 363 0 m 366 -240 l 366 -126 l 479 -126 l 479 -240 l 366 -240 z "},"U":{"ha":964,"x_min":138,"x_max":853,"o":"m 495 -14 q 291 27 369 -14 q 175 151 212 69 q 138 353 138 233 l 138 1004 l 251 1004 l 251 333 q 314 145 251 208 q 495 83 376 83 q 631 110 576 83 q 716 193 687 138 q 744 333 744 249 l 744 1004 l 853 1004 l 853 338 q 816 145 853 224 q 699 26 778 67 q 495 -14 619 -14 z "},"Ú":{"ha":964,"x_min":138,"x_max":853,"o":"m 495 -14 q 291 27 369 -14 q 175 151 212 69 q 138 353 138 233 l 138 1004 l 251 1004 l 251 333 q 314 145 251 208 q 495 83 376 83 q 631 110 576 83 q 716 193 687 138 q 744 333 744 249 l 744 1004 l 853 1004 l 853 338 q 816 145 853 224 q 699 26 778 67 q 495 -14 619 -14 m 447 1088 l 590 1290 l 719 1290 l 533 1088 l 447 1088 z "},"Ŭ":{"ha":964,"x_min":138,"x_max":853,"o":"m 495 -14 q 291 27 369 -14 q 175 151 212 69 q 138 353 138 233 l 138 1004 l 251 1004 l 251 333 q 314 145 251 208 q 495 83 376 83 q 631 110 576 83 q 716 193 687 138 q 744 333 744 249 l 744 1004 l 853 1004 l 853 338 q 816 145 853 224 q 699 26 778 67 q 495 -14 619 -14 m 496 1086 q 405 1103 447 1086 q 334 1151 363 1119 q 296 1229 306 1183 l 379 1229 q 422 1176 391 1197 q 496 1155 452 1155 q 571 1176 540 1155 q 615 1229 603 1197 l 699 1229 q 660 1153 688 1185 q 590 1103 632 1121 q 496 1086 548 1086 z "},"Û":{"ha":964,"x_min":138,"x_max":853,"o":"m 495 -14 q 291 27 369 -14 q 175 151 212 69 q 138 353 138 233 l 138 1004 l 251 1004 l 251 333 q 314 145 251 208 q 495 83 376 83 q 631 110 576 83 q 716 193 687 138 q 744 333 744 249 l 744 1004 l 853 1004 l 853 338 q 816 145 853 224 q 699 26 778 67 q 495 -14 619 -14 m 288 1088 l 459 1238 l 538 1238 l 707 1088 l 596 1088 l 497 1176 l 392 1088 l 288 1088 z "},"Ȕ":{"ha":964,"x_min":138,"x_max":853,"o":"m 495 -14 q 291 27 369 -14 q 175 151 212 69 q 138 353 138 233 l 138 1004 l 251 1004 l 251 333 q 314 145 251 208 q 495 83 376 83 q 631 110 576 83 q 716 193 687 138 q 744 333 744 249 l 744 1004 l 853 1004 l 853 338 q 816 145 853 224 q 699 26 778 67 q 495 -14 619 -14 m 364 1088 l 165 1290 l 288 1290 l 450 1088 l 364 1088 m 544 1088 l 374 1290 l 494 1290 l 630 1088 l 544 1088 z "},"Ü":{"ha":964,"x_min":138,"x_max":853,"o":"m 495 -14 q 291 27 369 -14 q 175 151 212 69 q 138 353 138 233 l 138 1004 l 251 1004 l 251 333 q 314 145 251 208 q 495 83 376 83 q 631 110 576 83 q 716 193 687 138 q 744 333 744 249 l 744 1004 l 853 1004 l 853 338 q 816 145 853 224 q 699 26 778 67 q 495 -14 619 -14 m 571 1177 l 572 1290 l 680 1290 l 679 1177 l 571 1177 m 315 1177 l 316 1290 l 424 1290 l 424 1177 l 315 1177 z "},"Ụ":{"ha":964,"x_min":138,"x_max":853,"o":"m 495 -14 q 291 27 369 -14 q 175 151 212 69 q 138 353 138 233 l 138 1004 l 251 1004 l 251 333 q 314 145 251 208 q 495 83 376 83 q 631 110 576 83 q 716 193 687 138 q 744 333 744 249 l 744 1004 l 853 1004 l 853 338 q 816 145 853 224 q 699 26 778 67 q 495 -14 619 -14 m 438 -240 l 438 -126 l 551 -126 l 551 -240 l 438 -240 z "},"Ù":{"ha":964,"x_min":138,"x_max":853,"o":"m 495 -14 q 291 27 369 -14 q 175 151 212 69 q 138 353 138 233 l 138 1004 l 251 1004 l 251 333 q 314 145 251 208 q 495 83 376 83 q 631 110 576 83 q 716 193 687 138 q 744 333 744 249 l 744 1004 l 853 1004 l 853 338 q 816 145 853 224 q 699 26 778 67 q 495 -14 619 -14 m 459 1088 l 273 1290 l 402 1290 l 545 1088 l 459 1088 z "},"Ủ":{"ha":964,"x_min":138,"x_max":853,"o":"m 495 -14 q 291 27 369 -14 q 175 151 212 69 q 138 353 138 233 l 138 1004 l 251 1004 l 251 333 q 314 145 251 208 q 495 83 376 83 q 631 110 576 83 q 716 193 687 138 q 744 333 744 249 l 744 1004 l 853 1004 l 853 338 q 816 145 853 224 q 699 26 778 67 q 495 -14 619 -14 m 535 1086 l 499 1140 q 543 1185 530 1160 q 541 1234 556 1211 q 497 1257 527 1258 q 438 1237 467 1256 l 403 1291 q 515 1321 460 1328 q 597 1272 569 1315 q 613 1172 631 1221 q 535 1086 594 1122 z "},"Ư":{"ha":1106,"x_min":138,"x_max":1038,"o":"m 495 -14 q 291 27 369 -14 q 175 151 212 69 q 138 353 138 233 l 138 1004 l 251 1004 l 251 333 q 314 145 251 208 q 495 83 376 83 q 631 110 576 83 q 716 193 687 138 q 744 333 744 249 l 744 1004 l 853 1004 l 853 888 q 904 903 885 890 q 932 944 922 915 q 944 1025 942 974 l 1038 1025 q 1019 905 1038 952 q 960 838 1000 858 q 853 819 919 817 l 853 338 q 816 145 853 224 q 699 26 778 67 q 495 -14 619 -14 z "},"Ứ":{"ha":1106,"x_min":138,"x_max":1038,"o":"m 495 -14 q 291 27 369 -14 q 175 151 212 69 q 138 353 138 233 l 138 1004 l 251 1004 l 251 333 q 314 145 251 208 q 495 83 376 83 q 631 110 576 83 q 716 193 687 138 q 744 333 744 249 l 744 1004 l 853 1004 l 853 888 q 904 903 885 890 q 932 944 922 915 q 944 1025 942 974 l 1038 1025 q 1019 905 1038 952 q 960 838 1000 858 q 853 819 919 817 l 853 338 q 816 145 853 224 q 699 26 778 67 q 495 -14 619 -14 m 447 1088 l 590 1290 l 719 1290 l 533 1088 l 447 1088 z "},"Ự":{"ha":1106,"x_min":138,"x_max":1038,"o":"m 495 -14 q 291 27 369 -14 q 175 151 212 69 q 138 353 138 233 l 138 1004 l 251 1004 l 251 333 q 314 145 251 208 q 495 83 376 83 q 631 110 576 83 q 716 193 687 138 q 744 333 744 249 l 744 1004 l 853 1004 l 853 888 q 904 903 885 890 q 932 944 922 915 q 944 1025 942 974 l 1038 1025 q 1019 905 1038 952 q 960 838 1000 858 q 853 819 919 817 l 853 338 q 816 145 853 224 q 699 26 778 67 q 495 -14 619 -14 m 438 -240 l 438 -126 l 551 -126 l 551 -240 l 438 -240 z "},"Ừ":{"ha":1106,"x_min":138,"x_max":1038,"o":"m 495 -14 q 291 27 369 -14 q 175 151 212 69 q 138 353 138 233 l 138 1004 l 251 1004 l 251 333 q 314 145 251 208 q 495 83 376 83 q 631 110 576 83 q 716 193 687 138 q 744 333 744 249 l 744 1004 l 853 1004 l 853 888 q 904 903 885 890 q 932 944 922 915 q 944 1025 942 974 l 1038 1025 q 1019 905 1038 952 q 960 838 1000 858 q 853 819 919 817 l 853 338 q 816 145 853 224 q 699 26 778 67 q 495 -14 619 -14 m 459 1088 l 273 1290 l 402 1290 l 545 1088 l 459 1088 z "},"Ử":{"ha":1106,"x_min":138,"x_max":1038,"o":"m 495 -14 q 291 27 369 -14 q 175 151 212 69 q 138 353 138 233 l 138 1004 l 251 1004 l 251 333 q 314 145 251 208 q 495 83 376 83 q 631 110 576 83 q 716 193 687 138 q 744 333 744 249 l 744 1004 l 853 1004 l 853 888 q 904 903 885 890 q 932 944 922 915 q 944 1025 942 974 l 1038 1025 q 1019 905 1038 952 q 960 838 1000 858 q 853 819 919 817 l 853 338 q 816 145 853 224 q 699 26 778 67 q 495 -14 619 -14 m 535 1086 l 499 1140 q 543 1185 530 1160 q 541 1234 556 1211 q 497 1257 527 1258 q 438 1237 467 1256 l 403 1291 q 515 1321 460 1328 q 597 1272 569 1315 q 613 1172 631 1221 q 535 1086 594 1122 z "},"Ữ":{"ha":1104,"x_min":138,"x_max":1038,"o":"m 495 -14 q 291 27 369 -14 q 175 151 212 69 q 138 353 138 233 l 138 1004 l 251 1004 l 251 333 q 314 145 251 208 q 495 83 376 83 q 631 110 576 83 q 716 193 687 138 q 744 333 744 249 l 744 1004 l 853 1004 l 853 888 q 904 903 885 890 q 932 944 922 915 q 944 1025 942 974 l 1038 1025 q 1019 905 1038 952 q 960 838 1000 858 q 853 819 919 817 l 853 338 q 816 145 853 224 q 699 26 778 67 q 495 -14 619 -14 m 320 1138 l 299 1206 q 346 1241 321 1226 q 409 1255 372 1255 q 470 1245 442 1255 q 527 1227 499 1236 q 586 1217 556 1217 q 637 1228 616 1217 q 678 1253 658 1238 l 700 1178 q 656 1154 683 1167 q 585 1141 628 1141 q 522 1150 549 1141 q 470 1167 495 1158 q 415 1176 445 1176 q 360 1164 381 1176 q 320 1138 340 1153 z "},"Ű":{"ha":964,"x_min":138,"x_max":853,"o":"m 495 -14 q 291 27 369 -14 q 175 151 212 69 q 138 353 138 233 l 138 1004 l 251 1004 l 251 333 q 314 145 251 208 q 495 83 376 83 q 631 110 576 83 q 716 193 687 138 q 744 333 744 249 l 744 1004 l 853 1004 l 853 338 q 816 145 853 224 q 699 26 778 67 q 495 -14 619 -14 m 549 1088 l 710 1290 l 833 1290 l 635 1088 l 549 1088 m 369 1088 l 504 1290 l 624 1290 l 455 1088 l 369 1088 z "},"Ȗ":{"ha":964,"x_min":138,"x_max":853,"o":"m 495 -14 q 291 27 369 -14 q 175 151 212 69 q 138 353 138 233 l 138 1004 l 251 1004 l 251 333 q 314 145 251 208 q 495 83 376 83 q 631 110 576 83 q 716 193 687 138 q 744 333 744 249 l 744 1004 l 853 1004 l 853 338 q 816 145 853 224 q 699 26 778 67 q 495 -14 619 -14 m 292 1130 q 331 1208 303 1176 q 402 1257 360 1240 q 492 1273 444 1273 q 587 1256 544 1273 q 658 1206 629 1238 q 695 1130 686 1174 l 613 1130 q 568 1184 600 1163 q 492 1205 536 1205 q 418 1184 449 1205 q 376 1130 388 1163 l 292 1130 z "},"Ū":{"ha":964,"x_min":138,"x_max":853,"o":"m 495 -14 q 291 27 369 -14 q 175 151 212 69 q 138 353 138 233 l 138 1004 l 251 1004 l 251 333 q 314 145 251 208 q 495 83 376 83 q 631 110 576 83 q 716 193 687 138 q 744 333 744 249 l 744 1004 l 853 1004 l 853 338 q 816 145 853 224 q 699 26 778 67 q 495 -14 619 -14 m 300 1149 l 300 1229 l 694 1229 l 694 1149 l 300 1149 z "},"Ų":{"ha":964,"x_min":138,"x_max":853,"o":"m 517 -232 q 417 -202 451 -232 q 384 -124 384 -173 q 414 -48 384 -81 q 528 11 444 -15 l 608 2 q 507 -54 539 -28 q 475 -116 475 -81 q 491 -155 475 -142 q 543 -169 507 -169 q 603 -160 576 -169 q 642 -144 629 -151 l 642 -205 q 591 -223 626 -215 q 517 -232 557 -232 m 495 -14 q 291 27 369 -14 q 175 151 212 69 q 138 353 138 233 l 138 1004 l 251 1004 l 251 333 q 314 145 251 208 q 495 83 376 83 q 631 110 576 83 q 716 193 687 138 q 744 333 744 249 l 744 1004 l 853 1004 l 853 338 q 816 145 853 224 q 699 26 778 67 q 495 -14 619 -14 z "},"Ů":{"ha":964,"x_min":138,"x_max":853,"o":"m 495 -14 q 291 27 369 -14 q 175 151 212 69 q 138 353 138 233 l 138 1004 l 251 1004 l 251 333 q 314 145 251 208 q 495 83 376 83 q 631 110 576 83 q 716 193 687 138 q 744 333 744 249 l 744 1004 l 853 1004 l 853 338 q 816 145 853 224 q 699 26 778 67 q 495 -14 619 -14 m 498 1091 q 398 1132 439 1091 q 357 1235 357 1174 q 399 1331 357 1291 q 498 1371 440 1371 q 569 1352 538 1371 q 620 1302 601 1333 q 640 1232 640 1271 q 599 1132 640 1172 q 498 1091 558 1091 m 497 1154 q 550 1177 528 1154 q 572 1231 572 1201 q 550 1286 572 1265 q 497 1307 528 1307 q 443 1286 466 1307 q 420 1231 420 1265 q 443 1177 420 1201 q 497 1154 466 1154 z "},"Ũ":{"ha":964,"x_min":138,"x_max":853,"o":"m 495 -14 q 291 27 369 -14 q 175 151 212 69 q 138 353 138 233 l 138 1004 l 251 1004 l 251 333 q 314 145 251 208 q 495 83 376 83 q 631 110 576 83 q 716 193 687 138 q 744 333 744 249 l 744 1004 l 853 1004 l 853 338 q 816 145 853 224 q 699 26 778 67 q 495 -14 619 -14 m 320 1138 l 299 1206 q 346 1241 321 1226 q 409 1255 372 1255 q 470 1245 442 1255 q 527 1227 499 1236 q 586 1217 556 1217 q 637 1228 616 1217 q 678 1253 658 1238 l 700 1178 q 656 1154 683 1167 q 585 1141 628 1141 q 522 1150 549 1141 q 470 1167 495 1158 q 415 1176 445 1176 q 360 1164 381 1176 q 320 1138 340 1153 z "},"V":{"ha":922,"x_min":34,"x_max":888,"o":"m 394 0 l 34 1004 l 142 1004 l 461 122 l 779 1004 l 888 1004 l 528 0 l 394 0 z "},"W":{"ha":1319,"x_min":34,"x_max":1285,"o":"m 321 0 l 34 1004 l 144 1004 l 376 167 l 614 1004 l 702 1004 l 938 167 l 1175 1004 l 1285 1004 l 993 0 l 886 0 l 657 812 l 424 0 l 321 0 z "},"Ẃ":{"ha":1319,"x_min":34,"x_max":1285,"o":"m 321 0 l 34 1004 l 144 1004 l 376 167 l 614 1004 l 702 1004 l 938 167 l 1175 1004 l 1285 1004 l 993 0 l 886 0 l 657 812 l 424 0 l 321 0 m 607 1088 l 750 1290 l 879 1290 l 693 1088 l 607 1088 z "},"Ŵ":{"ha":1319,"x_min":34,"x_max":1285,"o":"m 321 0 l 34 1004 l 144 1004 l 376 167 l 614 1004 l 702 1004 l 938 167 l 1175 1004 l 1285 1004 l 993 0 l 886 0 l 657 812 l 424 0 l 321 0 m 448 1088 l 619 1238 l 699 1238 l 867 1088 l 756 1088 l 658 1176 l 552 1088 l 448 1088 z "},"Ẅ":{"ha":1319,"x_min":34,"x_max":1285,"o":"m 321 0 l 34 1004 l 144 1004 l 376 167 l 614 1004 l 702 1004 l 938 167 l 1175 1004 l 1285 1004 l 993 0 l 886 0 l 657 812 l 424 0 l 321 0 m 731 1177 l 732 1290 l 840 1290 l 840 1177 l 731 1177 m 476 1177 l 476 1290 l 585 1290 l 584 1177 l 476 1177 z "},"Ẁ":{"ha":1319,"x_min":34,"x_max":1285,"o":"m 321 0 l 34 1004 l 144 1004 l 376 167 l 614 1004 l 702 1004 l 938 167 l 1175 1004 l 1285 1004 l 993 0 l 886 0 l 657 812 l 424 0 l 321 0 m 620 1088 l 434 1290 l 563 1290 l 706 1088 l 620 1088 z "},"X":{"ha":945,"x_min":63,"x_max":883,"o":"m 63 0 l 405 513 l 76 1004 l 209 1004 l 472 606 l 733 1004 l 854 1004 l 531 523 l 883 0 l 749 0 l 465 428 l 184 0 l 63 0 z "},"Y":{"ha":821,"x_min":17,"x_max":803,"o":"m 358 0 l 358 430 l 17 1004 l 136 1004 l 413 528 l 685 1004 l 803 1004 l 466 428 l 466 0 l 358 0 z "},"Ý":{"ha":821,"x_min":17,"x_max":803,"o":"m 358 0 l 358 430 l 17 1004 l 136 1004 l 413 528 l 685 1004 l 803 1004 l 466 428 l 466 0 l 358 0 m 368 1090 l 511 1292 l 640 1292 l 454 1090 l 368 1090 z "},"Ŷ":{"ha":821,"x_min":17,"x_max":803,"o":"m 358 0 l 358 430 l 17 1004 l 136 1004 l 413 528 l 685 1004 l 803 1004 l 466 428 l 466 0 l 358 0 m 209 1090 l 381 1240 l 460 1240 l 628 1090 l 517 1090 l 419 1178 l 313 1090 l 209 1090 z "},"Ÿ":{"ha":821,"x_min":17,"x_max":803,"o":"m 358 0 l 358 430 l 17 1004 l 136 1004 l 413 528 l 685 1004 l 803 1004 l 466 428 l 466 0 l 358 0 m 493 1179 l 494 1292 l 602 1292 l 601 1179 l 493 1179 m 238 1179 l 238 1292 l 347 1292 l 346 1179 l 238 1179 z "},"Ỵ":{"ha":821,"x_min":17,"x_max":803,"o":"m 358 0 l 358 430 l 17 1004 l 136 1004 l 413 528 l 685 1004 l 803 1004 l 466 428 l 466 0 l 358 0 m 356 -242 l 356 -128 l 469 -128 l 469 -242 l 356 -242 z "},"Ỳ":{"ha":821,"x_min":17,"x_max":803,"o":"m 358 0 l 358 430 l 17 1004 l 136 1004 l 413 528 l 685 1004 l 803 1004 l 466 428 l 466 0 l 358 0 m 381 1090 l 195 1292 l 324 1292 l 467 1090 l 381 1090 z "},"Ỷ":{"ha":821,"x_min":17,"x_max":803,"o":"m 358 0 l 358 430 l 17 1004 l 136 1004 l 413 528 l 685 1004 l 803 1004 l 466 428 l 466 0 l 358 0 m 456 1088 l 421 1142 q 464 1188 451 1162 q 463 1236 477 1213 q 418 1259 449 1260 q 360 1239 388 1258 l 324 1293 q 436 1323 382 1330 q 518 1274 490 1317 q 534 1174 552 1223 q 456 1088 516 1124 z "},"Ỹ":{"ha":821,"x_min":17,"x_max":803,"o":"m 358 0 l 358 430 l 17 1004 l 136 1004 l 413 528 l 685 1004 l 803 1004 l 466 428 l 466 0 l 358 0 m 242 1140 l 221 1208 q 268 1243 243 1228 q 331 1257 294 1257 q 393 1248 364 1257 q 450 1229 422 1238 q 508 1219 478 1219 q 559 1230 538 1219 q 601 1256 580 1240 l 622 1181 q 578 1156 605 1169 q 508 1143 551 1143 q 444 1152 471 1143 q 392 1169 417 1160 q 337 1178 367 1178 q 283 1166 303 1178 q 242 1140 263 1155 z "},"Z":{"ha":872,"x_min":92,"x_max":803,"o":"m 92 0 l 92 63 l 653 908 l 113 908 l 113 1004 l 803 1004 l 803 944 l 238 97 l 801 97 l 801 0 l 92 0 z "},"Ź":{"ha":872,"x_min":92,"x_max":803,"o":"m 92 0 l 92 63 l 653 908 l 113 908 l 113 1004 l 803 1004 l 803 944 l 238 97 l 801 97 l 801 0 l 92 0 m 411 1088 l 554 1290 l 683 1290 l 497 1088 l 411 1088 z "},"Ž":{"ha":872,"x_min":92,"x_max":803,"o":"m 92 0 l 92 63 l 653 908 l 113 908 l 113 1004 l 803 1004 l 803 944 l 238 97 l 801 97 l 801 0 l 92 0 m 424 1088 l 251 1238 l 356 1238 l 462 1147 l 560 1238 l 672 1238 l 503 1088 l 424 1088 z "},"Ż":{"ha":872,"x_min":92,"x_max":803,"o":"m 92 0 l 92 63 l 653 908 l 113 908 l 113 1004 l 803 1004 l 803 944 l 238 97 l 801 97 l 801 0 l 92 0 m 406 1177 l 406 1290 l 519 1290 l 519 1177 l 406 1177 z "},"Ẓ":{"ha":872,"x_min":92,"x_max":803,"o":"m 92 0 l 92 63 l 653 908 l 113 908 l 113 1004 l 803 1004 l 803 944 l 238 97 l 801 97 l 801 0 l 92 0 m 405 -242 l 405 -128 l 518 -128 l 518 -242 l 405 -242 z "},"a":{"ha":763,"x_min":74,"x_max":664,"o":"m 310 -14 q 186 11 240 -14 q 104 81 133 35 q 74 192 74 127 q 156 369 74 311 q 421 431 238 426 l 559 435 l 559 495 q 517 607 559 565 q 385 649 474 649 q 270 618 319 649 q 208 519 221 587 l 109 519 q 147 634 113 586 q 242 707 181 681 q 390 732 304 732 q 541 706 480 732 q 633 628 601 680 q 664 500 664 576 l 664 0 l 571 0 l 563 138 q 454 19 520 53 q 310 -14 388 -14 m 340 67 q 417 81 378 67 q 488 119 456 95 q 540 174 520 144 q 559 235 559 203 l 559 363 l 444 360 q 294 342 353 359 q 208 291 236 326 q 181 201 181 257 q 225 103 181 138 q 340 67 269 67 z "},"á":{"ha":763,"x_min":74,"x_max":664,"o":"m 310 -14 q 186 11 240 -14 q 104 81 133 35 q 74 192 74 127 q 156 369 74 311 q 421 431 238 426 l 559 435 l 559 495 q 517 607 559 565 q 385 649 474 649 q 270 618 319 649 q 208 519 221 587 l 109 519 q 147 634 113 586 q 242 707 181 681 q 390 732 304 732 q 541 706 480 732 q 633 628 601 680 q 664 500 664 576 l 664 0 l 571 0 l 563 138 q 454 19 520 53 q 310 -14 388 -14 m 340 67 q 417 81 378 67 q 488 119 456 95 q 540 174 520 144 q 559 235 559 203 l 559 363 l 444 360 q 294 342 353 359 q 208 291 236 326 q 181 201 181 257 q 225 103 181 138 q 340 67 269 67 m 340 802 l 483 1004 l 612 1004 l 426 802 l 340 802 z "},"ă":{"ha":763,"x_min":74,"x_max":664,"o":"m 310 -14 q 186 11 240 -14 q 104 81 133 35 q 74 192 74 127 q 156 369 74 311 q 421 431 238 426 l 559 435 l 559 495 q 517 607 559 565 q 385 649 474 649 q 270 618 319 649 q 208 519 221 587 l 109 519 q 147 634 113 586 q 242 707 181 681 q 390 732 304 732 q 541 706 480 732 q 633 628 601 680 q 664 500 664 576 l 664 0 l 571 0 l 563 138 q 454 19 520 53 q 310 -14 388 -14 m 340 67 q 417 81 378 67 q 488 119 456 95 q 540 174 520 144 q 559 235 559 203 l 559 363 l 444 360 q 294 342 353 359 q 208 291 236 326 q 181 201 181 257 q 225 103 181 138 q 340 67 269 67 m 390 800 q 299 817 340 800 q 228 865 257 833 q 190 943 199 897 l 273 943 q 315 890 285 910 q 390 869 346 869 q 465 890 433 869 q 509 943 497 910 l 592 943 q 554 867 582 899 q 484 817 526 835 q 390 800 442 800 z "},"ắ":{"ha":763,"x_min":74,"x_max":664,"o":"m 310 -14 q 186 11 240 -14 q 104 81 133 35 q 74 192 74 127 q 156 369 74 311 q 421 431 238 426 l 559 435 l 559 495 q 517 607 559 565 q 385 649 474 649 q 270 618 319 649 q 208 519 221 587 l 109 519 q 147 634 113 586 q 242 707 181 681 q 390 732 304 732 q 541 706 480 732 q 633 628 601 680 q 664 500 664 576 l 664 0 l 571 0 l 563 138 q 454 19 520 53 q 310 -14 388 -14 m 340 67 q 417 81 378 67 q 488 119 456 95 q 540 174 520 144 q 559 235 559 203 l 559 363 l 444 360 q 294 342 353 359 q 208 291 236 326 q 181 201 181 257 q 225 103 181 138 q 340 67 269 67 m 392 800 q 301 817 343 800 q 231 865 260 833 q 192 943 202 897 l 276 943 q 318 890 288 910 q 392 869 349 869 q 468 890 436 869 q 512 943 499 910 l 595 943 q 557 867 585 899 q 486 817 528 835 q 392 800 444 800 m 353 958 l 453 1123 l 563 1123 l 429 958 l 353 958 z "},"ặ":{"ha":763,"x_min":74,"x_max":664,"o":"m 310 -14 q 186 11 240 -14 q 104 81 133 35 q 74 192 74 127 q 156 369 74 311 q 421 431 238 426 l 559 435 l 559 495 q 517 607 559 565 q 385 649 474 649 q 270 618 319 649 q 208 519 221 587 l 109 519 q 147 634 113 586 q 242 707 181 681 q 390 732 304 732 q 541 706 480 732 q 633 628 601 680 q 664 500 664 576 l 664 0 l 571 0 l 563 138 q 454 19 520 53 q 310 -14 388 -14 m 340 67 q 417 81 378 67 q 488 119 456 95 q 540 174 520 144 q 559 235 559 203 l 559 363 l 444 360 q 294 342 353 359 q 208 291 236 326 q 181 201 181 257 q 225 103 181 138 q 340 67 269 67 m 333 -242 l 333 -128 l 446 -128 l 446 -242 l 333 -242 m 390 800 q 299 817 340 800 q 228 865 257 833 q 190 943 199 897 l 273 943 q 315 890 285 910 q 390 869 346 869 q 465 890 433 869 q 509 943 497 910 l 592 943 q 554 867 582 899 q 484 817 526 835 q 390 800 442 800 z "},"ằ":{"ha":763,"x_min":74,"x_max":664,"o":"m 310 -14 q 186 11 240 -14 q 104 81 133 35 q 74 192 74 127 q 156 369 74 311 q 421 431 238 426 l 559 435 l 559 495 q 517 607 559 565 q 385 649 474 649 q 270 618 319 649 q 208 519 221 587 l 109 519 q 147 634 113 586 q 242 707 181 681 q 390 732 304 732 q 541 706 480 732 q 633 628 601 680 q 664 500 664 576 l 664 0 l 571 0 l 563 138 q 454 19 520 53 q 310 -14 388 -14 m 340 67 q 417 81 378 67 q 488 119 456 95 q 540 174 520 144 q 559 235 559 203 l 559 363 l 444 360 q 294 342 353 359 q 208 291 236 326 q 181 201 181 257 q 225 103 181 138 q 340 67 269 67 m 392 800 q 301 817 343 800 q 231 865 260 833 q 192 943 202 897 l 276 943 q 318 890 288 910 q 392 869 349 869 q 468 890 436 869 q 512 943 499 910 l 595 943 q 557 867 585 899 q 486 817 528 835 q 392 800 444 800 m 364 957 l 220 1122 l 331 1122 l 441 957 l 364 957 z "},"ẳ":{"ha":763,"x_min":74,"x_max":664,"o":"m 310 -14 q 186 11 240 -14 q 104 81 133 35 q 74 192 74 127 q 156 369 74 311 q 421 431 238 426 l 559 435 l 559 495 q 517 607 559 565 q 385 649 474 649 q 270 618 319 649 q 208 519 221 587 l 109 519 q 147 634 113 586 q 242 707 181 681 q 390 732 304 732 q 541 706 480 732 q 633 628 601 680 q 664 500 664 576 l 664 0 l 571 0 l 563 138 q 454 19 520 53 q 310 -14 388 -14 m 340 67 q 417 81 378 67 q 488 119 456 95 q 540 174 520 144 q 559 235 559 203 l 559 363 l 444 360 q 294 342 353 359 q 208 291 236 326 q 181 201 181 257 q 225 103 181 138 q 340 67 269 67 m 392 800 q 301 817 343 800 q 231 865 260 833 q 192 943 202 897 l 276 943 q 318 890 288 910 q 392 869 349 869 q 468 890 436 869 q 512 943 499 910 l 595 943 q 557 867 585 899 q 486 817 528 835 q 392 800 444 800 m 399 940 l 365 994 q 408 1039 395 1013 q 406 1088 421 1065 q 362 1111 392 1112 q 303 1090 332 1110 l 268 1144 q 365 1176 317 1176 q 462 1126 428 1176 q 477 1026 495 1075 q 399 940 459 976 z "},"ẵ":{"ha":763,"x_min":74,"x_max":664,"o":"m 310 -14 q 186 11 240 -14 q 104 81 133 35 q 74 192 74 127 q 156 369 74 311 q 421 431 238 426 l 559 435 l 559 495 q 517 607 559 565 q 385 649 474 649 q 270 618 319 649 q 208 519 221 587 l 109 519 q 147 634 113 586 q 242 707 181 681 q 390 732 304 732 q 541 706 480 732 q 633 628 601 680 q 664 500 664 576 l 664 0 l 571 0 l 563 138 q 454 19 520 53 q 310 -14 388 -14 m 340 67 q 417 81 378 67 q 488 119 456 95 q 540 174 520 144 q 559 235 559 203 l 559 363 l 444 360 q 294 342 353 359 q 208 291 236 326 q 181 201 181 257 q 225 103 181 138 q 340 67 269 67 m 392 800 q 301 817 343 800 q 231 865 260 833 q 192 943 202 897 l 276 943 q 318 890 288 910 q 392 869 349 869 q 468 890 436 869 q 512 943 499 910 l 595 943 q 557 867 585 899 q 486 817 528 835 q 392 800 444 800 m 217 1028 l 195 1096 q 243 1130 217 1116 q 306 1144 268 1144 q 368 1135 339 1144 q 424 1116 397 1126 q 483 1107 452 1107 q 534 1117 513 1107 q 575 1143 555 1128 l 597 1068 q 552 1043 579 1056 q 482 1031 525 1031 q 418 1039 445 1031 q 367 1057 392 1048 q 312 1065 342 1065 q 258 1054 278 1065 q 217 1028 238 1042 z "},"â":{"ha":763,"x_min":74,"x_max":664,"o":"m 310 -14 q 186 11 240 -14 q 104 81 133 35 q 74 192 74 127 q 156 369 74 311 q 421 431 238 426 l 559 435 l 559 495 q 517 607 559 565 q 385 649 474 649 q 270 618 319 649 q 208 519 221 587 l 109 519 q 147 634 113 586 q 242 707 181 681 q 390 732 304 732 q 541 706 480 732 q 633 628 601 680 q 664 500 664 576 l 664 0 l 571 0 l 563 138 q 454 19 520 53 q 310 -14 388 -14 m 340 67 q 417 81 378 67 q 488 119 456 95 q 540 174 520 144 q 559 235 559 203 l 559 363 l 444 360 q 294 342 353 359 q 208 291 236 326 q 181 201 181 257 q 225 103 181 138 q 340 67 269 67 m 181 802 l 352 951 l 431 951 l 600 802 l 489 802 l 390 890 l 285 802 l 181 802 z "},"ấ":{"ha":763,"x_min":74,"x_max":720,"o":"m 310 -14 q 186 11 240 -14 q 104 81 133 35 q 74 192 74 127 q 156 369 74 311 q 421 431 238 426 l 559 435 l 559 495 q 517 607 559 565 q 385 649 474 649 q 270 618 319 649 q 208 519 221 587 l 109 519 q 147 634 113 586 q 242 707 181 681 q 390 732 304 732 q 541 706 480 732 q 633 628 601 680 q 664 500 664 576 l 664 0 l 571 0 l 563 138 q 454 19 520 53 q 310 -14 388 -14 m 340 67 q 417 81 378 67 q 488 119 456 95 q 540 174 520 144 q 559 235 559 203 l 559 363 l 444 360 q 294 342 353 359 q 208 291 236 326 q 181 201 181 257 q 225 103 181 138 q 340 67 269 67 m 181 802 l 352 951 l 431 951 l 600 802 l 489 802 l 390 890 l 285 802 l 181 802 m 510 951 l 610 1116 l 720 1116 l 585 951 l 510 951 z "},"ậ":{"ha":763,"x_min":74,"x_max":664,"o":"m 310 -14 q 186 11 240 -14 q 104 81 133 35 q 74 192 74 127 q 156 369 74 311 q 421 431 238 426 l 559 435 l 559 495 q 517 607 559 565 q 385 649 474 649 q 270 618 319 649 q 208 519 221 587 l 109 519 q 147 634 113 586 q 242 707 181 681 q 390 732 304 732 q 541 706 480 732 q 633 628 601 680 q 664 500 664 576 l 664 0 l 571 0 l 563 138 q 454 19 520 53 q 310 -14 388 -14 m 340 67 q 417 81 378 67 q 488 119 456 95 q 540 174 520 144 q 559 235 559 203 l 559 363 l 444 360 q 294 342 353 359 q 208 291 236 326 q 181 201 181 257 q 225 103 181 138 q 340 67 269 67 m 333 -242 l 333 -128 l 446 -128 l 446 -242 l 333 -242 m 181 802 l 352 951 l 431 951 l 600 802 l 489 802 l 390 890 l 285 802 l 181 802 z "},"ầ":{"ha":763,"x_min":74,"x_max":664,"o":"m 310 -14 q 186 11 240 -14 q 104 81 133 35 q 74 192 74 127 q 156 369 74 311 q 421 431 238 426 l 559 435 l 559 495 q 517 607 559 565 q 385 649 474 649 q 270 618 319 649 q 208 519 221 587 l 109 519 q 147 634 113 586 q 242 707 181 681 q 390 732 304 732 q 541 706 480 732 q 633 628 601 680 q 664 500 664 576 l 664 0 l 571 0 l 563 138 q 454 19 520 53 q 310 -14 388 -14 m 340 67 q 417 81 378 67 q 488 119 456 95 q 540 174 520 144 q 559 235 559 203 l 559 363 l 444 360 q 294 342 353 359 q 208 291 236 326 q 181 201 181 257 q 225 103 181 138 q 340 67 269 67 m 181 802 l 352 951 l 431 951 l 600 802 l 489 802 l 390 890 l 285 802 l 181 802 m 580 952 l 437 1117 l 547 1117 l 657 952 l 580 952 z "},"ẩ":{"ha":763,"x_min":74,"x_max":664,"o":"m 310 -14 q 186 11 240 -14 q 104 81 133 35 q 74 192 74 127 q 156 369 74 311 q 421 431 238 426 l 559 435 l 559 495 q 517 607 559 565 q 385 649 474 649 q 270 618 319 649 q 208 519 221 587 l 109 519 q 147 634 113 586 q 242 707 181 681 q 390 732 304 732 q 541 706 480 732 q 633 628 601 680 q 664 500 664 576 l 664 0 l 571 0 l 563 138 q 454 19 520 53 q 310 -14 388 -14 m 340 67 q 417 81 378 67 q 488 119 456 95 q 540 174 520 144 q 559 235 559 203 l 559 363 l 444 360 q 294 342 353 359 q 208 291 236 326 q 181 201 181 257 q 225 103 181 138 q 340 67 269 67 m 183 802 l 355 951 l 434 951 l 603 802 l 492 802 l 393 890 l 288 802 l 183 802 m 543 919 l 508 973 q 552 1018 539 992 q 550 1067 565 1044 q 506 1090 535 1091 q 447 1069 476 1089 l 412 1124 q 524 1154 469 1161 q 606 1105 578 1147 q 621 1005 639 1054 q 543 919 603 956 z "},"ẫ":{"ha":763,"x_min":74,"x_max":664,"o":"m 310 -14 q 186 11 240 -14 q 104 81 133 35 q 74 192 74 127 q 156 369 74 311 q 421 431 238 426 l 559 435 l 559 495 q 517 607 559 565 q 385 649 474 649 q 270 618 319 649 q 208 519 221 587 l 109 519 q 147 634 113 586 q 242 707 181 681 q 390 732 304 732 q 541 706 480 732 q 633 628 601 680 q 664 500 664 576 l 664 0 l 571 0 l 563 138 q 454 19 520 53 q 310 -14 388 -14 m 340 67 q 417 81 378 67 q 488 119 456 95 q 540 174 520 144 q 559 235 559 203 l 559 363 l 444 360 q 294 342 353 359 q 208 291 236 326 q 181 201 181 257 q 225 103 181 138 q 340 67 269 67 m 181 802 l 353 951 l 432 951 l 601 802 l 490 802 l 391 890 l 285 802 l 181 802 m 213 1030 l 191 1098 q 239 1132 213 1118 q 301 1147 264 1147 q 364 1137 335 1147 q 420 1118 392 1128 q 478 1109 448 1109 q 530 1119 508 1109 q 571 1145 551 1130 l 592 1070 q 548 1045 575 1058 q 478 1033 521 1033 q 414 1041 441 1033 q 363 1059 388 1050 q 308 1067 338 1067 q 253 1056 274 1067 q 213 1030 233 1044 z "},"ȁ":{"ha":763,"x_min":58,"x_max":664,"o":"m 310 -14 q 186 11 240 -14 q 104 81 133 35 q 74 192 74 127 q 156 369 74 311 q 421 431 238 426 l 559 435 l 559 495 q 517 607 559 565 q 385 649 474 649 q 270 618 319 649 q 208 519 221 587 l 109 519 q 147 634 113 586 q 242 707 181 681 q 390 732 304 732 q 541 706 480 732 q 633 628 601 680 q 664 500 664 576 l 664 0 l 571 0 l 563 138 q 454 19 520 53 q 310 -14 388 -14 m 340 67 q 417 81 378 67 q 488 119 456 95 q 540 174 520 144 q 559 235 559 203 l 559 363 l 444 360 q 294 342 353 359 q 208 291 236 326 q 181 201 181 257 q 225 103 181 138 q 340 67 269 67 m 257 802 l 58 1004 l 181 1004 l 343 802 l 257 802 m 437 802 l 267 1004 l 388 1004 l 523 802 l 437 802 z "},"ä":{"ha":763,"x_min":74,"x_max":664,"o":"m 310 -14 q 186 11 240 -14 q 104 81 133 35 q 74 192 74 127 q 156 369 74 311 q 421 431 238 426 l 559 435 l 559 495 q 517 607 559 565 q 385 649 474 649 q 270 618 319 649 q 208 519 221 587 l 109 519 q 147 634 113 586 q 242 707 181 681 q 390 732 304 732 q 541 706 480 732 q 633 628 601 680 q 664 500 664 576 l 664 0 l 571 0 l 563 138 q 454 19 520 53 q 310 -14 388 -14 m 340 67 q 417 81 378 67 q 488 119 456 95 q 540 174 520 144 q 559 235 559 203 l 559 363 l 444 360 q 294 342 353 359 q 208 291 236 326 q 181 201 181 257 q 225 103 181 138 q 340 67 269 67 m 465 891 l 465 1004 l 574 1004 l 573 891 l 465 891 m 209 891 l 210 1004 l 318 1004 l 317 891 l 209 891 z "},"ạ":{"ha":763,"x_min":74,"x_max":664,"o":"m 310 -14 q 186 11 240 -14 q 104 81 133 35 q 74 192 74 127 q 156 369 74 311 q 421 431 238 426 l 559 435 l 559 495 q 517 607 559 565 q 385 649 474 649 q 270 618 319 649 q 208 519 221 587 l 109 519 q 147 634 113 586 q 242 707 181 681 q 390 732 304 732 q 541 706 480 732 q 633 628 601 680 q 664 500 664 576 l 664 0 l 571 0 l 563 138 q 454 19 520 53 q 310 -14 388 -14 m 340 67 q 417 81 378 67 q 488 119 456 95 q 540 174 520 144 q 559 235 559 203 l 559 363 l 444 360 q 294 342 353 359 q 208 291 236 326 q 181 201 181 257 q 225 103 181 138 q 340 67 269 67 m 333 -242 l 333 -128 l 446 -128 l 446 -242 l 333 -242 z "},"à":{"ha":763,"x_min":74,"x_max":664,"o":"m 310 -14 q 186 11 240 -14 q 104 81 133 35 q 74 192 74 127 q 156 369 74 311 q 421 431 238 426 l 559 435 l 559 495 q 517 607 559 565 q 385 649 474 649 q 270 618 319 649 q 208 519 221 587 l 109 519 q 147 634 113 586 q 242 707 181 681 q 390 732 304 732 q 541 706 480 732 q 633 628 601 680 q 664 500 664 576 l 664 0 l 571 0 l 563 138 q 454 19 520 53 q 310 -14 388 -14 m 340 67 q 417 81 378 67 q 488 119 456 95 q 540 174 520 144 q 559 235 559 203 l 559 363 l 444 360 q 294 342 353 359 q 208 291 236 326 q 181 201 181 257 q 225 103 181 138 q 340 67 269 67 m 353 802 l 167 1004 l 296 1004 l 439 802 l 353 802 z "},"ả":{"ha":763,"x_min":74,"x_max":664,"o":"m 310 -14 q 186 11 240 -14 q 104 81 133 35 q 74 192 74 127 q 156 369 74 311 q 421 431 238 426 l 559 435 l 559 495 q 517 607 559 565 q 385 649 474 649 q 270 618 319 649 q 208 519 221 587 l 109 519 q 147 634 113 586 q 242 707 181 681 q 390 732 304 732 q 541 706 480 732 q 633 628 601 680 q 664 500 664 576 l 664 0 l 571 0 l 563 138 q 454 19 520 53 q 310 -14 388 -14 m 340 67 q 417 81 378 67 q 488 119 456 95 q 540 174 520 144 q 559 235 559 203 l 559 363 l 444 360 q 294 342 353 359 q 208 291 236 326 q 181 201 181 257 q 225 103 181 138 q 340 67 269 67 m 428 800 l 392 853 q 436 899 423 874 q 434 948 449 925 q 390 971 420 972 q 331 951 360 970 l 296 1005 q 408 1035 353 1042 q 490 985 462 1028 q 506 885 524 935 q 428 800 488 836 z "},"ȃ":{"ha":763,"x_min":74,"x_max":664,"o":"m 310 -14 q 186 11 240 -14 q 104 81 133 35 q 74 192 74 127 q 156 369 74 311 q 421 431 238 426 l 559 435 l 559 495 q 517 607 559 565 q 385 649 474 649 q 270 618 319 649 q 208 519 221 587 l 109 519 q 147 634 113 586 q 242 707 181 681 q 390 732 304 732 q 541 706 480 732 q 633 628 601 680 q 664 500 664 576 l 664 0 l 571 0 l 563 138 q 454 19 520 53 q 310 -14 388 -14 m 340 67 q 417 81 378 67 q 488 119 456 95 q 540 174 520 144 q 559 235 559 203 l 559 363 l 444 360 q 294 342 353 359 q 208 291 236 326 q 181 201 181 257 q 225 103 181 138 q 340 67 269 67 m 186 844 q 225 922 197 890 q 295 970 253 954 q 386 987 338 987 q 481 969 438 987 q 551 920 523 952 q 589 844 580 888 l 506 844 q 462 898 494 876 q 386 919 430 919 q 312 898 342 919 q 270 844 282 876 l 186 844 z "},"ā":{"ha":763,"x_min":74,"x_max":664,"o":"m 310 -14 q 186 11 240 -14 q 104 81 133 35 q 74 192 74 127 q 156 369 74 311 q 421 431 238 426 l 559 435 l 559 495 q 517 607 559 565 q 385 649 474 649 q 270 618 319 649 q 208 519 221 587 l 109 519 q 147 634 113 586 q 242 707 181 681 q 390 732 304 732 q 541 706 480 732 q 633 628 601 680 q 664 500 664 576 l 664 0 l 571 0 l 563 138 q 454 19 520 53 q 310 -14 388 -14 m 340 67 q 417 81 378 67 q 488 119 456 95 q 540 174 520 144 q 559 235 559 203 l 559 363 l 444 360 q 294 342 353 359 q 208 291 236 326 q 181 201 181 257 q 225 103 181 138 q 340 67 269 67 m 193 863 l 193 943 l 588 943 l 588 863 l 193 863 z "},"ą":{"ha":763,"x_min":74,"x_max":694,"o":"m 310 -14 q 186 11 240 -14 q 104 81 133 35 q 74 192 74 127 q 156 369 74 311 q 421 431 238 426 l 559 435 l 559 495 q 517 607 559 565 q 385 649 474 649 q 270 618 319 649 q 208 519 221 587 l 109 519 q 147 634 113 586 q 242 707 181 681 q 390 732 304 732 q 541 706 480 732 q 633 628 601 680 q 664 500 664 576 l 664 0 l 571 0 l 563 138 q 454 19 520 53 q 310 -14 388 -14 m 340 67 q 417 81 378 67 q 488 119 456 95 q 540 174 520 144 q 559 235 559 203 l 559 363 l 444 360 q 294 342 353 359 q 208 291 236 326 q 181 201 181 257 q 225 103 181 138 q 340 67 269 67 m 570 -228 q 469 -198 503 -228 q 436 -119 436 -169 q 466 -43 436 -76 q 581 16 497 -10 l 661 6 q 560 -50 592 -24 q 528 -112 528 -76 q 543 -151 528 -137 q 595 -164 559 -164 q 655 -156 629 -164 q 694 -140 681 -147 l 694 -201 q 644 -219 678 -210 q 570 -228 610 -228 z "},"å":{"ha":763,"x_min":74,"x_max":664,"o":"m 310 -14 q 186 11 240 -14 q 104 81 133 35 q 74 192 74 127 q 156 369 74 311 q 421 431 238 426 l 559 435 l 559 495 q 517 607 559 565 q 385 649 474 649 q 270 618 319 649 q 208 519 221 587 l 109 519 q 147 634 113 586 q 242 707 181 681 q 390 732 304 732 q 541 706 480 732 q 633 628 601 680 q 664 500 664 576 l 664 0 l 571 0 l 563 138 q 454 19 520 53 q 310 -14 388 -14 m 340 67 q 417 81 378 67 q 488 119 456 95 q 540 174 520 144 q 559 235 559 203 l 559 363 l 444 360 q 294 342 353 359 q 208 291 236 326 q 181 201 181 257 q 225 103 181 138 q 340 67 269 67 m 391 805 q 291 846 332 805 q 250 949 250 888 q 292 1045 250 1005 q 391 1085 333 1085 q 463 1066 431 1085 q 514 1016 494 1047 q 533 946 533 985 q 492 845 533 886 q 391 805 451 805 m 390 868 q 443 891 421 868 q 465 945 465 915 q 443 1000 465 978 q 390 1021 421 1021 q 336 1000 359 1021 q 313 945 313 978 q 336 891 313 915 q 390 868 359 868 z "},"ǻ":{"ha":763,"x_min":74,"x_max":664,"o":"m 474 1038 l 434 942 q 500 894 474 928 q 525 816 525 860 q 485 718 525 756 q 386 679 444 679 q 288 719 328 679 q 248 819 248 758 q 281 905 248 869 q 363 948 315 941 l 385 1038 l 474 1038 m 385 738 q 438 761 416 738 q 460 815 460 785 q 438 869 460 848 q 385 891 416 891 q 332 869 355 891 q 308 815 308 848 q 332 761 308 785 q 385 738 355 738 m 310 -14 q 186 11 240 -14 q 104 81 133 35 q 74 192 74 127 q 156 369 74 311 q 421 431 238 426 l 559 435 l 559 495 q 517 607 559 565 q 385 649 474 649 q 270 618 319 649 q 208 519 221 587 l 109 519 q 147 634 113 586 q 242 707 181 681 q 390 732 304 732 q 541 706 480 732 q 633 628 601 680 q 664 500 664 576 l 664 0 l 571 0 l 563 138 q 454 19 520 53 q 310 -14 388 -14 m 340 67 q 417 81 378 67 q 488 119 456 95 q 540 174 520 144 q 559 235 559 203 l 559 363 l 444 360 q 294 342 353 359 q 208 291 236 326 q 181 201 181 257 q 225 103 181 138 q 340 67 269 67 z "},"ã":{"ha":763,"x_min":74,"x_max":664,"o":"m 310 -14 q 186 11 240 -14 q 104 81 133 35 q 74 192 74 127 q 156 369 74 311 q 421 431 238 426 l 559 435 l 559 495 q 517 607 559 565 q 385 649 474 649 q 270 618 319 649 q 208 519 221 587 l 109 519 q 147 634 113 586 q 242 707 181 681 q 390 732 304 732 q 541 706 480 732 q 633 628 601 680 q 664 500 664 576 l 664 0 l 571 0 l 563 138 q 454 19 520 53 q 310 -14 388 -14 m 340 67 q 417 81 378 67 q 488 119 456 95 q 540 174 520 144 q 559 235 559 203 l 559 363 l 444 360 q 294 342 353 359 q 208 291 236 326 q 181 201 181 257 q 225 103 181 138 q 340 67 269 67 m 214 852 l 192 920 q 240 955 215 940 q 303 969 265 969 q 364 959 335 969 q 421 941 393 950 q 480 931 449 931 q 531 942 510 931 q 572 967 551 952 l 594 892 q 549 868 576 881 q 479 855 522 855 q 416 864 442 855 q 364 881 389 872 q 308 890 339 890 q 254 878 274 890 q 214 852 234 867 z "},"æ":{"ha":1269,"x_min":74,"x_max":1194,"o":"m 310 -14 q 186 11 240 -14 q 104 81 133 35 q 74 192 74 127 q 156 369 74 311 q 421 431 238 427 l 560 435 l 560 495 q 512 609 560 569 q 385 649 464 649 q 270 616 319 649 q 208 519 220 583 l 109 519 q 147 626 113 578 q 243 703 181 675 q 390 732 305 732 q 545 698 481 732 q 636 601 609 663 q 738 698 675 664 q 885 732 801 732 q 1053 689 985 732 q 1158 567 1122 647 q 1194 378 1194 488 l 1194 334 l 672 334 q 695 203 672 262 q 768 108 719 144 q 893 73 817 73 q 1019 107 966 73 q 1085 205 1072 142 l 1189 205 q 1132 84 1176 133 q 1025 11 1088 35 q 894 -14 963 -14 q 719 31 795 -14 q 603 160 643 76 q 544 68 588 107 q 439 8 500 29 q 310 -14 378 -14 m 340 67 q 455 98 406 67 q 530 173 503 128 q 557 260 557 218 l 556 363 l 444 360 q 295 342 353 359 q 209 291 237 326 q 181 201 181 257 q 225 103 181 138 q 340 67 269 67 m 672 411 l 1089 411 q 1067 531 1089 478 q 999 616 1044 585 q 885 647 954 647 q 764 612 811 647 q 694 523 717 577 q 672 411 672 469 z "},"ǽ":{"ha":1269,"x_min":74,"x_max":1194,"o":"m 310 -14 q 186 11 240 -14 q 104 81 133 35 q 74 192 74 127 q 156 369 74 311 q 421 431 238 427 l 560 435 l 560 495 q 512 609 560 569 q 385 649 464 649 q 270 616 319 649 q 208 519 220 583 l 109 519 q 147 626 113 578 q 243 703 181 675 q 390 732 305 732 q 545 698 481 732 q 636 601 609 663 q 738 698 675 664 q 885 732 801 732 q 1053 689 985 732 q 1158 567 1122 647 q 1194 378 1194 488 l 1194 334 l 672 334 q 695 203 672 262 q 768 108 719 144 q 893 73 817 73 q 1019 107 966 73 q 1085 205 1072 142 l 1189 205 q 1132 84 1176 133 q 1025 11 1088 35 q 894 -14 963 -14 q 719 31 795 -14 q 603 160 643 76 q 544 68 588 107 q 439 8 500 29 q 310 -14 378 -14 m 340 67 q 455 98 406 67 q 530 173 503 128 q 557 260 557 218 l 556 363 l 444 360 q 295 342 353 359 q 209 291 237 326 q 181 201 181 257 q 225 103 181 138 q 340 67 269 67 m 672 411 l 1089 411 q 1067 531 1089 478 q 999 616 1044 585 q 885 647 954 647 q 764 612 811 647 q 694 523 717 577 q 672 411 672 469 m 568 802 l 711 1004 l 840 1004 l 654 802 l 568 802 z "},"b":{"ha":824,"x_min":111,"x_max":757,"o":"m 454 -14 q 343 4 388 -14 q 271 48 299 22 q 228 101 243 74 q 208 147 214 128 l 197 0 l 111 0 l 111 1032 l 221 1032 l 221 600 q 247 638 228 616 q 294 682 265 660 q 365 718 323 703 q 461 732 406 732 q 676 639 596 732 q 757 362 757 546 q 723 164 757 249 q 623 33 690 80 q 454 -14 556 -14 m 437 72 q 589 144 531 72 q 647 369 647 215 q 593 572 647 498 q 434 645 540 645 q 310 612 357 645 q 243 517 264 579 q 221 369 222 456 q 270 142 221 212 q 437 72 319 72 z "},"c":{"ha":753,"x_min":68,"x_max":678,"o":"m 394 -14 q 224 28 298 -14 q 109 152 151 69 q 68 357 68 235 q 105 553 68 469 q 215 685 142 638 q 394 732 288 732 q 528 704 467 732 q 628 625 588 676 q 678 500 668 573 l 580 500 q 549 573 573 540 q 485 624 524 605 q 394 642 446 642 q 235 573 297 642 q 173 358 173 503 q 229 150 173 228 q 396 72 285 72 q 486 91 447 72 q 549 142 525 110 q 581 213 574 174 l 678 213 q 627 91 667 142 q 527 13 588 40 q 394 -14 467 -14 z "},"ć":{"ha":753,"x_min":68,"x_max":678,"o":"m 394 -14 q 224 28 298 -14 q 109 152 151 69 q 68 357 68 235 q 105 553 68 469 q 215 685 142 638 q 394 732 288 732 q 528 704 467 732 q 628 625 588 676 q 678 500 668 573 l 580 500 q 549 573 573 540 q 485 624 524 605 q 394 642 446 642 q 235 573 297 642 q 173 358 173 503 q 229 150 173 228 q 396 72 285 72 q 486 91 447 72 q 549 142 525 110 q 581 213 574 174 l 678 213 q 627 91 667 142 q 527 13 588 40 q 394 -14 467 -14 m 344 802 l 487 1004 l 616 1004 l 430 802 l 344 802 z "},"č":{"ha":753,"x_min":68,"x_max":678,"o":"m 394 -14 q 224 28 298 -14 q 109 152 151 69 q 68 357 68 235 q 105 553 68 469 q 215 685 142 638 q 394 732 288 732 q 528 704 467 732 q 628 625 588 676 q 678 500 668 573 l 580 500 q 549 573 573 540 q 485 624 524 605 q 394 642 446 642 q 235 573 297 642 q 173 358 173 503 q 229 150 173 228 q 396 72 285 72 q 486 91 447 72 q 549 142 525 110 q 581 213 574 174 l 678 213 q 627 91 667 142 q 527 13 588 40 q 394 -14 467 -14 m 356 802 l 183 952 l 289 952 l 394 861 l 493 952 l 604 952 l 435 802 l 356 802 z "},"ç":{"ha":753,"x_min":68,"x_max":678,"o":"m 369 -283 q 302 -275 333 -283 q 244 -249 272 -267 l 265 -199 q 304 -222 282 -212 q 356 -231 326 -231 q 414 -217 396 -231 q 433 -178 433 -203 q 407 -133 433 -148 q 324 -117 381 -118 q 316 -115 317 -117 q 316 -108 315 -112 l 367 7 l 428 7 l 395 -77 q 467 -95 441 -80 q 505 -133 494 -110 q 515 -178 515 -155 q 495 -236 515 -212 q 442 -271 475 -259 q 369 -283 408 -283 m 394 -14 q 224 28 298 -14 q 109 152 151 69 q 68 357 68 235 q 105 553 68 469 q 215 685 142 638 q 394 732 288 732 q 528 704 467 732 q 628 625 588 676 q 678 500 668 573 l 580 500 q 549 573 573 540 q 485 624 524 605 q 394 642 446 642 q 235 573 297 642 q 173 358 173 503 q 229 150 173 228 q 396 72 285 72 q 486 91 447 72 q 549 142 525 110 q 581 213 574 174 l 678 213 q 627 91 667 142 q 527 13 588 40 q 394 -14 467 -14 z "},"ĉ":{"ha":753,"x_min":68,"x_max":678,"o":"m 394 -14 q 224 28 298 -14 q 109 152 151 69 q 68 357 68 235 q 105 553 68 469 q 215 685 142 638 q 394 732 288 732 q 528 704 467 732 q 628 625 588 676 q 678 500 668 573 l 580 500 q 549 573 573 540 q 485 624 524 605 q 394 642 446 642 q 235 573 297 642 q 173 358 173 503 q 229 150 173 228 q 396 72 285 72 q 486 91 447 72 q 549 142 525 110 q 581 213 574 174 l 678 213 q 627 91 667 142 q 527 13 588 40 q 394 -14 467 -14 m 185 802 l 356 951 l 435 951 l 604 802 l 493 802 l 394 890 l 289 802 l 185 802 z "},"ċ":{"ha":753,"x_min":68,"x_max":678,"o":"m 394 -14 q 224 28 298 -14 q 109 152 151 69 q 68 357 68 235 q 105 553 68 469 q 215 685 142 638 q 394 732 288 732 q 528 704 467 732 q 628 625 588 676 q 678 500 668 573 l 580 500 q 549 573 573 540 q 485 624 524 605 q 394 642 446 642 q 235 573 297 642 q 173 358 173 503 q 229 150 173 228 q 396 72 285 72 q 486 91 447 72 q 549 142 525 110 q 581 213 574 174 l 678 213 q 627 91 667 142 q 527 13 588 40 q 394 -14 467 -14 m 338 891 l 338 1004 l 451 1004 l 451 891 l 338 891 z "},"d":{"ha":824,"x_min":68,"x_max":713,"o":"m 370 -14 q 150 81 232 -14 q 68 362 68 176 q 101 557 68 474 q 199 686 133 640 q 363 732 265 732 q 460 718 418 732 q 531 682 501 703 q 578 638 560 660 q 604 600 596 616 l 604 1032 l 713 1032 l 713 0 l 628 0 l 617 147 q 596 101 610 128 q 553 48 581 74 q 481 4 526 22 q 370 -14 436 -14 m 388 72 q 555 142 505 72 q 604 369 604 212 q 582 517 603 456 q 514 612 560 579 q 390 645 468 645 q 237 578 296 645 q 178 369 178 512 q 231 151 178 230 q 388 72 283 72 z "},"ð":{"ha":782,"x_min":68,"x_max":715,"o":"m 391 -14 q 211 35 283 -14 q 103 167 139 83 q 68 353 68 250 q 90 507 68 438 q 153 624 112 575 q 254 699 194 673 q 388 725 313 725 q 570 667 502 725 q 657 515 638 608 l 566 604 q 516 743 550 678 q 438 861 481 807 q 351 957 395 915 q 269 1028 306 999 l 376 1028 q 498 918 438 982 q 607 772 558 854 q 685 588 656 690 q 715 365 715 487 q 680 170 715 256 q 573 35 644 84 q 391 -14 501 -14 m 393 74 q 515 111 468 74 q 584 212 562 148 q 606 356 606 276 q 552 566 606 493 q 395 639 497 639 q 230 561 284 639 q 176 356 176 483 q 197 216 176 281 q 266 113 218 151 q 393 74 313 74 m 253 798 l 235 859 l 656 988 l 674 926 l 253 798 z "},"ď":{"ha":813,"x_min":68,"x_max":902,"o":"m 370 -14 q 150 81 232 -14 q 68 362 68 176 q 101 557 68 474 q 199 686 133 640 q 363 732 265 732 q 460 718 418 732 q 531 682 501 703 q 578 638 560 660 q 604 600 596 616 l 604 1032 l 713 1032 l 713 0 l 628 0 l 617 147 q 596 101 610 128 q 553 48 581 74 q 481 4 526 22 q 370 -14 436 -14 m 388 72 q 555 142 505 72 q 604 369 604 212 q 582 517 603 456 q 514 612 560 579 q 390 645 468 645 q 237 578 296 645 q 178 369 178 512 q 231 151 178 230 q 388 72 283 72 m 788 772 l 840 896 l 805 903 l 805 1032 l 902 1032 l 902 897 l 849 772 l 788 772 z "},"đ":{"ha":849,"x_min":68,"x_max":807,"o":"m 389 833 l 389 905 l 807 905 l 807 833 l 389 833 m 370 -14 q 150 81 232 -14 q 68 362 68 176 q 101 557 68 474 q 199 686 133 640 q 363 732 265 732 q 460 718 418 732 q 531 682 501 703 q 578 638 560 660 q 604 600 596 616 l 604 1032 l 713 1032 l 713 0 l 628 0 l 617 147 q 596 101 610 128 q 553 48 581 74 q 481 4 526 22 q 370 -14 436 -14 m 388 72 q 555 142 505 72 q 604 369 604 212 q 582 517 603 456 q 514 612 560 579 q 390 645 468 645 q 237 578 296 645 q 178 369 178 512 q 231 151 178 230 q 388 72 283 72 z "},"ḍ":{"ha":824,"x_min":68,"x_max":713,"o":"m 370 -14 q 150 81 232 -14 q 68 362 68 176 q 101 557 68 474 q 199 686 133 640 q 363 732 265 732 q 460 718 418 732 q 531 682 501 703 q 578 638 560 660 q 604 600 596 616 l 604 1032 l 713 1032 l 713 0 l 628 0 l 617 147 q 596 101 610 128 q 553 48 581 74 q 481 4 526 22 q 370 -14 436 -14 m 388 72 q 555 142 505 72 q 604 369 604 212 q 582 517 603 456 q 514 612 560 579 q 390 645 468 645 q 237 578 296 645 q 178 369 178 512 q 231 151 178 230 q 388 72 283 72 m 322 -242 l 322 -128 l 435 -128 l 435 -242 l 322 -242 z "},"e":{"ha":783,"x_min":74,"x_max":708,"o":"m 408 -14 q 234 30 310 -14 q 117 155 159 73 q 74 352 74 237 q 113 552 74 467 q 224 685 151 638 q 399 732 297 732 q 567 689 499 732 q 672 567 636 647 q 708 378 708 488 l 708 334 l 185 334 q 209 203 185 262 q 282 108 233 144 q 406 73 331 73 q 533 107 480 73 q 599 205 585 142 l 703 205 q 645 84 690 133 q 539 11 601 35 q 408 -14 476 -14 m 186 411 l 603 411 q 581 531 603 478 q 513 616 558 585 q 398 647 467 647 q 278 612 325 647 q 208 523 231 577 q 186 411 185 469 z "},"é":{"ha":783,"x_min":74,"x_max":708,"o":"m 408 -14 q 234 30 310 -14 q 117 155 159 73 q 74 352 74 237 q 113 552 74 467 q 224 685 151 638 q 399 732 297 732 q 567 689 499 732 q 672 567 636 647 q 708 378 708 488 l 708 334 l 185 334 q 209 203 185 262 q 282 108 233 144 q 406 73 331 73 q 533 107 480 73 q 599 205 585 142 l 703 205 q 645 84 690 133 q 539 11 601 35 q 408 -14 476 -14 m 186 411 l 603 411 q 581 531 603 478 q 513 616 558 585 q 398 647 467 647 q 278 612 325 647 q 208 523 231 577 q 186 411 185 469 m 349 802 l 492 1004 l 621 1004 l 435 802 l 349 802 z "},"ĕ":{"ha":783,"x_min":74,"x_max":708,"o":"m 408 -14 q 234 30 310 -14 q 117 155 159 73 q 74 352 74 237 q 113 552 74 467 q 224 685 151 638 q 399 732 297 732 q 567 689 499 732 q 672 567 636 647 q 708 378 708 488 l 708 334 l 185 334 q 209 203 185 262 q 282 108 233 144 q 406 73 331 73 q 533 107 480 73 q 599 205 585 142 l 703 205 q 645 84 690 133 q 539 11 601 35 q 408 -14 476 -14 m 186 411 l 603 411 q 581 531 603 478 q 513 616 558 585 q 398 647 467 647 q 278 612 325 647 q 208 523 231 577 q 186 411 185 469 m 398 800 q 307 817 349 800 q 236 865 265 833 q 198 943 208 897 l 281 943 q 324 890 293 910 q 398 869 354 869 q 473 890 442 869 q 517 943 505 910 l 601 943 q 562 867 590 899 q 492 817 534 835 q 398 800 450 800 z "},"ě":{"ha":780,"x_min":74,"x_max":708,"o":"m 408 -14 q 234 30 310 -14 q 117 155 159 73 q 74 352 74 237 q 113 552 74 467 q 224 685 151 638 q 399 732 297 732 q 567 689 499 732 q 672 567 636 647 q 708 378 708 488 l 708 334 l 185 334 q 209 203 185 262 q 282 108 233 144 q 406 73 331 73 q 533 107 480 73 q 599 205 585 142 l 703 205 q 645 84 690 133 q 539 11 601 35 q 408 -14 476 -14 m 186 411 l 603 411 q 581 531 603 478 q 513 616 558 585 q 398 647 467 647 q 278 612 325 647 q 208 523 231 577 q 186 411 185 469 m 358 802 l 185 952 l 291 952 l 397 861 l 495 952 l 606 952 l 438 802 l 358 802 z "},"ê":{"ha":783,"x_min":74,"x_max":708,"o":"m 408 -14 q 234 30 310 -14 q 117 155 159 73 q 74 352 74 237 q 113 552 74 467 q 224 685 151 638 q 399 732 297 732 q 567 689 499 732 q 672 567 636 647 q 708 378 708 488 l 708 334 l 185 334 q 209 203 185 262 q 282 108 233 144 q 406 73 331 73 q 533 107 480 73 q 599 205 585 142 l 703 205 q 645 84 690 133 q 539 11 601 35 q 408 -14 476 -14 m 186 411 l 603 411 q 581 531 603 478 q 513 616 558 585 q 398 647 467 647 q 278 612 325 647 q 208 523 231 577 q 186 411 185 469 m 190 802 l 361 951 l 440 951 l 609 802 l 498 802 l 399 890 l 294 802 l 190 802 z "},"ế":{"ha":783,"x_min":74,"x_max":729,"o":"m 408 -14 q 234 30 310 -14 q 117 155 159 73 q 74 352 74 237 q 113 552 74 467 q 224 685 151 638 q 399 732 297 732 q 567 689 499 732 q 672 567 636 647 q 708 378 708 488 l 708 334 l 185 334 q 209 203 185 262 q 282 108 233 144 q 406 73 331 73 q 533 107 480 73 q 599 205 585 142 l 703 205 q 645 84 690 133 q 539 11 601 35 q 408 -14 476 -14 m 186 411 l 603 411 q 581 531 603 478 q 513 616 558 585 q 398 647 467 647 q 278 612 325 647 q 208 523 231 577 q 186 411 185 469 m 190 802 l 361 951 l 440 951 l 609 802 l 498 802 l 399 890 l 294 802 l 190 802 m 519 951 l 619 1116 l 729 1116 l 594 951 l 519 951 z "},"ệ":{"ha":783,"x_min":74,"x_max":708,"o":"m 408 -14 q 234 30 310 -14 q 117 155 159 73 q 74 352 74 237 q 113 552 74 467 q 224 685 151 638 q 399 732 297 732 q 567 689 499 732 q 672 567 636 647 q 708 378 708 488 l 708 334 l 185 334 q 209 203 185 262 q 282 108 233 144 q 406 73 331 73 q 533 107 480 73 q 599 205 585 142 l 703 205 q 645 84 690 133 q 539 11 601 35 q 408 -14 476 -14 m 186 411 l 603 411 q 581 531 603 478 q 513 616 558 585 q 398 647 467 647 q 278 612 325 647 q 208 523 231 577 q 186 411 185 469 m 343 -242 l 343 -128 l 456 -128 l 456 -242 l 343 -242 m 190 802 l 361 951 l 440 951 l 609 802 l 498 802 l 399 890 l 294 802 l 190 802 z "},"ề":{"ha":783,"x_min":74,"x_max":708,"o":"m 408 -14 q 234 30 310 -14 q 117 155 159 73 q 74 352 74 237 q 113 552 74 467 q 224 685 151 638 q 399 732 297 732 q 567 689 499 732 q 672 567 636 647 q 708 378 708 488 l 708 334 l 185 334 q 209 203 185 262 q 282 108 233 144 q 406 73 331 73 q 533 107 480 73 q 599 205 585 142 l 703 205 q 645 84 690 133 q 539 11 601 35 q 408 -14 476 -14 m 186 411 l 603 411 q 581 531 603 478 q 513 616 558 585 q 398 647 467 647 q 278 612 325 647 q 208 523 231 577 q 186 411 185 469 m 190 802 l 361 951 l 440 951 l 609 802 l 498 802 l 399 890 l 294 802 l 190 802 m 589 952 l 446 1117 l 556 1117 l 666 952 l 589 952 z "},"ể":{"ha":783,"x_min":74,"x_max":708,"o":"m 408 -14 q 234 30 310 -14 q 117 155 159 73 q 74 352 74 237 q 113 552 74 467 q 224 685 151 638 q 399 732 297 732 q 567 689 499 732 q 672 567 636 647 q 708 378 708 488 l 708 334 l 185 334 q 209 203 185 262 q 282 108 233 144 q 406 73 331 73 q 533 107 480 73 q 599 205 585 142 l 703 205 q 645 84 690 133 q 539 11 601 35 q 408 -14 476 -14 m 186 411 l 603 411 q 581 531 603 478 q 513 616 558 585 q 398 647 467 647 q 278 612 325 647 q 208 523 231 577 q 186 411 185 469 m 192 802 l 364 951 l 443 951 l 612 802 l 501 802 l 402 890 l 297 802 l 192 802 m 552 919 l 517 973 q 561 1018 548 992 q 559 1067 574 1044 q 515 1090 544 1091 q 456 1069 485 1089 l 421 1124 q 533 1154 478 1161 q 615 1105 587 1147 q 630 1005 648 1054 q 552 919 612 956 z "},"ễ":{"ha":783,"x_min":74,"x_max":708,"o":"m 408 -14 q 234 30 310 -14 q 117 155 159 73 q 74 352 74 237 q 113 552 74 467 q 224 685 151 638 q 399 732 297 732 q 567 689 499 732 q 672 567 636 647 q 708 378 708 488 l 708 334 l 185 334 q 209 203 185 262 q 282 108 233 144 q 406 73 331 73 q 533 107 480 73 q 599 205 585 142 l 703 205 q 645 84 690 133 q 539 11 601 35 q 408 -14 476 -14 m 186 411 l 603 411 q 581 531 603 478 q 513 616 558 585 q 398 647 467 647 q 278 612 325 647 q 208 523 231 577 q 186 411 185 469 m 190 802 l 362 951 l 441 951 l 610 802 l 499 802 l 400 890 l 294 802 l 190 802 m 222 1030 l 200 1098 q 248 1132 222 1118 q 310 1147 273 1147 q 373 1137 344 1147 q 429 1118 401 1128 q 488 1109 457 1109 q 539 1119 517 1109 q 580 1145 560 1130 l 601 1070 q 557 1045 584 1058 q 487 1033 530 1033 q 423 1041 450 1033 q 372 1059 397 1050 q 317 1067 347 1067 q 263 1056 283 1067 q 222 1030 242 1044 z "},"ȅ":{"ha":783,"x_min":67,"x_max":708,"o":"m 408 -14 q 234 30 310 -14 q 117 155 159 73 q 74 352 74 237 q 113 552 74 467 q 224 685 151 638 q 399 732 297 732 q 567 689 499 732 q 672 567 636 647 q 708 378 708 488 l 708 334 l 185 334 q 209 203 185 262 q 282 108 233 144 q 406 73 331 73 q 533 107 480 73 q 599 205 585 142 l 703 205 q 645 84 690 133 q 539 11 601 35 q 408 -14 476 -14 m 186 411 l 603 411 q 581 531 603 478 q 513 616 558 585 q 398 647 467 647 q 278 612 325 647 q 208 523 231 577 q 186 411 185 469 m 266 802 l 67 1004 l 190 1004 l 352 802 l 266 802 m 446 802 l 276 1004 l 397 1004 l 532 802 l 446 802 z "},"ë":{"ha":783,"x_min":74,"x_max":708,"o":"m 408 -14 q 234 30 310 -14 q 117 155 159 73 q 74 352 74 237 q 113 552 74 467 q 224 685 151 638 q 399 732 297 732 q 567 689 499 732 q 672 567 636 647 q 708 378 708 488 l 708 334 l 185 334 q 209 203 185 262 q 282 108 233 144 q 406 73 331 73 q 533 107 480 73 q 599 205 585 142 l 703 205 q 645 84 690 133 q 539 11 601 35 q 408 -14 476 -14 m 186 411 l 603 411 q 581 531 603 478 q 513 616 558 585 q 398 647 467 647 q 278 612 325 647 q 208 523 231 577 q 186 411 185 469 m 473 891 l 474 1004 l 582 1004 l 581 891 l 473 891 m 217 891 l 218 1004 l 326 1004 l 326 891 l 217 891 z "},"ė":{"ha":783,"x_min":74,"x_max":708,"o":"m 408 -14 q 234 30 310 -14 q 117 155 159 73 q 74 352 74 237 q 113 552 74 467 q 224 685 151 638 q 399 732 297 732 q 567 689 499 732 q 672 567 636 647 q 708 378 708 488 l 708 334 l 185 334 q 209 203 185 262 q 282 108 233 144 q 406 73 331 73 q 533 107 480 73 q 599 205 585 142 l 703 205 q 645 84 690 133 q 539 11 601 35 q 408 -14 476 -14 m 186 411 l 603 411 q 581 531 603 478 q 513 616 558 585 q 398 647 467 647 q 278 612 325 647 q 208 523 231 577 q 186 411 185 469 m 343 891 l 343 1004 l 456 1004 l 456 891 l 343 891 z "},"ẹ":{"ha":783,"x_min":74,"x_max":708,"o":"m 408 -14 q 234 30 310 -14 q 117 155 159 73 q 74 352 74 237 q 113 552 74 467 q 224 685 151 638 q 399 732 297 732 q 567 689 499 732 q 672 567 636 647 q 708 378 708 488 l 708 334 l 185 334 q 209 203 185 262 q 282 108 233 144 q 406 73 331 73 q 533 107 480 73 q 599 205 585 142 l 703 205 q 645 84 690 133 q 539 11 601 35 q 408 -14 476 -14 m 186 411 l 603 411 q 581 531 603 478 q 513 616 558 585 q 398 647 467 647 q 278 612 325 647 q 208 523 231 577 q 186 411 185 469 m 343 -242 l 343 -128 l 456 -128 l 456 -242 l 343 -242 z "},"è":{"ha":783,"x_min":74,"x_max":708,"o":"m 408 -14 q 234 30 310 -14 q 117 155 159 73 q 74 352 74 237 q 113 552 74 467 q 224 685 151 638 q 399 732 297 732 q 567 689 499 732 q 672 567 636 647 q 708 378 708 488 l 708 334 l 185 334 q 209 203 185 262 q 282 108 233 144 q 406 73 331 73 q 533 107 480 73 q 599 205 585 142 l 703 205 q 645 84 690 133 q 539 11 601 35 q 408 -14 476 -14 m 186 411 l 603 411 q 581 531 603 478 q 513 616 558 585 q 398 647 467 647 q 278 612 325 647 q 208 523 231 577 q 186 411 185 469 m 361 802 l 175 1004 l 304 1004 l 447 802 l 361 802 z "},"ẻ":{"ha":783,"x_min":74,"x_max":708,"o":"m 408 -14 q 234 30 310 -14 q 117 155 159 73 q 74 352 74 237 q 113 552 74 467 q 224 685 151 638 q 399 732 297 732 q 567 689 499 732 q 672 567 636 647 q 708 378 708 488 l 708 334 l 185 334 q 209 203 185 262 q 282 108 233 144 q 406 73 331 73 q 533 107 480 73 q 599 205 585 142 l 703 205 q 645 84 690 133 q 539 11 601 35 q 408 -14 476 -14 m 186 411 l 603 411 q 581 531 603 478 q 513 616 558 585 q 398 647 467 647 q 278 612 325 647 q 208 523 231 577 q 186 411 185 469 m 437 800 l 401 853 q 445 899 432 874 q 443 948 458 925 q 399 971 429 972 q 340 951 369 970 l 305 1005 q 417 1035 363 1042 q 499 985 471 1028 q 515 885 533 935 q 437 800 497 836 z "},"ȇ":{"ha":783,"x_min":74,"x_max":708,"o":"m 408 -14 q 234 30 310 -14 q 117 155 159 73 q 74 352 74 237 q 113 552 74 467 q 224 685 151 638 q 399 732 297 732 q 567 689 499 732 q 672 567 636 647 q 708 378 708 488 l 708 334 l 185 334 q 209 203 185 262 q 282 108 233 144 q 406 73 331 73 q 533 107 480 73 q 599 205 585 142 l 703 205 q 645 84 690 133 q 539 11 601 35 q 408 -14 476 -14 m 186 411 l 603 411 q 581 531 603 478 q 513 616 558 585 q 398 647 467 647 q 278 612 325 647 q 208 523 231 577 q 186 411 185 469 m 194 844 q 233 922 205 890 q 304 970 262 954 q 394 987 346 987 q 489 969 447 987 q 560 920 531 952 q 597 844 588 888 l 515 844 q 470 898 502 876 q 394 919 438 919 q 320 898 351 919 q 278 844 290 876 l 194 844 z "},"ē":{"ha":783,"x_min":74,"x_max":708,"o":"m 408 -14 q 234 30 310 -14 q 117 155 159 73 q 74 352 74 237 q 113 552 74 467 q 224 685 151 638 q 399 732 297 732 q 567 689 499 732 q 672 567 636 647 q 708 378 708 488 l 708 334 l 185 334 q 209 203 185 262 q 282 108 233 144 q 406 73 331 73 q 533 107 480 73 q 599 205 585 142 l 703 205 q 645 84 690 133 q 539 11 601 35 q 408 -14 476 -14 m 186 411 l 603 411 q 581 531 603 478 q 513 616 558 585 q 398 647 467 647 q 278 612 325 647 q 208 523 231 577 q 186 411 185 469 m 202 863 l 202 943 l 597 943 l 597 863 l 202 863 z "},"ę":{"ha":783,"x_min":74,"x_max":708,"o":"m 463 -218 q 363 -189 396 -218 q 329 -110 329 -159 q 342 -57 329 -81 q 386 -12 354 -33 q 224 36 294 -8 q 114 161 153 81 q 74 352 74 241 q 113 552 74 467 q 224 685 151 638 q 399 732 297 732 q 567 689 499 732 q 672 567 636 647 q 708 378 708 488 l 708 334 l 185 334 q 209 203 185 262 q 282 108 233 144 q 406 73 331 73 q 533 107 480 73 q 599 205 585 142 l 703 205 q 647 88 690 133 q 539 11 603 42 q 449 -43 478 -17 q 420 -102 420 -69 q 436 -141 420 -128 q 488 -155 452 -155 q 548 -146 522 -155 q 588 -131 574 -137 l 588 -191 q 536 -209 571 -201 q 463 -218 502 -218 m 186 411 l 603 411 q 581 531 603 478 q 513 616 558 585 q 398 647 467 647 q 278 612 325 647 q 208 523 231 577 q 186 411 185 469 z "},"ẽ":{"ha":783,"x_min":74,"x_max":708,"o":"m 408 -14 q 234 30 310 -14 q 117 155 159 73 q 74 352 74 237 q 113 552 74 467 q 224 685 151 638 q 399 732 297 732 q 567 689 499 732 q 672 567 636 647 q 708 378 708 488 l 708 334 l 185 334 q 209 203 185 262 q 282 108 233 144 q 406 73 331 73 q 533 107 480 73 q 599 205 585 142 l 703 205 q 645 84 690 133 q 539 11 601 35 q 408 -14 476 -14 m 186 411 l 603 411 q 581 531 603 478 q 513 616 558 585 q 398 647 467 647 q 278 612 325 647 q 208 523 231 577 q 186 411 185 469 m 222 852 l 201 920 q 248 955 223 940 q 311 969 274 969 q 373 959 344 969 q 430 941 401 950 q 488 931 458 931 q 539 942 518 931 q 581 967 560 952 l 602 892 q 558 868 585 881 q 488 855 531 855 q 424 864 451 855 q 372 881 397 872 q 317 890 347 890 q 263 878 283 890 q 222 852 242 867 z "},"ə":{"ha":783,"x_min":75,"x_max":709,"o":"m 384 -14 q 216 29 285 -14 q 111 151 147 72 q 75 340 75 231 l 75 385 l 599 385 q 575 516 599 456 q 502 610 551 575 q 377 645 453 645 q 251 611 303 645 q 185 513 199 577 l 81 513 q 139 635 94 586 q 245 708 183 683 q 375 732 307 732 q 549 689 474 732 q 667 563 624 645 q 709 366 709 481 q 671 166 709 251 q 560 33 633 81 q 384 -14 488 -14 m 385 72 q 506 107 458 72 q 575 196 553 142 q 598 307 598 250 l 181 307 q 203 187 181 240 q 270 102 225 133 q 385 72 316 72 z "},"f":{"ha":550,"x_min":54,"x_max":507,"o":"m 211 0 l 211 637 l 54 637 l 54 718 l 211 718 l 211 832 q 252 960 211 917 q 380 1004 294 1004 l 507 1004 l 507 925 l 397 925 q 334 900 351 925 q 318 826 318 876 l 318 718 l 500 718 l 500 637 l 319 637 l 319 0 l 211 0 z "},"g":{"ha":863,"x_min":58,"x_max":800,"o":"m 408 -237 q 151 -189 244 -237 q 58 -45 58 -140 q 76 23 58 -6 q 119 69 94 51 q 165 100 144 88 q 193 117 186 111 q 164 134 181 124 q 135 161 148 144 q 123 203 123 177 q 154 263 123 235 q 244 304 185 290 q 148 388 183 336 q 113 501 113 440 q 149 622 113 571 q 253 701 185 674 q 418 729 322 729 q 535 713 488 729 q 624 665 583 697 q 658 680 634 670 q 710 701 681 690 q 763 723 738 713 q 800 739 787 733 l 799 631 l 673 606 q 692 555 685 582 q 699 502 699 527 q 667 387 699 438 q 570 307 635 336 q 407 278 505 278 q 389 278 399 278 q 372 278 379 278 q 258 260 288 276 q 227 226 227 244 q 258 196 227 205 q 367 182 290 188 q 435 178 395 181 q 525 173 475 176 q 693 117 633 167 q 753 -19 753 68 q 668 -176 753 -115 q 408 -237 583 -237 m 427 -163 q 588 -131 531 -163 q 646 -33 646 -99 q 612 43 646 13 q 509 77 578 72 l 297 90 q 241 76 272 92 q 189 32 210 60 q 167 -33 167 3 q 231 -128 167 -94 q 427 -163 294 -163 m 410 351 q 544 389 493 351 q 595 501 595 426 q 544 618 595 578 q 410 658 493 658 q 273 618 325 658 q 222 501 222 578 q 271 391 222 430 q 410 351 320 351 z "},"ğ":{"ha":863,"x_min":58,"x_max":800,"o":"m 408 -237 q 151 -189 244 -237 q 58 -45 58 -140 q 76 23 58 -6 q 119 69 94 51 q 165 100 144 88 q 193 117 186 111 q 164 134 181 124 q 135 161 148 144 q 123 203 123 177 q 154 263 123 235 q 244 304 185 290 q 148 388 183 336 q 113 501 113 440 q 149 622 113 571 q 253 701 185 674 q 418 729 322 729 q 535 713 488 729 q 624 665 583 697 q 658 680 634 670 q 710 701 681 690 q 763 723 738 713 q 800 739 787 733 l 799 631 l 673 606 q 692 555 685 582 q 699 502 699 527 q 667 387 699 438 q 570 307 635 336 q 407 278 505 278 q 389 278 399 278 q 372 278 379 278 q 258 260 288 276 q 227 226 227 244 q 258 196 227 205 q 367 182 290 188 q 435 178 395 181 q 525 173 475 176 q 693 117 633 167 q 753 -19 753 68 q 668 -176 753 -115 q 408 -237 583 -237 m 427 -163 q 588 -131 531 -163 q 646 -33 646 -99 q 612 43 646 13 q 509 77 578 72 l 297 90 q 241 76 272 92 q 189 32 210 60 q 167 -33 167 3 q 231 -128 167 -94 q 427 -163 294 -163 m 410 351 q 544 389 493 351 q 595 501 595 426 q 544 618 595 578 q 410 658 493 658 q 273 618 325 658 q 222 501 222 578 q 271 391 222 430 q 410 351 320 351 m 414 800 q 323 817 365 800 q 252 865 281 833 q 214 943 224 897 l 297 943 q 340 890 309 910 q 414 869 370 869 q 489 890 458 869 q 533 943 521 910 l 617 943 q 578 867 606 899 q 508 817 550 835 q 414 800 466 800 z "},"ĝ":{"ha":863,"x_min":58,"x_max":800,"o":"m 408 -237 q 151 -189 244 -237 q 58 -45 58 -140 q 76 23 58 -6 q 119 69 94 51 q 165 100 144 88 q 193 117 186 111 q 164 134 181 124 q 135 161 148 144 q 123 203 123 177 q 154 263 123 235 q 244 304 185 290 q 148 388 183 336 q 113 501 113 440 q 149 622 113 571 q 253 701 185 674 q 418 729 322 729 q 535 713 488 729 q 624 665 583 697 q 658 680 634 670 q 710 701 681 690 q 763 723 738 713 q 800 739 787 733 l 799 631 l 673 606 q 692 555 685 582 q 699 502 699 527 q 667 387 699 438 q 570 307 635 336 q 407 278 505 278 q 389 278 399 278 q 372 278 379 278 q 258 260 288 276 q 227 226 227 244 q 258 196 227 205 q 367 182 290 188 q 435 178 395 181 q 525 173 475 176 q 693 117 633 167 q 753 -19 753 68 q 668 -176 753 -115 q 408 -237 583 -237 m 427 -163 q 588 -131 531 -163 q 646 -33 646 -99 q 612 43 646 13 q 509 77 578 72 l 297 90 q 241 76 272 92 q 189 32 210 60 q 167 -33 167 3 q 231 -128 167 -94 q 427 -163 294 -163 m 410 351 q 544 389 493 351 q 595 501 595 426 q 544 618 595 578 q 410 658 493 658 q 273 618 325 658 q 222 501 222 578 q 271 391 222 430 q 410 351 320 351 m 206 802 l 377 951 l 456 951 l 625 802 l 514 802 l 415 890 l 310 802 l 206 802 z "},"ģ":{"ha":863,"x_min":58,"x_max":800,"o":"m 408 -237 q 151 -189 244 -237 q 58 -45 58 -140 q 76 23 58 -6 q 119 69 94 51 q 165 100 144 88 q 193 117 186 111 q 164 134 181 124 q 135 161 148 144 q 123 203 123 177 q 154 263 123 235 q 244 304 185 290 q 148 388 183 336 q 113 501 113 440 q 149 622 113 571 q 253 701 185 674 q 418 729 322 729 q 535 713 488 729 q 624 665 583 697 q 658 680 634 670 q 710 701 681 690 q 763 723 738 713 q 800 739 787 733 l 799 631 l 673 606 q 692 555 685 582 q 699 502 699 527 q 667 387 699 438 q 570 307 635 336 q 407 278 505 278 q 389 278 399 278 q 372 278 379 278 q 258 260 288 276 q 227 226 227 244 q 258 196 227 205 q 367 182 290 188 q 435 178 395 181 q 525 173 475 176 q 693 117 633 167 q 753 -19 753 68 q 668 -176 753 -115 q 408 -237 583 -237 m 427 -163 q 588 -131 531 -163 q 646 -33 646 -99 q 612 43 646 13 q 509 77 578 72 l 297 90 q 241 76 272 92 q 189 32 210 60 q 167 -33 167 3 q 231 -128 167 -94 q 427 -163 294 -163 m 410 351 q 544 389 493 351 q 595 501 595 426 q 544 618 595 578 q 410 658 493 658 q 273 618 325 658 q 222 501 222 578 q 271 391 222 430 q 410 351 320 351 m 358 802 l 358 922 l 425 1028 l 480 1028 l 429 927 l 469 924 l 469 802 l 358 802 z "},"ġ":{"ha":863,"x_min":58,"x_max":800,"o":"m 408 -237 q 151 -189 244 -237 q 58 -45 58 -140 q 76 23 58 -6 q 119 69 94 51 q 165 100 144 88 q 193 117 186 111 q 164 134 181 124 q 135 161 148 144 q 123 203 123 177 q 154 263 123 235 q 244 304 185 290 q 148 388 183 336 q 113 501 113 440 q 149 622 113 571 q 253 701 185 674 q 418 729 322 729 q 535 713 488 729 q 624 665 583 697 q 658 680 634 670 q 710 701 681 690 q 763 723 738 713 q 800 739 787 733 l 799 631 l 673 606 q 692 555 685 582 q 699 502 699 527 q 667 387 699 438 q 570 307 635 336 q 407 278 505 278 q 389 278 399 278 q 372 278 379 278 q 258 260 288 276 q 227 226 227 244 q 258 196 227 205 q 367 182 290 188 q 435 178 395 181 q 525 173 475 176 q 693 117 633 167 q 753 -19 753 68 q 668 -176 753 -115 q 408 -237 583 -237 m 427 -163 q 588 -131 531 -163 q 646 -33 646 -99 q 612 43 646 13 q 509 77 578 72 l 297 90 q 241 76 272 92 q 189 32 210 60 q 167 -33 167 3 q 231 -128 167 -94 q 427 -163 294 -163 m 410 351 q 544 389 493 351 q 595 501 595 426 q 544 618 595 578 q 410 658 493 658 q 273 618 325 658 q 222 501 222 578 q 271 391 222 430 q 410 351 320 351 m 359 891 l 359 1004 l 472 1004 l 472 891 l 359 891 z "},"h":{"ha":795,"x_min":111,"x_max":696,"o":"m 111 0 l 111 1032 l 216 1032 l 216 613 q 266 669 235 643 q 343 712 298 696 q 445 728 388 728 q 573 703 516 728 q 663 630 629 677 q 696 519 696 583 l 696 0 l 588 0 l 588 494 q 541 600 588 563 q 418 638 494 638 q 320 621 366 638 q 247 570 275 604 q 219 485 219 537 l 219 0 l 111 0 z "},"ħ":{"ha":806,"x_min":28,"x_max":708,"o":"m 28 833 l 28 905 l 447 905 l 447 833 l 28 833 m 123 0 l 123 1032 l 228 1032 l 228 613 q 277 669 246 643 q 354 712 309 696 q 457 728 399 728 q 584 703 527 728 q 674 630 641 677 q 708 519 708 583 l 708 0 l 599 0 l 599 494 q 553 600 599 563 q 430 638 506 638 q 332 621 377 638 q 258 570 286 604 q 231 485 231 537 l 231 0 l 123 0 z "},"ĥ":{"ha":795,"x_min":-47,"x_max":696,"o":"m 111 0 l 111 1032 l 216 1032 l 216 613 q 266 669 235 643 q 343 712 298 696 q 445 728 388 728 q 573 703 516 728 q 663 630 629 677 q 696 519 696 583 l 696 0 l 588 0 l 588 494 q 541 600 588 563 q 418 638 494 638 q 320 621 366 638 q 247 570 275 604 q 219 485 219 537 l 219 0 l 111 0 m -47 1088 l 124 1238 l 203 1238 l 372 1088 l 261 1088 l 163 1176 l 57 1088 l -47 1088 z "},"ḥ":{"ha":795,"x_min":111,"x_max":696,"o":"m 111 0 l 111 1032 l 216 1032 l 216 613 q 266 669 235 643 q 343 712 298 696 q 445 728 388 728 q 573 703 516 728 q 663 630 629 677 q 696 519 696 583 l 696 0 l 588 0 l 588 494 q 541 600 588 563 q 418 638 494 638 q 320 621 366 638 q 247 570 275 604 q 219 485 219 537 l 219 0 l 111 0 m 358 -242 l 358 -128 l 472 -128 l 472 -242 l 358 -242 z "},"i":{"ha":336,"x_min":111,"x_max":225,"o":"m 116 0 l 116 718 l 222 718 l 222 0 l 116 0 m 111 884 l 111 1003 l 225 1003 l 225 884 l 111 884 z "},"ı":{"ha":327,"x_min":111,"x_max":216,"o":"m 111 0 l 111 718 l 216 718 l 216 0 l 111 0 z "},"í":{"ha":327,"x_min":111,"x_max":342,"o":"m 111 0 l 111 718 l 216 718 l 216 0 l 111 0 m 203 802 l 123 803 l 217 1004 l 342 1004 l 203 802 z "},"ĭ":{"ha":327,"x_min":-37,"x_max":365,"o":"m 111 0 l 111 718 l 216 718 l 216 0 l 111 0 m 163 800 q 72 817 114 800 q 2 865 31 833 q -37 943 -27 897 l 47 943 q 89 890 58 910 q 163 869 119 869 q 239 890 207 869 q 283 943 270 910 l 366 943 q 327 867 356 899 q 257 817 299 835 q 163 800 215 800 z "},"î":{"ha":327,"x_min":-46,"x_max":374,"o":"m 111 0 l 111 718 l 216 718 l 216 0 l 111 0 m -46 802 l 126 951 l 205 951 l 374 802 l 263 802 l 164 890 l 58 802 l -46 802 z "},"ȉ":{"ha":327,"x_min":-168,"x_max":297,"o":"m 111 0 l 111 718 l 216 718 l 216 0 l 111 0 m 31 802 l -168 1004 l -45 1004 l 117 802 l 31 802 m 210 802 l 41 1004 l 161 1004 l 297 802 l 210 802 z "},"ï":{"ha":388,"x_min":11,"x_max":376,"o":"m 140 0 l 140 718 l 244 718 l 244 0 l 140 0 m 267 890 l 267 1003 l 376 1003 l 375 890 l 267 890 m 11 890 l 12 1003 l 120 1003 l 119 890 l 11 890 z "},"ị":{"ha":336,"x_min":111,"x_max":225,"o":"m 116 0 l 116 718 l 222 718 l 222 0 l 116 0 m 111 884 l 111 1003 l 225 1003 l 225 884 l 111 884 m 112 -242 l 112 -128 l 225 -128 l 225 -242 l 112 -242 z "},"ì":{"ha":327,"x_min":-14,"x_max":216,"o":"m 111 0 l 111 718 l 216 718 l 216 0 l 111 0 m 126 802 l -14 1004 l 111 1004 l 206 803 l 126 802 z "},"ỉ":{"ha":327,"x_min":69,"x_max":297,"o":"m 111 0 l 111 718 l 216 718 l 216 0 l 111 0 m 201 800 l 166 853 q 209 899 197 874 q 208 948 222 925 q 164 971 194 972 q 105 951 133 970 l 69 1005 q 181 1035 127 1042 q 263 985 235 1028 q 279 885 297 935 q 201 800 261 836 z "},"ȋ":{"ha":369,"x_min":-21,"x_max":382,"o":"m 131 0 l 131 718 l 235 718 l 235 0 l 131 0 m -21 844 q 18 922 -10 890 q 89 970 47 954 q 179 987 131 987 q 274 969 231 987 q 344 920 316 952 q 382 844 373 888 l 299 844 q 255 898 287 876 q 179 919 223 919 q 105 898 135 919 q 63 844 75 876 l -21 844 z "},"ī":{"ha":371,"x_min":-12,"x_max":381,"o":"m 132 0 l 132 718 l 237 718 l 237 0 l 132 0 m -12 863 l -12 943 l 382 943 l 382 863 l -12 863 z "},"į":{"ha":327,"x_min":-10,"x_max":249,"o":"m 111 0 l 111 718 l 216 718 l 216 0 l 111 0 m 108 891 l 108 1004 l 221 1004 l 221 891 l 108 891 m 124 -229 q 24 -200 57 -229 q -10 -120 -10 -170 q 20 -44 -10 -78 q 135 15 51 -11 l 215 5 q 114 -51 146 -25 q 82 -113 82 -78 q 98 -152 82 -139 q 149 -165 113 -165 q 209 -157 183 -165 q 249 -141 235 -149 l 249 -202 q 198 -220 232 -212 q 124 -229 164 -229 z "},"ĩ":{"ha":365,"x_min":-18,"x_max":383,"o":"m 128 0 l 128 718 l 233 718 l 233 0 l 128 0 m 4 852 l -17 920 q 30 955 5 940 q 93 969 56 969 q 155 959 126 969 q 211 941 183 950 q 270 931 240 931 q 321 942 300 931 q 363 967 342 952 l 384 892 q 340 868 367 881 q 269 855 313 855 q 206 864 233 855 q 154 881 179 872 q 99 890 129 890 q 44 878 65 890 q 4 852 24 867 z "},"j":{"ha":355,"x_min":-35,"x_max":244,"o":"m 55 -231 q -19 -223 -5 -231 q -34 -215 -34 -215 l -35 -143 l 40 -140 q 111 -114 90 -137 q 131 -37 131 -91 l 131 718 l 240 718 l 240 -42 q 200 -184 240 -138 q 55 -231 160 -231 m 126 884 l 126 1003 l 244 1003 l 244 884 l 126 884 z "},"ȷ":{"ha":351,"x_min":-35,"x_max":240,"o":"m 56 -231 q -19 -226 -4 -231 q -34 -215 -34 -222 l -35 -143 l 41 -140 q 111 -114 90 -137 q 133 -37 133 -91 l 133 718 l 240 718 l 240 -42 q 200 -184 240 -138 q 56 -231 160 -231 z "},"ĵ":{"ha":351,"x_min":-35,"x_max":395,"o":"m 56 -231 q -19 -226 -4 -231 q -34 -215 -34 -222 l -35 -143 l 41 -140 q 111 -114 90 -137 q 133 -37 133 -91 l 133 718 l 240 718 l 240 -42 q 200 -184 240 -138 q 56 -231 160 -231 m -24 802 l 147 951 l 226 951 l 395 802 l 284 802 l 185 890 l 80 802 l -24 802 z "},"k":{"ha":773,"x_min":111,"x_max":724,"o":"m 111 0 l 111 1032 l 219 1032 l 219 342 l 576 718 l 704 718 l 446 448 l 724 0 l 607 0 l 374 374 l 219 215 l 219 0 l 111 0 z "},"ķ":{"ha":773,"x_min":111,"x_max":724,"o":"m 111 0 l 111 1032 l 219 1032 l 219 342 l 576 718 l 704 718 l 446 448 l 724 0 l 607 0 l 374 374 l 219 215 l 219 0 l 111 0 m 311 -253 l 366 -171 l 326 -169 l 326 -68 l 444 -68 l 444 -153 l 359 -253 l 311 -253 z "},"ĸ":{"ha":784,"x_min":111,"x_max":735,"o":"m 111 0 l 111 718 l 219 718 l 219 335 l 587 718 l 710 718 l 460 465 l 735 0 l 607 0 l 385 382 l 219 215 l 219 0 l 111 0 z "},"l":{"ha":411,"x_min":111,"x_max":339,"o":"m 279 -8 q 195 7 228 -8 q 143 49 162 22 q 118 109 125 75 q 111 181 111 143 l 111 1032 l 218 1032 l 218 190 q 240 103 218 131 q 299 74 263 76 l 339 73 l 339 2 q 308 -5 324 -3 q 279 -8 292 -8 z "},"ĺ":{"ha":411,"x_min":110,"x_max":383,"o":"m 279 -8 q 195 7 228 -8 q 143 49 162 22 q 118 109 125 75 q 111 181 111 143 l 111 1032 l 218 1032 l 218 190 q 240 103 218 131 q 299 74 263 76 l 339 73 l 339 2 q 308 -5 324 -3 q 279 -8 292 -8 m 110 1144 l 253 1346 l 383 1346 l 197 1144 l 110 1144 z "},"ľ":{"ha":411,"x_min":111,"x_max":407,"o":"m 279 -8 q 195 7 228 -8 q 143 49 162 22 q 118 109 125 75 q 111 181 111 143 l 111 1032 l 218 1032 l 218 190 q 240 103 218 131 q 299 74 263 76 l 339 73 l 339 2 q 308 -5 324 -3 q 279 -8 292 -8 m 292 772 l 344 896 l 310 903 l 310 1032 l 407 1032 l 407 897 l 353 772 l 292 772 z "},"ļ":{"ha":411,"x_min":110,"x_max":339,"o":"m 279 -8 q 195 7 228 -8 q 143 49 162 22 q 118 109 125 75 q 111 181 111 143 l 111 1032 l 218 1032 l 218 190 q 240 103 218 131 q 299 74 263 76 l 339 73 l 339 2 q 308 -5 324 -3 q 279 -8 292 -8 m 110 -251 l 165 -169 l 124 -167 l 124 -67 l 243 -67 l 243 -151 l 158 -251 l 110 -251 z "},"ŀ":{"ha":459,"x_min":111,"x_max":467,"o":"m 279 -8 q 195 7 228 -8 q 143 49 162 22 q 118 109 125 75 q 111 181 111 143 l 111 1032 l 218 1032 l 218 190 q 240 103 218 131 q 299 74 263 76 l 339 73 l 339 2 q 308 -5 324 -3 q 279 -8 292 -8 m 322 468 l 322 608 l 467 608 l 467 468 l 322 468 z "},"ł":{"ha":483,"x_min":49,"x_max":399,"o":"m 49 226 l 49 330 l 399 624 l 399 526 l 49 226 m 332 -8 q 248 7 281 -8 q 196 49 215 22 q 171 109 178 75 q 164 181 164 143 l 164 1032 l 271 1032 l 271 190 q 293 103 271 131 q 351 74 315 76 l 392 73 l 392 2 q 360 -5 376 -3 q 332 -8 344 -8 z "},"m":{"ha":1190,"x_min":111,"x_max":1090,"o":"m 111 0 l 111 718 l 215 718 l 215 613 q 295 697 244 661 q 429 732 346 732 q 510 719 469 732 q 585 679 551 706 q 638 614 619 653 q 728 700 671 668 q 857 732 785 732 q 935 721 894 732 q 1011 682 976 710 q 1068 602 1047 653 q 1090 469 1090 550 l 1090 0 l 982 0 l 982 459 q 960 569 982 531 q 902 623 938 608 q 826 638 867 638 q 750 625 790 638 q 682 578 710 611 q 654 485 654 544 l 654 0 l 546 0 l 546 502 q 522 577 546 547 q 463 623 498 608 q 392 638 427 638 q 313 623 353 638 q 246 574 273 608 q 219 485 219 540 l 219 0 l 111 0 z "},"n":{"ha":795,"x_min":111,"x_max":697,"o":"m 111 0 l 111 718 l 215 718 l 215 613 q 265 671 233 644 q 342 713 297 697 q 444 729 388 729 q 571 702 514 729 q 663 617 628 674 q 697 469 697 559 l 697 0 l 588 0 l 588 459 q 542 594 588 551 q 419 638 495 638 q 321 622 367 638 q 247 571 275 605 q 219 485 219 537 l 219 0 l 111 0 z "},"ń":{"ha":795,"x_min":111,"x_max":697,"o":"m 111 0 l 111 718 l 215 718 l 215 613 q 265 671 233 644 q 342 713 297 697 q 444 729 388 729 q 571 702 514 729 q 663 617 628 674 q 697 469 697 559 l 697 0 l 588 0 l 588 459 q 542 594 588 551 q 419 638 495 638 q 321 622 367 638 q 247 571 275 605 q 219 485 219 537 l 219 0 l 111 0 m 363 802 l 506 1004 l 635 1004 l 449 802 l 363 802 z "},"ň":{"ha":795,"x_min":111,"x_max":697,"o":"m 111 0 l 111 718 l 215 718 l 215 613 q 265 671 233 644 q 342 713 297 697 q 444 729 388 729 q 571 702 514 729 q 663 617 628 674 q 697 469 697 559 l 697 0 l 588 0 l 588 459 q 542 594 588 551 q 419 638 495 638 q 321 622 367 638 q 247 571 275 605 q 219 485 219 537 l 219 0 l 111 0 m 376 802 l 203 952 l 308 952 l 414 861 l 513 952 l 624 952 l 455 802 l 376 802 z "},"ņ":{"ha":795,"x_min":111,"x_max":697,"o":"m 111 0 l 111 718 l 215 718 l 215 613 q 265 671 233 644 q 342 713 297 697 q 444 729 388 729 q 571 702 514 729 q 663 617 628 674 q 697 469 697 559 l 697 0 l 588 0 l 588 459 q 542 594 588 551 q 419 638 495 638 q 321 622 367 638 q 247 571 275 605 q 219 485 219 537 l 219 0 l 111 0 m 333 -253 l 388 -171 l 348 -169 l 348 -68 l 467 -68 l 467 -153 l 381 -253 l 333 -253 z "},"ṅ":{"ha":795,"x_min":111,"x_max":697,"o":"m 111 0 l 111 718 l 215 718 l 215 613 q 265 671 233 644 q 342 713 297 697 q 444 729 388 729 q 571 702 514 729 q 663 617 628 674 q 697 469 697 559 l 697 0 l 588 0 l 588 459 q 542 594 588 551 q 419 638 495 638 q 321 622 367 638 q 247 571 275 605 q 219 485 219 537 l 219 0 l 111 0 m 358 891 l 358 1004 l 471 1004 l 471 891 l 358 891 z "},"ŋ":{"ha":808,"x_min":111,"x_max":697,"o":"m 513 -231 q 445 -227 458 -231 q 432 -217 432 -223 l 432 -144 l 497 -142 q 567 -117 546 -140 q 588 -38 588 -93 l 588 496 q 555 605 588 563 q 442 646 521 646 q 330 616 385 646 q 220 533 274 585 l 220 0 l 111 0 l 113 718 l 216 718 l 216 609 q 312 681 269 654 q 394 720 354 708 q 478 732 434 732 q 639 675 581 732 q 697 527 697 619 l 697 -32 q 676 -139 697 -94 q 614 -207 656 -183 q 513 -231 573 -231 z "},"ñ":{"ha":795,"x_min":111,"x_max":697,"o":"m 111 0 l 111 718 l 215 718 l 215 613 q 265 671 233 644 q 342 713 297 697 q 444 729 388 729 q 571 702 514 729 q 663 617 628 674 q 697 469 697 559 l 697 0 l 588 0 l 588 459 q 542 594 588 551 q 419 638 495 638 q 321 622 367 638 q 247 571 275 605 q 219 485 219 537 l 219 0 l 111 0 m 238 852 l 216 920 q 264 955 238 940 q 326 969 289 969 q 388 959 359 969 q 445 941 417 950 q 503 931 473 931 q 554 942 533 931 q 596 967 575 952 l 617 892 q 573 868 600 881 q 503 855 546 855 q 439 864 466 855 q 388 881 413 872 q 332 890 363 890 q 278 878 298 890 q 238 852 258 867 z "},"o":{"ha":781,"x_min":68,"x_max":714,"o":"m 392 -14 q 222 28 294 -14 q 108 153 149 70 q 68 356 68 235 q 105 553 68 469 q 214 685 142 638 q 392 732 287 732 q 562 689 490 732 q 674 563 634 647 q 714 356 714 479 q 677 163 714 247 q 570 33 641 80 q 392 -14 499 -14 m 392 74 q 508 107 460 74 q 581 204 556 140 q 606 359 606 268 q 584 506 606 441 q 515 607 562 570 q 392 644 467 644 q 276 611 324 644 q 202 515 227 578 q 176 359 176 451 q 199 213 176 277 q 269 111 221 149 q 392 74 317 74 z "},"ó":{"ha":781,"x_min":68,"x_max":714,"o":"m 392 -14 q 222 28 294 -14 q 108 153 149 70 q 68 356 68 235 q 105 553 68 469 q 214 685 142 638 q 392 732 287 732 q 562 689 490 732 q 674 563 634 647 q 714 356 714 479 q 677 163 714 247 q 570 33 641 80 q 392 -14 499 -14 m 392 74 q 508 107 460 74 q 581 204 556 140 q 606 359 606 268 q 584 506 606 441 q 515 607 562 570 q 392 644 467 644 q 276 611 324 644 q 202 515 227 578 q 176 359 176 451 q 199 213 176 277 q 269 111 221 149 q 392 74 317 74 m 340 802 l 483 1004 l 613 1004 l 426 802 l 340 802 z "},"ŏ":{"ha":781,"x_min":68,"x_max":714,"o":"m 392 -14 q 222 28 294 -14 q 108 153 149 70 q 68 356 68 235 q 105 553 68 469 q 214 685 142 638 q 392 732 287 732 q 562 689 490 732 q 674 563 634 647 q 714 356 714 479 q 677 163 714 247 q 570 33 641 80 q 392 -14 499 -14 m 392 74 q 508 107 460 74 q 581 204 556 140 q 606 359 606 268 q 584 506 606 441 q 515 607 562 570 q 392 644 467 644 q 276 611 324 644 q 202 515 227 578 q 176 359 176 451 q 199 213 176 277 q 269 111 221 149 q 392 74 317 74 m 390 800 q 299 817 341 800 q 229 865 258 833 q 190 943 200 897 l 274 943 q 316 890 285 910 q 390 869 347 869 q 466 890 434 869 q 510 943 497 910 l 593 943 q 555 867 583 899 q 484 817 526 835 q 390 800 442 800 z "},"ô":{"ha":781,"x_min":68,"x_max":714,"o":"m 392 -14 q 222 28 294 -14 q 108 153 149 70 q 68 356 68 235 q 105 553 68 469 q 214 685 142 638 q 392 732 287 732 q 562 689 490 732 q 674 563 634 647 q 714 356 714 479 q 677 163 714 247 q 570 33 641 80 q 392 -14 499 -14 m 392 74 q 508 107 460 74 q 581 204 556 140 q 606 359 606 268 q 584 506 606 441 q 515 607 562 570 q 392 644 467 644 q 276 611 324 644 q 202 515 227 578 q 176 359 176 451 q 199 213 176 277 q 269 111 221 149 q 392 74 317 74 m 181 802 l 353 951 l 432 951 l 601 802 l 490 802 l 391 890 l 285 802 l 181 802 z "},"ố":{"ha":781,"x_min":68,"x_max":721,"o":"m 392 -14 q 222 28 294 -14 q 108 153 149 70 q 68 356 68 235 q 105 553 68 469 q 214 685 142 638 q 392 732 287 732 q 562 689 490 732 q 674 563 634 647 q 714 356 714 479 q 677 163 714 247 q 570 33 641 80 q 392 -14 499 -14 m 392 74 q 508 107 460 74 q 581 204 556 140 q 606 359 606 268 q 584 506 606 441 q 515 607 562 570 q 392 644 467 644 q 276 611 324 644 q 202 515 227 578 q 176 359 176 451 q 199 213 176 277 q 269 111 221 149 q 392 74 317 74 m 181 802 l 353 951 l 432 951 l 601 802 l 490 802 l 391 890 l 285 802 l 181 802 m 510 951 l 610 1116 l 721 1116 l 586 951 l 510 951 z "},"ộ":{"ha":781,"x_min":68,"x_max":714,"o":"m 392 -14 q 222 28 294 -14 q 108 153 149 70 q 68 356 68 235 q 105 553 68 469 q 214 685 142 638 q 392 732 287 732 q 562 689 490 732 q 674 563 634 647 q 714 356 714 479 q 677 163 714 247 q 570 33 641 80 q 392 -14 499 -14 m 392 74 q 508 107 460 74 q 581 204 556 140 q 606 359 606 268 q 584 506 606 441 q 515 607 562 570 q 392 644 467 644 q 276 611 324 644 q 202 515 227 578 q 176 359 176 451 q 199 213 176 277 q 269 111 221 149 q 392 74 317 74 m 336 -242 l 336 -128 l 449 -128 l 449 -242 l 336 -242 m 181 802 l 353 951 l 432 951 l 601 802 l 490 802 l 391 890 l 285 802 l 181 802 z "},"ồ":{"ha":781,"x_min":68,"x_max":714,"o":"m 392 -14 q 222 28 294 -14 q 108 153 149 70 q 68 356 68 235 q 105 553 68 469 q 214 685 142 638 q 392 732 287 732 q 562 689 490 732 q 674 563 634 647 q 714 356 714 479 q 677 163 714 247 q 570 33 641 80 q 392 -14 499 -14 m 392 74 q 508 107 460 74 q 581 204 556 140 q 606 359 606 268 q 584 506 606 441 q 515 607 562 570 q 392 644 467 644 q 276 611 324 644 q 202 515 227 578 q 176 359 176 451 q 199 213 176 277 q 269 111 221 149 q 392 74 317 74 m 181 802 l 353 951 l 432 951 l 601 802 l 490 802 l 391 890 l 285 802 l 181 802 m 581 952 l 438 1117 l 547 1117 l 658 952 l 581 952 z "},"ổ":{"ha":781,"x_min":68,"x_max":714,"o":"m 392 -14 q 222 28 294 -14 q 108 153 149 70 q 68 356 68 235 q 105 553 68 469 q 214 685 142 638 q 392 732 287 732 q 562 689 490 732 q 674 563 634 647 q 714 356 714 479 q 677 163 714 247 q 570 33 641 80 q 392 -14 499 -14 m 392 74 q 508 107 460 74 q 581 204 556 140 q 606 359 606 268 q 584 506 606 441 q 515 607 562 570 q 392 644 467 644 q 276 611 324 644 q 202 515 227 578 q 176 359 176 451 q 199 213 176 277 q 269 111 221 149 q 392 74 317 74 m 184 802 l 356 951 l 435 951 l 603 802 l 492 802 l 394 890 l 288 802 l 184 802 m 544 919 l 509 973 q 552 1018 540 992 q 551 1067 565 1044 q 506 1090 536 1091 q 447 1069 476 1089 l 413 1124 q 524 1154 470 1161 q 606 1105 578 1147 q 622 1005 640 1054 q 544 919 603 956 z "},"ỗ":{"ha":781,"x_min":68,"x_max":714,"o":"m 392 -14 q 222 28 294 -14 q 108 153 149 70 q 68 356 68 235 q 105 553 68 469 q 214 685 142 638 q 392 732 287 732 q 562 689 490 732 q 674 563 634 647 q 714 356 714 479 q 677 163 714 247 q 570 33 641 80 q 392 -14 499 -14 m 392 74 q 508 107 460 74 q 581 204 556 140 q 606 359 606 268 q 584 506 606 441 q 515 607 562 570 q 392 644 467 644 q 276 611 324 644 q 202 515 227 578 q 176 359 176 451 q 199 213 176 277 q 269 111 221 149 q 392 74 317 74 m 182 802 l 353 951 l 433 951 l 601 802 l 490 802 l 392 890 l 286 802 l 182 802 m 214 1030 l 192 1098 q 239 1132 214 1118 q 302 1147 265 1147 q 364 1137 335 1147 q 421 1118 393 1128 q 479 1109 449 1109 q 530 1119 509 1109 q 572 1145 551 1130 l 593 1070 q 549 1045 576 1058 q 478 1033 522 1033 q 415 1041 442 1033 q 364 1059 388 1050 q 308 1067 339 1067 q 254 1056 274 1067 q 214 1030 234 1044 z "},"ȍ":{"ha":781,"x_min":59,"x_max":714,"o":"m 392 -14 q 222 28 294 -14 q 108 153 149 70 q 68 356 68 235 q 105 553 68 469 q 214 685 142 638 q 392 732 287 732 q 562 689 490 732 q 674 563 634 647 q 714 356 714 479 q 677 163 714 247 q 570 33 641 80 q 392 -14 499 -14 m 392 74 q 508 107 460 74 q 581 204 556 140 q 606 359 606 268 q 584 506 606 441 q 515 607 562 570 q 392 644 467 644 q 276 611 324 644 q 202 515 227 578 q 176 359 176 451 q 199 213 176 277 q 269 111 221 149 q 392 74 317 74 m 258 802 l 59 1004 l 182 1004 l 344 802 l 258 802 m 438 802 l 268 1004 l 388 1004 l 524 802 l 438 802 z "},"ö":{"ha":781,"x_min":68,"x_max":714,"o":"m 392 -14 q 222 28 294 -14 q 108 153 149 70 q 68 356 68 235 q 105 553 68 469 q 214 685 142 638 q 392 732 287 732 q 562 689 490 732 q 674 563 634 647 q 714 356 714 479 q 677 163 714 247 q 570 33 641 80 q 392 -14 499 -14 m 392 74 q 508 107 460 74 q 581 204 556 140 q 606 359 606 268 q 584 506 606 441 q 515 607 562 570 q 392 644 467 644 q 276 611 324 644 q 202 515 227 578 q 176 359 176 451 q 199 213 176 277 q 269 111 221 149 q 392 74 317 74 m 465 891 l 465 1004 l 574 1004 l 573 891 l 465 891 m 209 891 l 210 1004 l 318 1004 l 317 891 l 209 891 z "},"ọ":{"ha":781,"x_min":68,"x_max":714,"o":"m 392 -14 q 222 28 294 -14 q 108 153 149 70 q 68 356 68 235 q 105 553 68 469 q 214 685 142 638 q 392 732 287 732 q 562 689 490 732 q 674 563 634 647 q 714 356 714 479 q 677 163 714 247 q 570 33 641 80 q 392 -14 499 -14 m 392 74 q 508 107 460 74 q 581 204 556 140 q 606 359 606 268 q 584 506 606 441 q 515 607 562 570 q 392 644 467 644 q 276 611 324 644 q 202 515 227 578 q 176 359 176 451 q 199 213 176 277 q 269 111 221 149 q 392 74 317 74 m 336 -242 l 336 -128 l 449 -128 l 449 -242 l 336 -242 z "},"ò":{"ha":781,"x_min":68,"x_max":714,"o":"m 392 -14 q 222 28 294 -14 q 108 153 149 70 q 68 356 68 235 q 105 553 68 469 q 214 685 142 638 q 392 732 287 732 q 562 689 490 732 q 674 563 634 647 q 714 356 714 479 q 677 163 714 247 q 570 33 641 80 q 392 -14 499 -14 m 392 74 q 508 107 460 74 q 581 204 556 140 q 606 359 606 268 q 584 506 606 441 q 515 607 562 570 q 392 644 467 644 q 276 611 324 644 q 202 515 227 578 q 176 359 176 451 q 199 213 176 277 q 269 111 221 149 q 392 74 317 74 m 353 802 l 167 1004 l 297 1004 l 440 802 l 353 802 z "},"ỏ":{"ha":781,"x_min":68,"x_max":714,"o":"m 392 -14 q 222 28 294 -14 q 108 153 149 70 q 68 356 68 235 q 105 553 68 469 q 214 685 142 638 q 392 732 287 732 q 562 689 490 732 q 674 563 634 647 q 714 356 714 479 q 677 163 714 247 q 570 33 641 80 q 392 -14 499 -14 m 392 74 q 508 107 460 74 q 581 204 556 140 q 606 359 606 268 q 584 506 606 441 q 515 607 562 570 q 392 644 467 644 q 276 611 324 644 q 202 515 227 578 q 176 359 176 451 q 199 213 176 277 q 269 111 221 149 q 392 74 317 74 m 428 800 l 393 853 q 436 899 424 874 q 435 948 449 925 q 391 971 421 972 q 332 951 360 970 l 297 1005 q 408 1035 354 1042 q 490 985 463 1028 q 506 885 524 935 q 428 800 488 836 z "},"ơ":{"ha":821,"x_min":68,"x_max":805,"o":"m 392 -14 q 222 28 294 -14 q 108 153 149 70 q 68 356 68 235 q 105 553 68 469 q 214 685 142 638 q 392 732 287 732 q 524 708 465 732 q 625 638 583 684 q 673 653 655 641 q 700 694 691 665 q 711 774 709 723 l 805 774 q 791 667 805 710 q 747 600 777 624 q 669 569 717 576 q 714 356 714 485 q 677 163 714 247 q 570 33 641 80 q 392 -14 499 -14 m 392 74 q 508 107 460 74 q 581 204 556 140 q 606 359 606 268 q 584 506 606 441 q 515 607 562 570 q 392 644 467 644 q 276 611 324 644 q 202 515 227 578 q 176 359 176 451 q 199 213 176 277 q 269 111 221 149 q 392 74 317 74 z "},"ớ":{"ha":821,"x_min":68,"x_max":805,"o":"m 347 802 l 490 1004 l 619 1004 l 433 802 l 347 802 m 392 -14 q 222 28 294 -14 q 108 153 149 70 q 68 356 68 235 q 105 553 68 469 q 214 685 142 638 q 392 732 287 732 q 524 708 465 732 q 625 638 583 684 q 673 653 655 641 q 700 694 691 665 q 711 774 709 723 l 805 774 q 791 667 805 710 q 747 600 777 624 q 669 569 717 576 q 714 356 714 485 q 677 163 714 247 q 570 33 641 80 q 392 -14 499 -14 m 392 74 q 508 107 460 74 q 581 204 556 140 q 606 359 606 268 q 584 506 606 441 q 515 607 562 570 q 392 644 467 644 q 276 611 324 644 q 202 515 227 578 q 176 359 176 451 q 199 213 176 277 q 269 111 221 149 q 392 74 317 74 z "},"ợ":{"ha":821,"x_min":68,"x_max":805,"o":"m 325 -242 l 325 -128 l 438 -128 l 438 -242 l 325 -242 m 392 -14 q 222 28 294 -14 q 108 153 149 70 q 68 356 68 235 q 105 553 68 469 q 214 685 142 638 q 392 732 287 732 q 524 708 465 732 q 625 638 583 684 q 673 653 655 641 q 700 694 691 665 q 711 774 709 723 l 805 774 q 791 667 805 710 q 747 600 777 624 q 669 569 717 576 q 714 356 714 485 q 677 163 714 247 q 570 33 641 80 q 392 -14 499 -14 m 392 74 q 508 107 460 74 q 581 204 556 140 q 606 359 606 268 q 584 506 606 441 q 515 607 562 570 q 392 644 467 644 q 276 611 324 644 q 202 515 227 578 q 176 359 176 451 q 199 213 176 277 q 269 111 221 149 q 392 74 317 74 z "},"ờ":{"ha":821,"x_min":68,"x_max":805,"o":"m 346 802 l 160 1004 l 289 1004 l 432 802 l 346 802 m 392 -14 q 222 28 294 -14 q 108 153 149 70 q 68 356 68 235 q 105 553 68 469 q 214 685 142 638 q 392 732 287 732 q 524 708 465 732 q 625 638 583 684 q 673 653 655 641 q 700 694 691 665 q 711 774 709 723 l 805 774 q 791 667 805 710 q 747 600 777 624 q 669 569 717 576 q 714 356 714 485 q 677 163 714 247 q 570 33 641 80 q 392 -14 499 -14 m 392 74 q 508 107 460 74 q 581 204 556 140 q 606 359 606 268 q 584 506 606 441 q 515 607 562 570 q 392 644 467 644 q 276 611 324 644 q 202 515 227 578 q 176 359 176 451 q 199 213 176 277 q 269 111 221 149 q 392 74 317 74 z "},"ở":{"ha":821,"x_min":68,"x_max":805,"o":"m 427 800 l 392 853 q 435 899 422 874 q 433 948 448 925 q 389 971 419 972 q 331 951 359 970 l 295 1005 q 407 1035 353 1042 q 489 985 461 1028 q 505 885 523 935 q 427 800 487 836 m 392 -14 q 222 28 294 -14 q 108 153 149 70 q 68 356 68 235 q 105 553 68 469 q 214 685 142 638 q 392 732 287 732 q 524 708 465 732 q 625 638 583 684 q 673 653 655 641 q 700 694 691 665 q 711 774 709 723 l 805 774 q 791 667 805 710 q 747 600 777 624 q 669 569 717 576 q 714 356 714 485 q 677 163 714 247 q 570 33 641 80 q 392 -14 499 -14 m 392 74 q 508 107 460 74 q 581 204 556 140 q 606 359 606 268 q 584 506 606 441 q 515 607 562 570 q 392 644 467 644 q 276 611 324 644 q 202 515 227 578 q 176 359 176 451 q 199 213 176 277 q 269 111 221 149 q 392 74 317 74 z "},"ỡ":{"ha":821,"x_min":68,"x_max":805,"o":"m 213 852 l 192 920 q 239 955 214 940 q 302 969 265 969 q 364 959 335 969 q 420 941 392 950 q 479 931 449 931 q 530 942 509 931 q 572 967 551 952 l 593 892 q 549 868 576 881 q 478 855 522 855 q 415 864 442 855 q 363 881 388 872 q 308 890 338 890 q 253 878 274 890 q 213 852 233 867 m 392 -14 q 222 28 294 -14 q 108 153 149 70 q 68 356 68 235 q 105 553 68 469 q 214 685 142 638 q 392 732 287 732 q 524 708 465 732 q 625 638 583 684 q 673 653 655 641 q 700 694 691 665 q 711 774 709 723 l 805 774 q 791 667 805 710 q 747 600 777 624 q 669 569 717 576 q 714 356 714 485 q 677 163 714 247 q 570 33 641 80 q 392 -14 499 -14 m 392 74 q 508 107 460 74 q 581 204 556 140 q 606 359 606 268 q 584 506 606 441 q 515 607 562 570 q 392 644 467 644 q 276 611 324 644 q 202 515 227 578 q 176 359 176 451 q 199 213 176 277 q 269 111 221 149 q 392 74 317 74 z "},"ő":{"ha":781,"x_min":68,"x_max":726,"o":"m 392 -14 q 222 28 294 -14 q 108 153 149 70 q 68 356 68 235 q 105 553 68 469 q 214 685 142 638 q 392 732 287 732 q 562 689 490 732 q 674 563 634 647 q 714 356 714 479 q 677 163 714 247 q 570 33 641 80 q 392 -14 499 -14 m 392 74 q 508 107 460 74 q 581 204 556 140 q 606 359 606 268 q 584 506 606 441 q 515 607 562 570 q 392 644 467 644 q 276 611 324 644 q 202 515 227 578 q 176 359 176 451 q 199 213 176 277 q 269 111 221 149 q 392 74 317 74 m 442 802 l 604 1004 l 727 1004 l 528 802 l 442 802 m 263 802 l 398 1004 l 518 1004 l 349 802 l 263 802 z "},"ȏ":{"ha":781,"x_min":68,"x_max":714,"o":"m 392 -14 q 222 28 294 -14 q 108 153 149 70 q 68 356 68 235 q 105 553 68 469 q 214 685 142 638 q 392 732 287 732 q 562 689 490 732 q 674 563 634 647 q 714 356 714 479 q 677 163 714 247 q 570 33 641 80 q 392 -14 499 -14 m 392 74 q 508 107 460 74 q 581 204 556 140 q 606 359 606 268 q 584 506 606 441 q 515 607 562 570 q 392 644 467 644 q 276 611 324 644 q 202 515 227 578 q 176 359 176 451 q 199 213 176 277 q 269 111 221 149 q 392 74 317 74 m 187 844 q 226 922 197 890 q 296 970 254 954 q 387 987 338 987 q 481 969 439 987 q 552 920 524 952 q 590 844 581 888 l 507 844 q 463 898 494 876 q 387 919 431 919 q 313 898 343 919 q 271 844 283 876 l 187 844 z "},"ō":{"ha":781,"x_min":68,"x_max":714,"o":"m 392 -14 q 222 28 294 -14 q 108 153 149 70 q 68 356 68 235 q 105 553 68 469 q 214 685 142 638 q 392 732 287 732 q 562 689 490 732 q 674 563 634 647 q 714 356 714 479 q 677 163 714 247 q 570 33 641 80 q 392 -14 499 -14 m 392 74 q 508 107 460 74 q 581 204 556 140 q 606 359 606 268 q 584 506 606 441 q 515 607 562 570 q 392 644 467 644 q 276 611 324 644 q 202 515 227 578 q 176 359 176 451 q 199 213 176 277 q 269 111 221 149 q 392 74 317 74 m 194 863 l 194 943 l 588 943 l 588 863 l 194 863 z "},"ǫ":{"ha":781,"x_min":68,"x_max":714,"o":"m 420 -228 q 320 -199 353 -228 q 287 -120 287 -169 q 317 -44 287 -78 q 431 15 347 -11 l 511 6 q 410 -51 442 -24 q 378 -112 378 -77 q 394 -152 378 -138 q 446 -165 410 -165 q 506 -157 479 -165 q 545 -141 532 -148 l 545 -201 q 494 -220 528 -211 q 420 -228 460 -228 m 392 -14 q 222 28 294 -14 q 108 153 149 70 q 68 356 68 235 q 105 553 68 469 q 214 685 142 638 q 392 732 287 732 q 562 689 490 732 q 674 563 634 647 q 714 356 714 479 q 677 163 714 247 q 570 33 641 80 q 392 -14 499 -14 m 392 74 q 508 107 460 74 q 581 204 556 140 q 606 359 606 268 q 584 506 606 441 q 515 607 562 570 q 392 644 467 644 q 276 611 324 644 q 202 515 227 578 q 176 359 176 451 q 199 213 176 277 q 269 111 221 149 q 392 74 317 74 z "},"ø":{"ha":804,"x_min":26,"x_max":774,"o":"m 74 -7 l 26 44 l 726 723 l 774 672 l 74 -7 m 400 -14 q 230 28 303 -14 q 116 153 156 70 q 76 356 76 235 q 113 553 76 469 q 222 685 150 638 q 401 732 294 732 q 570 689 498 732 q 682 563 642 647 q 722 356 722 479 q 685 163 722 247 q 578 33 649 80 q 400 -14 507 -14 m 401 74 q 516 107 468 74 q 589 204 563 140 q 614 359 614 268 q 592 506 614 441 q 522 607 569 570 q 401 644 475 644 q 284 611 332 644 q 210 515 235 578 q 184 359 184 451 q 207 213 184 277 q 277 111 229 149 q 401 74 325 74 z "},"ǿ":{"ha":804,"x_min":26,"x_max":774,"o":"m 74 -7 l 26 44 l 726 723 l 774 672 l 74 -7 m 400 -14 q 230 28 303 -14 q 116 153 156 70 q 76 356 76 235 q 113 553 76 469 q 222 685 150 638 q 401 732 294 732 q 570 689 498 732 q 682 563 642 647 q 722 356 722 479 q 685 163 722 247 q 578 33 649 80 q 400 -14 507 -14 m 401 74 q 516 107 468 74 q 589 204 563 140 q 614 359 614 268 q 592 506 614 441 q 522 607 569 570 q 401 644 475 644 q 284 611 332 644 q 210 515 235 578 q 184 359 184 451 q 207 213 184 277 q 277 111 229 149 q 401 74 325 74 m 351 802 l 494 1004 l 623 1004 l 437 802 l 351 802 z "},"õ":{"ha":781,"x_min":68,"x_max":714,"o":"m 392 -14 q 222 28 294 -14 q 108 153 149 70 q 68 356 68 235 q 105 553 68 469 q 214 685 142 638 q 392 732 287 732 q 562 689 490 732 q 674 563 634 647 q 714 356 714 479 q 677 163 714 247 q 570 33 641 80 q 392 -14 499 -14 m 392 74 q 508 107 460 74 q 581 204 556 140 q 606 359 606 268 q 584 506 606 441 q 515 607 562 570 q 392 644 467 644 q 276 611 324 644 q 202 515 227 578 q 176 359 176 451 q 199 213 176 277 q 269 111 221 149 q 392 74 317 74 m 215 852 l 193 920 q 241 955 215 940 q 303 969 266 969 q 365 959 336 969 q 422 941 394 950 q 481 931 450 931 q 531 942 510 931 q 573 967 552 952 l 594 892 q 550 868 577 881 q 480 855 523 855 q 416 864 443 855 q 365 881 390 872 q 309 890 340 890 q 255 878 275 890 q 215 852 235 867 z "},"œ":{"ha":1322,"x_min":68,"x_max":1247,"o":"m 1247 378 l 1247 334 l 724 334 q 747 203 723 262 q 820 108 771 144 q 944 73 869 73 q 1071 107 1018 73 q 1137 205 1124 142 l 1241 205 q 1183 84 1228 133 q 1077 11 1139 35 q 947 -14 1015 -14 q 776 31 849 -14 q 665 159 703 76 q 563 32 631 78 q 392 -14 495 -14 q 222 28 294 -14 q 108 153 149 70 q 68 356 68 235 q 105 553 68 469 q 214 685 142 638 q 392 732 287 732 q 558 689 488 732 q 665 558 628 646 q 770 686 701 641 q 938 732 840 732 q 1106 689 1037 732 q 1210 567 1174 647 q 1247 378 1247 488 m 392 74 q 508 107 460 74 q 581 204 556 140 q 606 359 606 268 q 584 506 606 441 q 515 607 562 570 q 392 644 467 644 q 276 611 324 644 q 202 515 227 578 q 176 359 176 451 q 199 213 176 277 q 269 111 221 149 q 392 74 317 74 m 724 411 l 1141 411 q 1119 531 1141 478 q 1051 616 1097 585 q 936 647 1006 647 q 816 612 863 647 q 746 523 769 577 q 724 411 724 469 z "},"p":{"ha":823,"x_min":111,"x_max":755,"o":"m 111 -224 l 111 718 l 219 718 l 221 587 q 250 633 231 608 q 299 681 269 658 q 368 718 328 703 q 460 732 408 732 q 614 693 547 732 q 718 574 681 654 q 755 369 755 493 q 720 163 755 249 q 617 32 685 77 q 453 -14 550 -14 q 362 1 401 -14 q 295 39 323 15 q 249 88 267 63 q 220 136 231 113 l 220 -224 l 111 -224 m 435 73 q 589 144 530 73 q 649 365 649 216 q 595 569 649 493 q 435 645 541 645 q 274 568 329 645 q 219 365 219 491 q 243 217 219 283 q 316 112 268 151 q 435 73 364 73 z "},"þ":{"ha":813,"x_min":111,"x_max":746,"o":"m 111 -224 l 111 1004 l 217 1004 l 217 617 q 261 662 233 635 q 333 711 288 690 q 447 732 378 732 q 599 692 531 732 q 706 572 666 652 q 746 369 746 492 q 707 163 746 249 q 597 32 667 78 q 433 -14 526 -14 q 322 7 369 -14 q 240 55 274 27 q 224 63 228 65 q 219 46 219 61 l 219 -224 l 111 -224 m 405 66 q 524 100 472 66 q 605 202 576 135 q 635 367 635 269 q 604 531 635 468 q 523 622 574 593 q 413 651 473 651 q 312 626 356 651 q 244 565 268 601 q 219 493 219 528 l 219 156 q 306 91 260 115 q 405 66 351 66 z "},"q":{"ha":823,"x_min":68,"x_max":712,"o":"m 603 -224 l 603 136 q 574 88 592 113 q 528 39 556 63 q 461 1 500 15 q 370 -14 422 -14 q 214 27 283 -14 q 107 152 146 67 q 68 369 68 237 q 101 564 68 483 q 201 689 135 645 q 363 732 267 732 q 455 718 415 732 q 524 681 495 703 q 573 633 553 658 q 602 587 592 608 l 604 718 l 712 718 l 712 -224 l 603 -224 m 388 73 q 507 112 459 73 q 580 217 555 151 q 604 365 604 283 q 549 568 604 491 q 388 645 494 645 q 234 576 294 645 q 174 365 174 507 q 228 152 174 231 q 388 73 283 73 z "},"r":{"ha":535,"x_min":111,"x_max":483,"o":"m 111 0 l 111 718 l 214 718 l 214 588 q 265 670 232 639 q 339 717 298 702 q 423 732 381 732 q 457 730 440 732 q 483 722 474 727 l 483 616 q 454 624 472 622 q 423 626 435 626 q 349 620 385 628 q 283 593 313 613 q 236 541 253 574 q 219 461 219 508 l 219 0 l 111 0 z "},"ŕ":{"ha":535,"x_min":111,"x_max":510,"o":"m 111 0 l 111 718 l 214 718 l 214 588 q 265 670 232 639 q 339 717 298 702 q 423 732 381 732 q 457 730 440 732 q 483 722 474 727 l 483 616 q 454 624 472 622 q 423 626 435 626 q 349 620 385 628 q 283 593 313 613 q 236 541 253 574 q 219 461 219 508 l 219 0 l 111 0 m 238 802 l 381 1004 l 510 1004 l 324 802 l 238 802 z "},"ř":{"ha":535,"x_min":77,"x_max":498,"o":"m 111 0 l 111 718 l 214 718 l 214 588 q 265 670 232 639 q 339 717 298 702 q 423 732 381 732 q 457 730 440 732 q 483 722 474 727 l 483 616 q 454 624 472 622 q 423 626 435 626 q 349 620 385 628 q 283 593 313 613 q 236 541 253 574 q 219 461 219 508 l 219 0 l 111 0 m 250 802 l 77 952 l 183 952 l 288 861 l 387 952 l 498 952 l 329 802 l 250 802 z "},"ŗ":{"ha":535,"x_min":92,"x_max":483,"o":"m 111 0 l 111 718 l 214 718 l 214 588 q 265 670 232 639 q 339 717 298 702 q 423 732 381 732 q 457 730 440 732 q 483 722 474 727 l 483 616 q 454 624 472 622 q 423 626 435 626 q 349 620 385 628 q 283 593 313 613 q 236 541 253 574 q 219 461 219 508 l 219 0 l 111 0 m 93 -253 l 148 -171 l 108 -169 l 108 -68 l 226 -68 l 226 -153 l 141 -253 l 93 -253 z "},"ȑ":{"ha":535,"x_min":-44,"x_max":483,"o":"m 111 0 l 111 718 l 214 718 l 214 588 q 265 670 232 639 q 339 717 298 702 q 423 732 381 732 q 457 730 440 732 q 483 722 474 727 l 483 616 q 454 624 472 622 q 423 626 435 626 q 349 620 385 628 q 283 593 313 613 q 236 541 253 574 q 219 461 219 508 l 219 0 l 111 0 m 155 802 l -44 1004 l 79 1004 l 241 802 l 155 802 m 335 802 l 165 1004 l 285 1004 l 421 802 l 335 802 z "},"ṛ":{"ha":535,"x_min":108,"x_max":483,"o":"m 111 0 l 111 718 l 214 718 l 214 588 q 265 670 232 639 q 339 717 298 702 q 423 732 381 732 q 457 730 440 732 q 483 722 474 727 l 483 616 q 454 624 472 622 q 423 626 435 626 q 349 620 385 628 q 283 593 313 613 q 236 541 253 574 q 219 461 219 508 l 219 0 l 111 0 m 108 -242 l 108 -128 l 222 -128 l 222 -242 l 108 -242 z "},"ȓ":{"ha":535,"x_min":84,"x_max":487,"o":"m 111 0 l 111 718 l 214 718 l 214 588 q 265 670 232 639 q 339 717 298 702 q 423 732 381 732 q 457 730 440 732 q 483 722 474 727 l 483 616 q 454 624 472 622 q 423 626 435 626 q 349 620 385 628 q 283 593 313 613 q 236 541 253 574 q 219 461 219 508 l 219 0 l 111 0 m 84 837 q 123 915 94 883 q 193 964 151 947 q 284 980 235 980 q 378 963 336 980 q 449 913 421 945 q 487 837 478 881 l 404 837 q 360 891 392 869 q 284 912 328 912 q 210 891 240 912 q 168 837 180 869 l 84 837 z "},"s":{"ha":695,"x_min":69,"x_max":631,"o":"m 362 -14 q 224 9 287 -14 q 120 81 161 33 q 69 204 79 129 l 170 204 q 205 131 179 161 q 271 86 231 101 q 361 70 311 70 q 484 100 438 70 q 531 190 531 129 q 507 258 531 233 q 434 296 483 284 l 280 335 q 145 400 195 357 q 94 522 94 444 q 124 631 94 583 q 213 705 153 678 q 360 732 272 732 q 543 681 473 732 q 616 530 613 631 l 518 530 q 470 617 511 585 q 360 649 430 649 q 241 619 287 649 q 195 527 195 590 q 227 462 195 485 q 318 424 258 439 l 469 384 q 548 351 517 372 q 597 305 578 331 q 623 251 615 280 q 631 197 631 223 q 600 85 631 132 q 509 12 569 38 q 362 -14 449 -14 z "},"ś":{"ha":695,"x_min":69,"x_max":631,"o":"m 362 -14 q 224 9 287 -14 q 120 81 161 33 q 69 204 79 129 l 170 204 q 205 131 179 161 q 271 86 231 101 q 361 70 311 70 q 484 100 438 70 q 531 190 531 129 q 507 258 531 233 q 434 296 483 284 l 280 335 q 145 400 195 357 q 94 522 94 444 q 124 631 94 583 q 213 705 153 678 q 360 732 272 732 q 543 681 473 732 q 616 530 613 631 l 518 530 q 470 617 511 585 q 360 649 430 649 q 241 619 287 649 q 195 527 195 590 q 227 462 195 485 q 318 424 258 439 l 469 384 q 548 351 517 372 q 597 305 578 331 q 623 251 615 280 q 631 197 631 223 q 600 85 631 132 q 509 12 569 38 q 362 -14 449 -14 m 311 802 l 454 1004 l 583 1004 l 397 802 l 311 802 z "},"š":{"ha":695,"x_min":69,"x_max":631,"o":"m 362 -14 q 224 9 287 -14 q 120 81 161 33 q 69 204 79 129 l 170 204 q 205 131 179 161 q 271 86 231 101 q 361 70 311 70 q 484 100 438 70 q 531 190 531 129 q 507 258 531 233 q 434 296 483 284 l 280 335 q 145 400 195 357 q 94 522 94 444 q 124 631 94 583 q 213 705 153 678 q 360 732 272 732 q 543 681 473 732 q 616 530 613 631 l 518 530 q 470 617 511 585 q 360 649 430 649 q 241 619 287 649 q 195 527 195 590 q 227 462 195 485 q 318 424 258 439 l 469 384 q 548 351 517 372 q 597 305 578 331 q 623 251 615 280 q 631 197 631 223 q 600 85 631 132 q 509 12 569 38 q 362 -14 449 -14 m 324 802 l 151 952 l 256 952 l 362 861 l 460 952 l 572 952 l 403 802 l 324 802 z "},"ş":{"ha":695,"x_min":69,"x_max":631,"o":"m 323 -283 q 257 -275 288 -283 q 199 -249 226 -267 l 219 -199 q 258 -222 236 -212 q 310 -231 280 -231 q 368 -217 350 -231 q 387 -178 387 -203 q 361 -133 387 -148 q 278 -117 335 -118 q 270 -115 272 -117 q 270 -108 269 -112 l 321 7 l 383 7 l 349 -77 q 422 -95 395 -80 q 459 -133 448 -110 q 469 -178 469 -155 q 449 -236 469 -212 q 396 -271 429 -259 q 323 -283 363 -283 m 362 -14 q 224 9 287 -14 q 120 81 161 33 q 69 204 79 129 l 170 204 q 205 131 179 161 q 271 86 231 101 q 361 70 311 70 q 484 100 438 70 q 531 190 531 129 q 507 258 531 233 q 434 296 483 284 l 280 335 q 145 400 195 357 q 94 522 94 444 q 124 631 94 583 q 213 705 153 678 q 360 732 272 732 q 543 681 473 732 q 616 530 613 631 l 518 530 q 470 617 511 585 q 360 649 430 649 q 241 619 287 649 q 195 527 195 590 q 227 462 195 485 q 318 424 258 439 l 469 384 q 548 351 517 372 q 597 305 578 331 q 623 251 615 280 q 631 197 631 223 q 600 85 631 132 q 509 12 569 38 q 362 -14 449 -14 z "},"ŝ":{"ha":695,"x_min":69,"x_max":631,"o":"m 362 -14 q 224 9 287 -14 q 120 81 161 33 q 69 204 79 129 l 170 204 q 205 131 179 161 q 271 86 231 101 q 361 70 311 70 q 484 100 438 70 q 531 190 531 129 q 507 258 531 233 q 434 296 483 284 l 280 335 q 145 400 195 357 q 94 522 94 444 q 124 631 94 583 q 213 705 153 678 q 360 732 272 732 q 543 681 473 732 q 616 530 613 631 l 518 530 q 470 617 511 585 q 360 649 430 649 q 241 619 287 649 q 195 527 195 590 q 227 462 195 485 q 318 424 258 439 l 469 384 q 548 351 517 372 q 597 305 578 331 q 623 251 615 280 q 631 197 631 223 q 600 85 631 132 q 509 12 569 38 q 362 -14 449 -14 m 152 802 l 324 951 l 403 951 l 572 802 l 460 802 l 362 890 l 256 802 l 152 802 z "},"ș":{"ha":695,"x_min":69,"x_max":631,"o":"m 362 -14 q 224 9 287 -14 q 120 81 161 33 q 69 204 79 129 l 170 204 q 205 131 179 161 q 271 86 231 101 q 361 70 311 70 q 484 100 438 70 q 531 190 531 129 q 507 258 531 233 q 434 296 483 284 l 280 335 q 145 400 195 357 q 94 522 94 444 q 124 631 94 583 q 213 705 153 678 q 360 732 272 732 q 543 681 473 732 q 616 530 613 631 l 518 530 q 470 617 511 585 q 360 649 430 649 q 241 619 287 649 q 195 527 195 590 q 227 462 195 485 q 318 424 258 439 l 469 384 q 548 351 517 372 q 597 305 578 331 q 623 251 615 280 q 631 197 631 223 q 600 85 631 132 q 509 12 569 38 q 362 -14 449 -14 m 277 -253 l 332 -171 l 292 -169 l 292 -68 l 410 -68 l 410 -153 l 325 -253 l 277 -253 z "},"ṣ":{"ha":695,"x_min":69,"x_max":631,"o":"m 362 -14 q 224 9 287 -14 q 120 81 161 33 q 69 204 79 129 l 170 204 q 205 131 179 161 q 271 86 231 101 q 361 70 311 70 q 484 100 438 70 q 531 190 531 129 q 507 258 531 233 q 434 296 483 284 l 280 335 q 145 400 195 357 q 94 522 94 444 q 124 631 94 583 q 213 705 153 678 q 360 732 272 732 q 543 681 473 732 q 616 530 613 631 l 518 530 q 470 617 511 585 q 360 649 430 649 q 241 619 287 649 q 195 527 195 590 q 227 462 195 485 q 318 424 258 439 l 469 384 q 548 351 517 372 q 597 305 578 331 q 623 251 615 280 q 631 197 631 223 q 600 85 631 132 q 509 12 569 38 q 362 -14 449 -14 m 292 -242 l 292 -128 l 406 -128 l 406 -242 l 292 -242 z "},"ß":{"ha":804,"x_min":111,"x_max":740,"o":"m 472 -14 q 369 -1 422 -14 q 281 35 316 13 l 322 110 q 384 80 352 92 q 463 67 416 67 q 590 104 542 67 q 638 211 638 142 q 612 293 638 263 q 546 342 587 324 q 459 377 506 361 q 390 406 424 389 q 333 451 356 422 q 310 528 310 480 q 341 614 310 580 q 432 681 371 647 q 485 714 459 697 q 528 754 511 731 q 546 815 546 778 q 509 894 546 865 q 404 924 472 924 q 271 874 322 924 q 219 725 219 824 l 219 0 l 113 0 l 111 707 q 132 827 112 772 q 191 921 152 881 q 286 983 229 961 q 415 1004 342 1004 q 551 977 500 1004 q 625 907 602 951 q 649 815 649 864 q 627 729 649 763 q 568 673 605 695 q 486 628 531 650 q 420 588 440 603 q 401 546 401 573 q 419 508 401 519 q 483 482 437 497 q 566 449 522 467 q 650 403 610 431 q 715 331 690 375 q 740 222 740 288 q 705 92 740 144 q 608 13 669 40 q 472 -14 547 -14 z "},"t":{"ha":531,"x_min":70,"x_max":463,"o":"m 362 -3 q 255 17 293 -3 q 202 74 217 36 q 187 170 187 113 l 187 637 l 70 637 l 70 718 l 190 718 l 215 925 l 296 925 l 296 719 l 458 719 l 458 637 l 296 637 l 296 174 q 304 113 296 132 q 332 89 312 94 q 390 83 353 83 l 463 83 l 463 8 q 424 0 450 3 q 362 -3 398 -3 z "},"ŧ":{"ha":531,"x_min":70,"x_max":463,"o":"m 75 383 l 75 456 l 453 456 l 453 383 l 75 383 m 362 -3 q 255 17 293 -3 q 202 74 217 36 q 187 170 187 113 l 187 637 l 70 637 l 70 718 l 190 718 l 215 925 l 296 925 l 296 719 l 458 719 l 458 637 l 296 637 l 296 174 q 304 113 296 132 q 332 89 312 94 q 390 83 353 83 l 463 83 l 463 8 q 424 0 450 3 q 362 -3 398 -3 z "},"ť":{"ha":576,"x_min":70,"x_max":472,"o":"m 362 -3 q 255 17 293 -3 q 202 74 217 36 q 187 170 187 113 l 187 637 l 70 637 l 70 718 l 190 718 l 215 925 l 296 925 l 296 719 l 458 719 l 458 637 l 296 637 l 296 174 q 304 113 296 132 q 332 89 312 94 q 390 83 353 83 l 463 83 l 463 8 q 424 0 450 3 q 362 -3 398 -3 m 357 789 l 409 913 l 374 920 l 374 1049 l 472 1049 l 472 914 l 418 789 l 357 789 z "},"ţ":{"ha":531,"x_min":70,"x_max":463,"o":"m 293 -280 q 227 -272 258 -280 q 169 -246 196 -263 l 189 -197 q 228 -219 206 -210 q 281 -228 250 -228 q 339 -215 320 -228 q 357 -176 357 -201 q 331 -130 357 -145 q 248 -113 306 -115 q 240 -111 242 -113 q 240 -105 239 -110 l 291 10 l 353 10 l 319 -74 q 392 -92 365 -77 q 429 -130 418 -108 q 440 -174 440 -152 q 419 -233 440 -209 q 366 -268 399 -256 q 293 -280 333 -280 m 362 -3 q 255 17 293 -3 q 202 74 217 36 q 187 170 187 113 l 187 637 l 70 637 l 70 718 l 190 718 l 215 925 l 296 925 l 296 719 l 458 719 l 458 637 l 296 637 l 296 174 q 304 113 296 132 q 332 89 312 94 q 390 83 353 83 l 463 83 l 463 8 q 424 0 450 3 q 362 -3 398 -3 z "},"ț":{"ha":531,"x_min":70,"x_max":463,"o":"m 362 -3 q 255 17 293 -3 q 202 74 217 36 q 187 170 187 113 l 187 637 l 70 637 l 70 718 l 190 718 l 215 925 l 296 925 l 296 719 l 458 719 l 458 637 l 296 637 l 296 174 q 304 113 296 132 q 332 89 312 94 q 390 83 353 83 l 463 83 l 463 8 q 424 0 450 3 q 362 -3 398 -3 m 247 -249 l 302 -167 l 262 -165 l 262 -65 l 381 -65 l 381 -149 l 295 -249 l 247 -249 z "},"ṭ":{"ha":531,"x_min":70,"x_max":463,"o":"m 362 -3 q 255 17 293 -3 q 202 74 217 36 q 187 170 187 113 l 187 637 l 70 637 l 70 718 l 190 718 l 215 925 l 296 925 l 296 719 l 458 719 l 458 637 l 296 637 l 296 174 q 304 113 296 132 q 332 89 312 94 q 390 83 353 83 l 463 83 l 463 8 q 424 0 450 3 q 362 -3 398 -3 m 263 -238 l 263 -125 l 376 -125 l 376 -238 l 263 -238 z "},"u":{"ha":801,"x_min":99,"x_max":690,"o":"m 375 -14 q 267 2 317 -13 q 180 49 217 18 q 120 126 142 80 q 99 233 99 172 l 99 718 l 208 718 l 208 243 q 253 120 208 167 q 394 74 299 74 q 531 118 479 74 q 582 251 582 162 l 582 718 l 690 718 l 690 0 l 602 0 l 591 136 q 548 51 578 85 q 473 2 517 18 q 375 -14 428 -15 z "},"ú":{"ha":801,"x_min":99,"x_max":690,"o":"m 375 -14 q 267 2 317 -13 q 180 49 217 18 q 120 126 142 80 q 99 233 99 172 l 99 718 l 208 718 l 208 243 q 253 120 208 167 q 394 74 299 74 q 531 118 479 74 q 582 251 582 162 l 582 718 l 690 718 l 690 0 l 602 0 l 591 136 q 548 51 578 85 q 473 2 517 18 q 375 -14 428 -15 m 346 802 l 489 1004 l 618 1004 l 432 802 l 346 802 z "},"ŭ":{"ha":801,"x_min":99,"x_max":690,"o":"m 375 -14 q 267 2 317 -13 q 180 49 217 18 q 120 126 142 80 q 99 233 99 172 l 99 718 l 208 718 l 208 243 q 253 120 208 167 q 394 74 299 74 q 531 118 479 74 q 582 251 582 162 l 582 718 l 690 718 l 690 0 l 602 0 l 591 136 q 548 51 578 85 q 473 2 517 18 q 375 -14 428 -15 m 396 800 q 305 817 347 800 q 234 865 263 833 q 196 943 206 897 l 279 943 q 322 890 291 910 q 396 869 352 869 q 471 890 440 869 q 515 943 503 910 l 599 943 q 560 867 588 899 q 490 817 532 835 q 396 800 448 800 z "},"ǔ":{"ha":801,"x_min":99,"x_max":690,"o":"m 375 -14 q 267 2 317 -13 q 180 49 217 18 q 120 126 142 80 q 99 233 99 172 l 99 718 l 208 718 l 208 243 q 253 120 208 167 q 394 74 299 74 q 531 118 479 74 q 582 251 582 162 l 582 718 l 690 718 l 690 0 l 602 0 l 591 136 q 548 51 578 85 q 473 2 517 18 q 375 -14 428 -15 m 358 802 l 185 952 l 291 952 l 397 861 l 495 952 l 606 952 l 438 802 l 358 802 z "},"û":{"ha":801,"x_min":99,"x_max":690,"o":"m 375 -14 q 267 2 317 -13 q 180 49 217 18 q 120 126 142 80 q 99 233 99 172 l 99 718 l 208 718 l 208 243 q 253 120 208 167 q 394 74 299 74 q 531 118 479 74 q 582 251 582 162 l 582 718 l 690 718 l 690 0 l 602 0 l 591 136 q 548 51 578 85 q 473 2 517 18 q 375 -14 428 -15 m 187 802 l 358 951 l 438 951 l 606 802 l 495 802 l 397 890 l 291 802 l 187 802 z "},"ȕ":{"ha":801,"x_min":65,"x_max":690,"o":"m 375 -14 q 267 2 317 -13 q 180 49 217 18 q 120 126 142 80 q 99 233 99 172 l 99 718 l 208 718 l 208 243 q 253 120 208 167 q 394 74 299 74 q 531 118 479 74 q 582 251 582 162 l 582 718 l 690 718 l 690 0 l 602 0 l 591 136 q 548 51 578 85 q 473 2 517 18 q 375 -14 428 -15 m 263 802 l 65 1004 l 188 1004 l 349 802 l 263 802 m 443 802 l 274 1004 l 394 1004 l 529 802 l 443 802 z "},"ü":{"ha":801,"x_min":99,"x_max":690,"o":"m 375 -14 q 267 2 317 -13 q 180 49 217 18 q 120 126 142 80 q 99 233 99 172 l 99 718 l 208 718 l 208 243 q 253 120 208 167 q 394 74 299 74 q 531 118 479 74 q 582 251 582 162 l 582 718 l 690 718 l 690 0 l 602 0 l 591 136 q 548 51 578 85 q 473 2 517 18 q 375 -14 428 -15 m 470 891 l 471 1004 l 579 1004 l 578 891 l 470 891 m 215 891 l 215 1004 l 324 1004 l 323 891 l 215 891 z "},"ụ":{"ha":801,"x_min":99,"x_max":690,"o":"m 375 -14 q 267 2 317 -13 q 180 49 217 18 q 120 126 142 80 q 99 233 99 172 l 99 718 l 208 718 l 208 243 q 253 120 208 167 q 394 74 299 74 q 531 118 479 74 q 582 251 582 162 l 582 718 l 690 718 l 690 0 l 602 0 l 591 136 q 548 51 578 85 q 473 2 517 18 q 375 -14 428 -15 m 341 -242 l 341 -128 l 454 -128 l 454 -242 l 341 -242 z "},"ù":{"ha":801,"x_min":99,"x_max":690,"o":"m 375 -14 q 267 2 317 -13 q 180 49 217 18 q 120 126 142 80 q 99 233 99 172 l 99 718 l 208 718 l 208 243 q 253 120 208 167 q 394 74 299 74 q 531 118 479 74 q 582 251 582 162 l 582 718 l 690 718 l 690 0 l 602 0 l 591 136 q 548 51 578 85 q 473 2 517 18 q 375 -14 428 -15 m 359 802 l 173 1004 l 302 1004 l 445 802 l 359 802 z "},"ủ":{"ha":801,"x_min":99,"x_max":690,"o":"m 375 -14 q 267 2 317 -13 q 180 49 217 18 q 120 126 142 80 q 99 233 99 172 l 99 718 l 208 718 l 208 243 q 253 120 208 167 q 394 74 299 74 q 531 118 479 74 q 582 251 582 162 l 582 718 l 690 718 l 690 0 l 602 0 l 591 136 q 548 51 578 85 q 473 2 517 18 q 375 -14 428 -15 m 434 800 l 399 853 q 442 899 429 874 q 440 948 455 925 q 396 971 426 972 q 338 951 366 970 l 302 1005 q 414 1035 360 1042 q 496 985 468 1028 q 512 885 530 935 q 434 800 494 836 z "},"ư":{"ha":884,"x_min":99,"x_max":881,"o":"m 375 -14 q 267 2 317 -13 q 180 49 217 18 q 120 126 142 80 q 99 233 99 172 l 99 718 l 208 718 l 208 243 q 253 120 208 167 q 394 74 299 74 q 531 118 479 74 q 582 251 582 162 l 582 718 l 690 718 l 690 636 q 745 649 724 637 q 775 691 765 661 q 788 774 785 720 l 881 774 q 862 652 881 699 q 800 584 842 605 q 690 568 758 564 l 690 0 l 602 0 l 591 136 q 548 51 578 85 q 473 2 517 18 q 375 -14 428 -15 z "},"ứ":{"ha":884,"x_min":99,"x_max":881,"o":"m 360 802 l 503 1004 l 633 1004 l 447 802 l 360 802 m 375 -14 q 267 2 317 -13 q 180 49 217 18 q 120 126 142 80 q 99 233 99 172 l 99 718 l 208 718 l 208 243 q 253 120 208 167 q 394 74 299 74 q 531 118 479 74 q 582 251 582 162 l 582 718 l 690 718 l 690 636 q 745 649 724 637 q 775 691 765 661 q 788 774 785 720 l 881 774 q 862 652 881 699 q 800 584 842 605 q 690 568 758 564 l 690 0 l 602 0 l 591 136 q 548 51 578 85 q 473 2 517 18 q 375 -14 428 -15 z "},"ự":{"ha":884,"x_min":99,"x_max":881,"o":"m 339 -242 l 339 -128 l 452 -128 l 452 -242 l 339 -242 m 375 -14 q 267 2 317 -13 q 180 49 217 18 q 120 126 142 80 q 99 233 99 172 l 99 718 l 208 718 l 208 243 q 253 120 208 167 q 394 74 299 74 q 531 118 479 74 q 582 251 582 162 l 582 718 l 690 718 l 690 636 q 745 649 724 637 q 775 691 765 661 q 788 774 785 720 l 881 774 q 862 652 881 699 q 800 584 842 605 q 690 568 758 564 l 690 0 l 602 0 l 591 136 q 548 51 578 85 q 473 2 517 18 q 375 -14 428 -15 z "},"ừ":{"ha":884,"x_min":99,"x_max":881,"o":"m 359 802 l 173 1004 l 302 1004 l 445 802 l 359 802 m 375 -14 q 267 2 317 -13 q 180 49 217 18 q 120 126 142 80 q 99 233 99 172 l 99 718 l 208 718 l 208 243 q 253 120 208 167 q 394 74 299 74 q 531 118 479 74 q 582 251 582 162 l 582 718 l 690 718 l 690 636 q 745 649 724 637 q 775 691 765 661 q 788 774 785 720 l 881 774 q 862 652 881 699 q 800 584 842 605 q 690 568 758 564 l 690 0 l 602 0 l 591 136 q 548 51 578 85 q 473 2 517 18 q 375 -14 428 -15 z "},"ử":{"ha":884,"x_min":99,"x_max":881,"o":"m 440 800 l 405 853 q 448 899 435 874 q 447 948 461 925 q 402 971 433 972 q 344 951 372 970 l 308 1005 q 420 1035 366 1042 q 502 985 474 1028 q 518 885 536 935 q 440 800 500 836 m 375 -14 q 267 2 317 -13 q 180 49 217 18 q 120 126 142 80 q 99 233 99 172 l 99 718 l 208 718 l 208 243 q 253 120 208 167 q 394 74 299 74 q 531 118 479 74 q 582 251 582 162 l 582 718 l 690 718 l 690 636 q 745 649 724 637 q 775 691 765 661 q 788 774 785 720 l 881 774 q 862 652 881 699 q 800 584 842 605 q 690 568 758 564 l 690 0 l 602 0 l 591 136 q 548 51 578 85 q 473 2 517 18 q 375 -14 428 -15 z "},"ữ":{"ha":884,"x_min":99,"x_max":881,"o":"m 226 852 l 205 920 q 252 955 227 940 q 315 969 278 969 q 377 959 348 969 q 434 941 406 950 q 492 931 462 931 q 543 942 522 931 q 585 967 564 952 l 606 892 q 562 868 589 881 q 492 855 535 855 q 428 864 455 855 q 376 881 401 872 q 321 890 351 890 q 267 878 287 890 q 226 852 247 867 m 375 -14 q 267 2 317 -13 q 180 49 217 18 q 120 126 142 80 q 99 233 99 172 l 99 718 l 208 718 l 208 243 q 253 120 208 167 q 394 74 299 74 q 531 118 479 74 q 582 251 582 162 l 582 718 l 690 718 l 690 636 q 745 649 724 637 q 775 691 765 661 q 788 774 785 720 l 881 774 q 862 652 881 699 q 800 584 842 605 q 690 568 758 564 l 690 0 l 602 0 l 591 136 q 548 51 578 85 q 473 2 517 18 q 375 -14 428 -15 z "},"ű":{"ha":801,"x_min":99,"x_max":732,"o":"m 375 -14 q 267 2 317 -13 q 180 49 217 18 q 120 126 142 80 q 99 233 99 172 l 99 718 l 208 718 l 208 243 q 253 120 208 167 q 394 74 299 74 q 531 118 479 74 q 582 251 582 162 l 582 718 l 690 718 l 690 0 l 602 0 l 591 136 q 548 51 578 85 q 473 2 517 18 q 375 -14 428 -15 m 448 802 l 610 1004 l 733 1004 l 534 802 l 448 802 m 268 802 l 403 1004 l 524 1004 l 354 802 l 268 802 z "},"ȗ":{"ha":801,"x_min":99,"x_max":690,"o":"m 375 -14 q 267 2 317 -13 q 180 49 217 18 q 120 126 142 80 q 99 233 99 172 l 99 718 l 208 718 l 208 243 q 253 120 208 167 q 394 74 299 74 q 531 118 479 74 q 582 251 582 162 l 582 718 l 690 718 l 690 0 l 602 0 l 591 136 q 548 51 578 85 q 473 2 517 18 q 375 -14 428 -15 m 192 844 q 231 922 203 890 q 302 970 260 954 q 392 987 344 987 q 487 969 444 987 q 558 920 529 952 q 595 844 586 888 l 513 844 q 468 898 500 876 q 392 919 436 919 q 318 898 349 919 q 276 844 288 876 l 192 844 z "},"ū":{"ha":801,"x_min":99,"x_max":690,"o":"m 375 -14 q 267 2 317 -13 q 180 49 217 18 q 120 126 142 80 q 99 233 99 172 l 99 718 l 208 718 l 208 243 q 253 120 208 167 q 394 74 299 74 q 531 118 479 74 q 582 251 582 162 l 582 718 l 690 718 l 690 0 l 602 0 l 591 136 q 548 51 578 85 q 473 2 517 18 q 375 -14 428 -15 m 199 863 l 199 943 l 594 943 l 594 863 l 199 863 z "},"ų":{"ha":801,"x_min":99,"x_max":718,"o":"m 375 -14 q 267 2 317 -13 q 180 49 217 18 q 120 126 142 80 q 99 233 99 172 l 99 718 l 208 718 l 208 243 q 253 120 208 167 q 394 74 299 74 q 531 118 479 74 q 582 251 582 162 l 582 718 l 690 718 l 690 0 l 602 0 l 591 136 q 548 51 578 85 q 473 2 517 18 q 375 -14 428 -15 m 594 -231 q 493 -201 526 -231 q 460 -122 460 -172 q 490 -46 460 -79 q 604 13 520 -12 l 685 3 q 583 -53 615 -26 q 551 -115 551 -79 q 567 -153 551 -140 q 619 -167 583 -167 q 679 -158 653 -167 q 718 -142 705 -150 l 718 -203 q 667 -222 701 -213 q 594 -231 633 -231 z "},"ů":{"ha":801,"x_min":99,"x_max":690,"o":"m 375 -14 q 267 2 317 -13 q 180 49 217 18 q 120 126 142 80 q 99 233 99 172 l 99 718 l 208 718 l 208 243 q 253 120 208 167 q 394 74 299 74 q 531 118 479 74 q 582 251 582 162 l 582 718 l 690 718 l 690 0 l 602 0 l 591 136 q 548 51 578 85 q 473 2 517 18 q 375 -14 428 -15 m 397 805 q 297 846 338 805 q 256 949 256 888 q 298 1045 256 1005 q 397 1085 340 1085 q 469 1066 437 1085 q 520 1016 501 1047 q 539 946 539 985 q 498 845 539 886 q 397 805 457 805 m 396 868 q 449 891 427 868 q 471 945 471 915 q 449 1000 471 978 q 396 1021 427 1021 q 342 1000 365 1021 q 319 945 319 978 q 342 891 319 915 q 396 868 365 868 z "},"ũ":{"ha":801,"x_min":99,"x_max":690,"o":"m 375 -14 q 267 2 317 -13 q 180 49 217 18 q 120 126 142 80 q 99 233 99 172 l 99 718 l 208 718 l 208 243 q 253 120 208 167 q 394 74 299 74 q 531 118 479 74 q 582 251 582 162 l 582 718 l 690 718 l 690 0 l 602 0 l 591 136 q 548 51 578 85 q 473 2 517 18 q 375 -14 428 -15 m 220 852 l 199 920 q 246 955 221 940 q 309 969 272 969 q 370 959 342 969 q 427 941 399 950 q 486 931 456 931 q 537 942 516 931 q 578 967 558 952 l 600 892 q 556 868 583 881 q 485 855 528 855 q 422 864 449 855 q 370 881 395 872 q 315 890 345 890 q 260 878 281 890 q 220 852 240 867 z "},"v":{"ha":694,"x_min":37,"x_max":658,"o":"m 294 0 l 37 718 l 141 718 l 340 134 l 354 134 l 556 718 l 658 718 l 403 0 l 294 0 z "},"w":{"ha":1080,"x_min":41,"x_max":1040,"o":"m 260 0 l 41 718 l 143 718 l 315 138 l 328 138 l 497 718 l 581 718 l 759 139 l 772 139 l 936 718 l 1040 718 l 826 0 l 710 0 l 538 556 l 376 0 l 260 0 z "},"ẃ":{"ha":1080,"x_min":41,"x_max":1040,"o":"m 260 0 l 41 718 l 143 718 l 315 138 l 328 138 l 497 718 l 581 718 l 759 139 l 772 139 l 936 718 l 1040 718 l 826 0 l 710 0 l 538 556 l 376 0 l 260 0 m 494 802 l 638 1004 l 767 1004 l 581 802 l 494 802 z "},"ŵ":{"ha":1080,"x_min":41,"x_max":1040,"o":"m 260 0 l 41 718 l 143 718 l 315 138 l 328 138 l 497 718 l 581 718 l 759 139 l 772 139 l 936 718 l 1040 718 l 826 0 l 710 0 l 538 556 l 376 0 l 260 0 m 335 802 l 507 951 l 586 951 l 755 802 l 644 802 l 545 890 l 440 802 l 335 802 z "},"ẅ":{"ha":1080,"x_min":41,"x_max":1040,"o":"m 260 0 l 41 718 l 143 718 l 315 138 l 328 138 l 497 718 l 581 718 l 759 139 l 772 139 l 936 718 l 1040 718 l 826 0 l 710 0 l 538 556 l 376 0 l 260 0 m 619 891 l 619 1004 l 728 1004 l 727 891 l 619 891 m 363 891 l 364 1004 l 472 1004 l 472 891 l 363 891 z "},"ẁ":{"ha":1080,"x_min":41,"x_max":1040,"o":"m 260 0 l 41 718 l 143 718 l 315 138 l 328 138 l 497 718 l 581 718 l 759 139 l 772 139 l 936 718 l 1040 718 l 826 0 l 710 0 l 538 556 l 376 0 l 260 0 m 508 802 l 322 1004 l 451 1004 l 594 802 l 508 802 z "},"x":{"ha":775,"x_min":49,"x_max":726,"o":"m 49 0 l 326 373 l 71 718 l 191 718 l 388 452 l 585 718 l 706 718 l 449 373 l 726 0 l 606 0 l 388 294 l 169 0 l 49 0 z "},"y":{"ha":733,"x_min":37,"x_max":696,"o":"m 172 -229 q 90 -221 112 -229 q 68 -213 68 -213 l 68 -142 l 142 -143 q 206 -137 181 -144 q 248 -118 232 -131 q 274 -91 265 -106 q 289 -62 283 -76 l 317 14 l 37 718 l 147 718 l 370 140 l 590 718 l 696 718 l 390 -67 q 333 -165 365 -130 q 260 -215 300 -200 q 172 -229 219 -229 z "},"ý":{"ha":733,"x_min":37,"x_max":696,"o":"m 172 -229 q 90 -221 112 -229 q 68 -213 68 -213 l 68 -142 l 142 -143 q 206 -137 181 -144 q 248 -118 232 -131 q 274 -91 265 -106 q 289 -62 283 -76 l 317 14 l 37 718 l 147 718 l 370 140 l 590 718 l 696 718 l 390 -67 q 333 -165 365 -130 q 260 -215 300 -200 q 172 -229 219 -229 m 319 802 l 462 1004 l 591 1004 l 405 802 l 319 802 z "},"ŷ":{"ha":733,"x_min":37,"x_max":696,"o":"m 172 -229 q 90 -221 112 -229 q 68 -213 68 -213 l 68 -142 l 142 -143 q 206 -137 181 -144 q 248 -118 232 -131 q 274 -91 265 -106 q 289 -62 283 -76 l 317 14 l 37 718 l 147 718 l 370 140 l 590 718 l 696 718 l 390 -67 q 333 -165 365 -130 q 260 -215 300 -200 q 172 -229 219 -229 m 162 802 l 333 951 l 413 951 l 581 802 l 470 802 l 372 890 l 266 802 l 162 802 z "},"ÿ":{"ha":733,"x_min":37,"x_max":696,"o":"m 172 -229 q 90 -221 112 -229 q 68 -213 68 -213 l 68 -142 l 142 -143 q 206 -137 181 -144 q 248 -118 232 -131 q 274 -91 265 -106 q 289 -62 283 -76 l 317 14 l 37 718 l 147 718 l 370 140 l 590 718 l 696 718 l 390 -67 q 333 -165 365 -130 q 260 -215 300 -200 q 172 -229 219 -229 m 444 891 l 444 1004 l 553 1004 l 552 891 l 444 891 m 188 891 l 189 1004 l 297 1004 l 297 891 l 188 891 z "},"ỵ":{"ha":733,"x_min":37,"x_max":696,"o":"m 172 -229 q 90 -221 112 -229 q 68 -213 68 -213 l 68 -142 l 142 -143 q 206 -137 181 -144 q 248 -118 232 -131 q 274 -91 265 -106 q 289 -62 283 -76 l 317 14 l 37 718 l 147 718 l 370 140 l 590 718 l 696 718 l 390 -67 q 333 -165 365 -130 q 260 -215 300 -200 q 172 -229 219 -229 m 482 -239 l 482 -126 l 595 -126 l 595 -239 l 482 -239 z "},"ỳ":{"ha":733,"x_min":37,"x_max":696,"o":"m 172 -229 q 90 -221 112 -229 q 68 -213 68 -213 l 68 -142 l 142 -143 q 206 -137 181 -144 q 248 -118 232 -131 q 274 -91 265 -106 q 289 -62 283 -76 l 317 14 l 37 718 l 147 718 l 370 140 l 590 718 l 696 718 l 390 -67 q 333 -165 365 -130 q 260 -215 300 -200 q 172 -229 219 -229 m 332 802 l 146 1004 l 275 1004 l 418 802 l 332 802 z "},"ỷ":{"ha":733,"x_min":37,"x_max":696,"o":"m 172 -229 q 90 -221 112 -229 q 68 -213 68 -213 l 68 -142 l 142 -143 q 206 -137 181 -144 q 248 -118 232 -131 q 274 -91 265 -106 q 289 -62 283 -76 l 317 14 l 37 718 l 147 718 l 370 140 l 590 718 l 696 718 l 390 -67 q 333 -165 365 -130 q 260 -215 300 -200 q 172 -229 219 -229 m 407 800 l 372 853 q 415 899 402 874 q 413 948 428 925 q 369 971 399 972 q 310 951 339 970 l 275 1005 q 387 1035 333 1042 q 469 985 441 1028 q 485 885 503 935 q 407 800 467 836 z "},"ỹ":{"ha":733,"x_min":37,"x_max":696,"o":"m 172 -229 q 90 -221 112 -229 q 68 -213 68 -213 l 68 -142 l 142 -143 q 206 -137 181 -144 q 248 -118 232 -131 q 274 -91 265 -106 q 289 -62 283 -76 l 317 14 l 37 718 l 147 718 l 370 140 l 590 718 l 696 718 l 390 -67 q 333 -165 365 -130 q 260 -215 300 -200 q 172 -229 219 -229 m 193 852 l 172 920 q 219 955 194 940 q 282 969 244 969 q 343 959 315 969 q 400 941 372 950 q 459 931 428 931 q 510 942 489 931 q 551 967 531 952 l 573 892 q 528 868 556 881 q 458 855 501 855 q 395 864 422 855 q 343 881 368 872 q 288 890 318 890 q 233 878 253 890 q 193 852 213 867 z "},"z":{"ha":662,"x_min":56,"x_max":606,"o":"m 56 0 l 56 72 l 475 637 l 73 637 l 73 718 l 602 718 l 602 647 l 184 82 l 606 82 l 606 0 l 56 0 z "},"ź":{"ha":662,"x_min":56,"x_max":606,"o":"m 56 0 l 56 72 l 475 637 l 73 637 l 73 718 l 602 718 l 602 647 l 184 82 l 606 82 l 606 0 l 56 0 m 287 802 l 430 1004 l 559 1004 l 373 802 l 287 802 z "},"ž":{"ha":662,"x_min":56,"x_max":606,"o":"m 56 0 l 56 72 l 475 637 l 73 637 l 73 718 l 602 718 l 602 647 l 184 82 l 606 82 l 606 0 l 56 0 m 299 802 l 126 952 l 232 952 l 338 861 l 436 952 l 547 952 l 378 802 l 299 802 z "},"ż":{"ha":662,"x_min":56,"x_max":606,"o":"m 56 0 l 56 72 l 475 637 l 73 637 l 73 718 l 602 718 l 602 647 l 184 82 l 606 82 l 606 0 l 56 0 m 281 891 l 281 1004 l 394 1004 l 394 891 l 281 891 z "},"ẓ":{"ha":662,"x_min":56,"x_max":606,"o":"m 56 0 l 56 72 l 475 637 l 73 637 l 73 718 l 602 718 l 602 647 l 184 82 l 606 82 l 606 0 l 56 0 m 282 -242 l 282 -128 l 395 -128 l 395 -242 l 282 -242 z "},"ﬁ":{"ha":886,"x_min":54,"x_max":775,"o":"m 211 0 l 211 637 l 54 637 l 54 718 l 211 718 l 211 832 q 252 960 211 917 q 380 1004 294 1004 l 507 1004 l 507 925 l 397 925 q 334 900 351 925 q 318 826 318 876 l 318 718 l 500 718 l 500 637 l 319 637 l 319 0 l 211 0 m 666 0 l 666 718 l 772 718 l 772 0 l 666 0 m 661 884 l 661 1003 l 775 1003 l 775 884 l 661 884 z "},"ﬂ":{"ha":961,"x_min":54,"x_max":889,"o":"m 211 0 l 211 637 l 54 637 l 54 718 l 211 718 l 211 832 q 252 960 211 917 q 380 1004 294 1004 l 507 1004 l 507 925 l 397 925 q 334 900 351 925 q 318 826 318 876 l 318 718 l 500 718 l 500 637 l 319 637 l 319 0 l 211 0 m 829 -8 q 745 7 778 -8 q 693 49 712 22 q 668 109 675 75 q 661 181 661 143 l 661 1032 l 768 1032 l 768 190 q 790 103 768 131 q 849 74 813 76 l 889 73 l 889 2 q 858 -5 874 -3 q 829 -8 842 -8 z "},"ª":{"ha":569,"x_min":74,"x_max":470,"o":"m 226 550 q 114 583 153 550 q 74 675 74 617 q 132 778 74 740 q 297 825 190 817 l 380 832 l 380 865 q 351 934 380 913 q 274 956 322 956 q 207 941 235 956 q 154 888 178 927 l 86 908 q 158 987 110 959 q 278 1015 206 1015 q 413 974 369 1015 q 456 864 456 934 q 456 769 456 808 q 456 703 456 731 q 457 676 456 692 q 459 643 458 660 q 462 610 460 626 l 470 558 l 390 558 l 378 620 q 306 567 342 584 q 226 550 271 550 m 250 607 q 345 644 306 607 q 371 673 362 658 q 380 703 380 687 l 380 779 l 311 774 q 194 744 233 769 q 155 678 155 719 q 181 626 155 646 q 250 607 208 607 z "},"º":{"ha":565,"x_min":68,"x_max":497,"o":"m 282 552 q 167 582 215 552 q 93 663 119 611 q 68 783 68 715 q 94 906 68 853 q 169 988 121 958 q 282 1017 217 1017 q 397 988 349 1017 q 471 905 445 958 q 497 783 497 852 q 472 663 497 715 q 398 582 447 611 q 282 552 350 552 m 282 613 q 381 659 347 613 q 414 786 414 706 q 381 910 414 864 q 282 956 347 956 q 185 910 217 956 q 152 786 152 864 q 185 659 152 706 q 282 613 217 613 z "},"π":{"ha":909,"x_min":38,"x_max":867,"o":"m 102 0 q 131 130 117 58 q 156 283 145 201 q 174 451 167 365 q 180 623 180 537 q 168 637 180 637 l 38 637 l 38 718 l 867 718 l 867 637 l 704 637 l 704 0 l 599 0 l 598 637 l 282 637 q 275 455 282 547 q 258 277 269 363 q 232 121 247 192 q 200 0 217 49 l 102 0 z "},"⁰":{"ha":518,"x_min":39,"x_max":480,"o":"m 259 508 q 96 592 153 508 q 39 829 39 675 q 97 1071 39 985 q 259 1157 155 1157 q 422 1072 365 1157 q 480 831 480 986 q 423 593 480 677 q 259 508 365 508 m 260 574 q 366 636 332 574 q 401 831 401 699 q 366 1028 401 964 q 259 1093 331 1093 q 152 1028 188 1093 q 117 831 117 963 q 152 637 117 701 q 260 574 188 574 z "},"¹":{"ha":326,"x_min":33,"x_max":232,"o":"m 156 517 l 156 1023 l 33 1023 l 33 1076 q 145 1092 115 1076 q 176 1149 175 1108 l 232 1149 l 232 517 l 156 517 z "},"²":{"ha":500,"x_min":33,"x_max":460,"o":"m 47 519 l 47 567 l 47 590 q 70 686 47 647 q 132 754 94 726 q 213 806 170 783 q 293 852 256 828 q 355 907 331 876 q 379 981 379 938 q 344 1062 379 1031 q 250 1092 309 1092 q 149 1058 188 1092 q 106 960 109 1023 l 33 960 q 58 1059 33 1015 q 133 1132 83 1104 q 253 1159 182 1159 q 401 1110 346 1159 q 456 981 456 1061 q 432 885 456 924 q 371 819 408 847 q 291 769 333 791 q 212 724 249 747 q 151 670 174 701 q 127 597 127 640 l 127 585 l 460 585 l 460 519 l 47 519 z "},"³":{"ha":549,"x_min":46,"x_max":503,"o":"m 265 511 q 108 565 168 513 q 46 701 48 617 l 119 701 q 168 609 128 641 q 267 576 208 576 q 382 609 339 576 q 424 693 424 641 q 380 783 424 749 q 259 817 335 816 l 202 817 l 202 881 l 257 883 q 333 898 299 883 q 387 939 367 914 q 407 995 407 965 q 371 1065 407 1035 q 268 1095 335 1095 q 202 1081 234 1095 q 149 1039 170 1067 q 128 966 128 1010 l 55 966 q 83 1068 55 1024 q 159 1135 110 1111 q 268 1159 207 1159 q 381 1140 333 1159 q 457 1084 430 1120 q 485 997 485 1048 q 456 913 485 950 q 369 854 426 876 q 467 795 431 836 q 503 694 503 755 q 472 595 503 637 q 387 532 441 554 q 265 511 333 510 z "},"⁴":{"ha":539,"x_min":33,"x_max":506,"o":"m 328 517 l 328 683 l 33 683 l 33 751 l 326 1149 l 401 1149 l 401 749 l 506 749 l 506 683 l 401 683 l 401 517 l 328 517 m 106 749 l 327 749 l 327 1046 l 106 749 z "},"⁵":{"ha":544,"x_min":39,"x_max":506,"o":"m 280 508 q 127 555 192 508 q 39 676 61 601 l 105 698 q 171 606 127 640 q 276 572 215 572 q 388 613 347 572 q 428 722 428 653 q 385 827 428 789 q 283 866 342 866 q 208 854 242 866 q 139 798 175 842 q 135 798 136 798 q 133 799 135 799 l 69 815 l 98 1149 l 469 1149 l 467 1084 l 162 1084 l 146 878 q 211 917 175 904 q 295 931 248 931 q 398 907 350 931 q 476 838 446 883 q 506 724 506 792 q 444 567 506 626 q 280 508 382 508 z "},"⁶":{"ha":527,"x_min":39,"x_max":489,"o":"m 274 510 q 101 594 164 510 q 39 824 39 679 q 103 1071 39 983 q 281 1158 167 1158 q 377 1138 333 1158 q 449 1082 420 1118 q 484 995 477 1046 l 414 995 q 367 1068 401 1042 q 282 1094 332 1094 q 155 1025 197 1094 q 117 826 113 956 q 182 900 138 872 q 281 928 226 928 q 433 873 376 928 q 489 725 489 818 q 462 612 489 660 q 387 536 435 563 q 274 510 339 510 m 274 572 q 372 614 334 572 q 410 722 410 655 q 373 829 410 793 q 273 865 336 865 q 203 848 235 865 q 151 802 171 831 q 132 742 132 774 q 170 619 131 666 q 274 572 210 572 z "},"⁷":{"ha":488,"x_min":33,"x_max":470,"o":"m 144 519 q 185 670 155 577 q 265 873 215 764 q 386 1085 315 981 l 33 1085 l 33 1151 l 470 1151 l 470 1087 q 385 949 426 1026 q 310 790 344 871 q 253 637 276 708 q 224 519 230 566 l 144 519 z "},"⁸":{"ha":569,"x_min":46,"x_max":524,"o":"m 285 510 q 111 559 177 510 q 46 690 46 608 q 64 760 46 726 q 109 817 81 793 q 169 850 138 842 q 99 904 124 870 q 74 985 74 938 q 133 1112 74 1065 q 285 1158 192 1158 q 437 1112 378 1158 q 496 985 496 1065 q 471 904 496 938 q 401 850 447 870 q 461 817 433 842 q 507 760 489 793 q 524 690 524 726 q 458 559 524 608 q 285 510 392 510 m 285 571 q 401 603 358 571 q 444 690 444 636 q 400 780 444 745 q 285 814 356 814 q 169 780 213 814 q 125 690 125 745 q 168 603 125 636 q 285 571 211 571 m 285 882 q 384 910 348 882 q 419 988 419 938 q 383 1070 419 1040 q 285 1100 346 1100 q 187 1069 224 1100 q 150 988 150 1039 q 186 910 150 938 q 285 882 222 882 z "},"⁹":{"ha":530,"x_min":40,"x_max":491,"o":"m 246 510 q 149 530 193 510 q 75 586 104 550 q 40 672 47 623 l 111 672 q 159 600 123 628 q 244 573 194 573 q 376 640 330 573 q 418 844 422 708 q 355 767 399 796 q 253 738 310 738 q 101 793 158 738 q 44 942 44 849 q 70 1056 44 1008 q 144 1132 97 1105 q 257 1158 192 1158 q 429 1073 367 1158 q 491 843 491 988 q 426 595 491 681 q 246 510 361 510 m 258 802 q 327 819 295 802 q 379 866 359 837 q 399 927 399 894 q 360 1049 400 1002 q 257 1096 320 1096 q 160 1055 197 1096 q 123 946 123 1014 q 159 839 123 875 q 258 802 194 802 z "},"⁄":{"ha":320,"x_min":-214,"x_max":540,"o":"m -135 -6 l -214 -5 l 465 1015 l 540 1015 l -135 -6 z "},"½":{"ha":1190,"x_min":33,"x_max":1151,"o":"m 156 372 l 156 878 l 33 878 l 33 932 q 145 948 115 931 q 176 1004 175 964 l 232 1004 l 232 372 l 156 372 m 221 -6 l 142 -5 l 821 1015 l 896 1015 l 221 -6 m 737 -1 l 737 47 l 737 71 q 761 167 737 128 q 823 235 785 206 q 903 286 860 263 q 984 333 946 309 q 1045 388 1022 357 q 1069 462 1069 419 q 1034 542 1069 512 q 940 573 999 573 q 839 538 878 573 q 796 441 799 503 l 723 441 q 748 540 723 495 q 823 612 774 585 q 944 640 872 640 q 1091 591 1036 640 q 1146 462 1146 542 q 1122 366 1146 405 q 1061 299 1099 327 q 982 249 1024 272 q 902 204 940 227 q 841 151 865 181 q 817 77 817 121 l 817 66 l 1151 66 l 1151 -1 l 737 -1 z "}}}
